<?xml version="1.0" encoding="utf-8"?>
<!-- Generator: Adobe Illustrator 22.0.1, SVG Export Plug-In . SVG Version: 6.00 Build 0)  -->
<svg version="1.1" id="Layer_1" xmlns="http://www.w3.org/2000/svg" xmlns:xlink="http://www.w3.org/1999/xlink" x="0px" y="0px"
	 viewBox="0 0 162.1 254.6" style="enable-background:new 0 0 162.1 254.6;" xml:space="preserve">
<style type="text/css">
	.st0{fill:#7C7C7C;}
	.st1{fill:#FFFFFF;}
	.st2{fill:#A09F9F;}
</style>
<g>
	<g>
		<path class="st0" d="M16.4,104.3c-7.8,9.9-9,20.5-9,20.5s6.6,4.8,16.7,6.5c-0.3-0.7-0.7-1.4-1-2.1
			C19.3,121.2,17.1,112.7,16.4,104.3z"/>
		<path class="st0" d="M154.2,67.4c-17.1-36.2-60.3-51.7-96.4-34.6C29.6,46,14,75,16.4,104.3c3.5-4.4,8.2-8.6,14.8-11.7
			c21.2-10,40.2,1.4,40.2,1.4s1.5,22.8-21.8,33.7c-9.6,4.5-18.4,4.8-25.4,3.6c17.7,34.7,59.9,49.3,95.4,32.5
			C155.7,146.8,171.2,103.6,154.2,67.4z"/>
		<path class="st1" d="M49.6,127.8C72.8,116.8,71.4,94,71.4,94s-19-11.4-40.2-1.4c-6.5,3.1-11.3,7.3-14.8,11.7
			c0.7,8.4,2.9,16.9,6.7,24.9c0.3,0.7,0.7,1.4,1,2.1C31.2,132.5,40,132.3,49.6,127.8z"/>
		<path class="st1" d="M109.2,126.1c0.7,8.9,9.4,16.3,18.3,15.7c8.9-0.7,16.3-9.3,15.6-18.2c-0.5-6.5-6.9-12.1-13.5-11.6
			c-6.5,0.5-12,6.9-11.5,13.4c0.4,4.9,4.8,8,8.9,7.7c5.3-0.4,8-4.7,7.6-8.9c-0.1-1.7-2.4-3.8-4.1-3.6c-1.7,0.1-3.4,2.4-3.2,4.1
			c0.1,1.4-0.5,2.5-1.8,2.6s-2.1-0.9-2.2-2.2c-0.3-4.3,2.6-8.2,6.9-8.5c4.3-0.3,8.1,3,8.5,7.2c0.5,6.7-4.4,12.5-11.1,13
			c-6.6,0.5-12.4-4.4-12.9-11.1c-0.7-8.9,6-16.7,14.9-17.4s16.8,6,17.5,14.9c0.9,11.6-8.7,21.7-19.3,22.6
			c-11.5,0.9-21.7-7.8-22.5-19.3c-0.9-12.2,8.8-23.6,21.1-22.7C116.2,105.9,108.4,115.5,109.2,126.1"/>
		<polyline class="st2" points="100.7,102.4 53.4,21.6 91.6,3.5 124.9,90.9 100.7,102.4 		"/>
		<path class="st0" d="M54.6,118c6.7-3.2,9.6-11.2,6.4-17.9c-3.2-6.7-11.2-9.6-17.9-6.4s-9.6,11.2-6.4,17.9
			C39.9,118.3,47.9,121.2,54.6,118"/>
	</g>
</g>
<g>
	<path class="st0" d="M9.4,188.5L9.4,188.5c0.7-1,1.8-1.8,3-1.8c1.5,0,2.5,0.7,3.2,2c0.7-1.2,2-2,3.5-2c3,0,3.7,2.3,3.7,4.8v6.7
		h-2.2V192c0-1.4-0.2-3.3-2.1-3.3c-2.3,0-2.5,2.4-2.5,4.1v5.5h-2v-6c0-1.5-0.1-3.7-2.1-3.7c-2.3,0-2.5,2.4-2.5,4.1v5.5H7.2V187h2.2
		V188.5z"/>
	<path class="st0" d="M50.4,182c0,0.8-0.7,1.5-1.5,1.5s-1.5-0.6-1.5-1.5c0-0.8,0.7-1.5,1.5-1.5S50.4,181.1,50.4,182z M50,198.3h-2.2
		v-11.2H50V198.3z"/>
	<path class="st0" d="M85.6,198.3h-2.2v-1.8l0,0c-0.9,1.3-2.2,2.1-3.8,2.1c-3.4,0-5.4-2.9-5.4-6.1c0-3.1,2-5.9,5.3-5.9
		c1.7,0,3,0.9,3.9,2.2l0,0v-1.9h2.2V198.3z M83.5,192.7c0-2.2-1.3-4-3.6-4c-2.2,0-3.6,1.9-3.6,4s1.3,4.1,3.6,4.1
		S83.5,194.9,83.5,192.7z"/>
	<path class="st0" d="M112.1,188.5L112.1,188.5c0.7-1,1.8-1.8,3-1.8c1.5,0,2.5,0.7,3.2,2c0.7-1.2,2-2,3.5-2c3,0,3.7,2.3,3.7,4.8v6.7
		h-2.2V192c0-1.4-0.2-3.3-2.1-3.3c-2.3,0-2.5,2.4-2.5,4.1v5.5h-2.2v-6c0-1.5-0.1-3.7-2.1-3.7c-2.3,0-2.5,2.4-2.5,4.1v5.5h-2.2V187
		h2.2v1.5H112.1z"/>
	<path class="st0" d="M153,182c0,0.8-0.7,1.5-1.5,1.5s-1.5-0.6-1.5-1.5c0-0.8,0.7-1.5,1.5-1.5S153,181.1,153,182z M152.6,198.3h-2.2
		v-11.2h2.2V198.3z"/>
</g>
<g>
	<path class="st0" d="M15.8,218.4c-0.6-0.5-1.4-0.9-2.3-0.9c-1.7,0-3,1.3-3,3c0,1.8,1.3,3,3.1,3c0.8,0,1.6-0.3,2.2-0.8v3.7
		c-1,0.5-2,0.7-3.1,0.7c-3.6,0-6.7-2.7-6.7-6.4c0-4,3-6.7,6.9-6.7c1,0,2,0.2,2.9,0.7C15.8,214.7,15.8,218.4,15.8,218.4z"/>
	<path class="st0" d="M26.5,206.7v9.2l0,0c1-1.3,2.2-2,3.9-2c3.1,0,4.6,2.1,4.6,5.2v7.5h-4.4v-6.3c0-1.4-0.2-2.9-2-2.9
		c-1.7,0-2.3,1.5-2.3,2.9v6.3h-4.4v-19.9H26.5z"/>
	<path class="st0" d="M46.2,209.6c0,1.3-1.1,2.4-2.4,2.4c-1.3,0-2.4-1.1-2.4-2.4s1.1-2.4,2.4-2.4C45.1,207.2,46.2,208.3,46.2,209.6z
		 M45.9,226.7h-4.4v-12.3h4.4V226.7z"/>
	<path class="st0" d="M56.8,226.7h-4.4v-19.9h4.4V226.7z"/>
	<path class="st0" d="M72.5,225.3L72.5,225.3c-0.8,1.2-2.3,1.8-3.8,1.8c-3.6,0-6.2-3-6.2-6.6s2.5-6.6,6.2-6.6c1.4,0,2.9,0.5,3.8,1.6
		v-8.8h4.4v19.9h-4.4V225.3z M67,220.5c0,1.6,1,2.8,2.8,2.8s2.8-1.2,2.8-2.8c0-1.5-1-2.8-2.8-2.8C68.1,217.7,67,219,67,220.5z"/>
	<path class="st0" d="M87.6,216.4L87.6,216.4c0.9-1.5,2.3-2.2,4-2.2h0.8v4.2c-0.6-0.3-1.2-0.4-1.8-0.4c-2.4,0-3,1.6-3,3.7v5h-4.4
		v-12.3h4.4V216.4z"/>
	<path class="st0" d="M110.3,221.2h-9.2c0,1.8,0.9,2.7,2.7,2.7c0.9,0,1.6-0.3,2.1-1.1h4.2c-0.3,1.4-1.2,2.5-2.3,3.2
		c-1.1,0.7-2.5,1-3.9,1c-4.1,0-7.1-2.3-7.1-6.6c0-4.1,2.8-6.6,6.8-6.6c4.3,0,6.7,2.6,6.7,6.8C110.3,220.6,110.3,221.2,110.3,221.2z
		 M106.3,218.7c-0.2-1.2-1.3-1.9-2.5-1.9c-1.3,0-2.3,0.7-2.6,1.9H106.3z"/>
	<path class="st0" d="M120.3,215.9L120.3,215.9c1.1-1.5,2.3-2,4-2c3.3,0,4.6,2.1,4.6,5.1v7.6h-4.4v-6c0-1.2,0.2-3.2-2-3.2
		c-1.8,0-2.3,1.3-2.3,2.9v6.4h-4.4v-12.3h4.4L120.3,215.9L120.3,215.9z"/>
	<path class="st0" d="M142.4,208.6l-4.4,7.9h-2.8l3.1-7.9H142.4z"/>
	<path class="st0" d="M152.2,217.5c-0.7-0.4-1.6-0.6-2.4-0.6c-0.5,0-1.4,0.2-1.4,0.8c0,0.8,1.4,1,2,1.1c2,0.4,3.6,1.4,3.6,3.6
		c0,3.2-3,4.6-5.8,4.6c-1.8,0-3.5-0.5-5-1.4l1.6-3c0.9,0.6,2.4,1.2,3.5,1.2c0.6,0,1.4-0.3,1.4-0.9c0-1-1.4-1-2.7-1.4
		c-1.4-0.4-2.7-1-2.7-3.2c0-3,2.7-4.4,5.4-4.4c1.4,0,2.8,0.2,4.1,0.8L152.2,217.5z"/>
</g>
<g>
	<path class="st0" d="M9.5,239.9L9.5,239.9c0.7-1,1.8-1.8,3-1.8c1.5,0,2.5,0.7,3.2,2c0.7-1.2,2-2,3.5-2c3,0,3.7,2.3,3.7,4.8v6.7
		h-2.2v-6.4c0-1.4-0.2-3.3-2.1-3.3c-2.3,0-2.5,2.4-2.5,4.1v5.5H14v-6c0-1.5-0.1-3.7-2.1-3.7c-2.3,0-2.5,2.4-2.5,4.1v5.5H7.3v-11.2
		h2.2V239.9z"/>
	<path class="st0" d="M41.2,238.4v6.2c0,1.8,0.5,3.4,2.6,3.4s2.6-1.6,2.6-3.4v-6.2h2.2v6.5c0,3.1-1.4,5.2-4.8,5.2S39,248,39,244.9
		v-6.5H41.2z"/>
	<path class="st0" d="M69.2,241c-0.3-0.6-0.8-1-1.4-1s-1.2,0.5-1.2,1.1c0,1,1.3,1.4,2.6,2c1.3,0.6,2.6,1.4,2.6,3.2
		c0,2.1-1.8,3.7-3.9,3.7c-1.6,0-3.3-0.9-3.9-2.5l1.8-0.8c0.5,0.8,1,1.4,2,1.4c0.9,0,1.7-0.6,1.7-1.6c0-0.6-0.3-0.9-0.8-1.2l-2.1-1.1
		c-1.2-0.7-2.2-1.3-2.2-2.8c0-1.8,1.5-3.3,3.3-3.3c1.4,0,2.5,0.7,3.1,2L69.2,241z"/>
	<path class="st0" d="M88.5,244.4c0,1.9,1.3,3.7,3.4,3.7c1.7,0,2.5-0.8,3.4-2.2l1.8,1c-1.1,1.9-3,3.1-5.2,3.1
		c-3.4,0-5.5-2.6-5.5-5.9c0-3.5,1.8-6,5.5-6c3.6,0,5.3,2.6,5.3,6v0.3L88.5,244.4L88.5,244.4z M94.9,242.8c-0.3-1.7-1.4-2.8-3.1-2.8
		s-2.9,1.2-3.2,2.8H94.9z"/>
	<path class="st0" d="M114.3,238.4v6.2c0,1.8,0.5,3.4,2.6,3.4s2.6-1.6,2.6-3.4v-6.2h2.2v6.5c0,3.1-1.4,5.2-4.8,5.2s-4.8-2.1-4.8-5.2
		v-6.5H114.3z"/>
	<path class="st0" d="M140,239.9L140,239.9c0.7-1,1.8-1.8,3-1.8c1.5,0,2.5,0.7,3.2,2c0.7-1.2,2-2,3.5-2c3,0,3.7,2.3,3.7,4.8v6.7
		h-2.2v-6.4c0-1.4-0.2-3.3-2.1-3.3c-2.3,0-2.5,2.4-2.5,4.1v5.5h-2.2v-6c0-1.5-0.1-3.7-2.1-3.7c-2.3,0-2.5,2.4-2.5,4.1v5.5h-2.2
		v-11.2h2.2v1.7H140z"/>
</g>
</svg>
