<?xml version="1.0" encoding="utf-8"?>
<!-- Generator: Adobe Illustrator 22.0.1, SVG Export Plug-In . SVG Version: 6.00 Build 0)  -->
<svg version="1.1" id="Layer_1" xmlns="http://www.w3.org/2000/svg" xmlns:xlink="http://www.w3.org/1999/xlink" x="0px" y="0px"
	 viewBox="0 0 537 177" style="enable-background:new 0 0 537 177;" xml:space="preserve">
<style type="text/css">
	.st0{fill:#7C7C7C;stroke:#7C7C7C;stroke-miterlimit:10;}
	.st1{fill:#FFFFFF;}
	.st2{fill:#7C7C7C;stroke:#7C7C7C;stroke-width:2.4131;}
	.st3{fill:#7C7C7C;stroke:#7C7C7C;stroke-width:2.4516;}
	.st4{fill:#7C7C7C;stroke:#7C7C7C;stroke-width:2.3682;}
	.st5{fill:#7C7C7C;stroke:#7C7C7C;stroke-width:2.3875;}
	.st6{fill:#7C7C7C;stroke:#7C7C7C;stroke-width:2.4101;}
	.st7{fill:#7C7C7C;stroke:#7C7C7C;stroke-width:2.396;}
	.st8{fill:#7C7C7C;stroke:#7C7C7C;stroke-width:2.3635;}
</style>
<g id="punch_ribbon">
</g>
<g id="punch_type">
</g>
<g id="ds">
</g>
<g id="white_border">
</g>
<g id="bevel">
</g>
<g id="top">
</g>
<g>
	<g>
		<path class="st0" d="M490.4,53.3L490.4,53.3c-12.1-5.3-23.7-4.8-32.8,1.5c-1.2,0.8-2.4,1.8-3.5,2.8c-4.8-11.4-17.3-23.4-33.9-27.7
			c-14-3.6-26.9-1-36.4,7.2c-3.2,2.8-6,6.2-8.2,10.1c0.3-8.6,0.5-14.5,0.5-14.7c0.1-3.1-0.7-10.4-10-11.8l0,0
			c-2.4-0.4-12.9-1.8-15.9-2.2c-3.7-0.5-6.7,0.4-9,2.4c-1.3,1.2-2.3,2.8-2.7,4.6c-12.5-11.7-33.2-12.7-39.4-12.7l0,0
			c-10.9-0.1-20,0.1-29,2.1c-1.5,0.3-2.8,0.8-3.9,1.5c-2.9-2.9-6.6-2.7-8.1-2.6l0,0l-5.6,0.2c-5.1,0.2-8.9,0.3-10.1,0.4
			c-5.1,0.3-8.5,2.5-10.7,6.8c0,0-14.6,29-23.4,46.5c-8.9-15.6-23-40.4-23.6-41.4c-2.6-4.6-6.6-6.5-11.8-5.6
			c-1.3,0.2-14,2.5-15.9,2.9c-6.3,1.3-9.8,5.9-9.1,12.1c0,0,2.5,20.5,4.8,40.3c-7.4-19.1-15.1-39.2-15.4-39.9l0,0
			c-1.9-5-6.5-7.6-11.6-6.6c-0.4,0.1-1.2,0.2-2.1,0.5l0.6-3.2c0.1-0.7,0.1-1.3,0.1-1.9c0-2.7-0.9-4.9-2.5-6.6
			c-3.7-3.7-8.7-2.1-10.5-1.6l-1.7,0.5c-14,4.3-24,7.4-48.5,17c-20.3,7.9-39.2,17.3-46.4,20.9c-4.1,2.1-6.4,6.6-5.6,11.2
			c0.2,1.3,1,5.4,1.4,7.4l0.1,0.3c0.3,1.6,1.1,5.2,4.9,7.1c2.5,1.3,5.4,1.2,8.6-0.2c0.9-0.4,8-3.3,15.5-6.2c2-0.7,4.2-1.6,6.4-2.4
			c0.3,6.6,3,75.7,3.1,76.1c0.3,3.9,2.4,5.9,4,6.9c3.8,2.2,7.3,0.6,9.4-0.3c0.1-0.1,12.6-5.8,14.1-6.5c1.8-1,3.6-2.1,4.8-4.1
			c1.6,0.4,3.4,0.4,5-0.1c1.3-0.4,10.4-3.6,10.5-3.7c4-1.4,5.8-4.2,6.6-6.3c0.3-0.9,3.1-8.9,4.8-14c4.2-1.3,18.4-5.6,21.5-6.5
			c3.8,7.9,4,8.1,4.2,8.5c2.3,3.7,6.2,5.3,10.7,4.2l14.3-3.4c1.7-0.4,3.2-1.1,4.4-2.2c1.6,0.5,3.3,0.6,5.2,0.3l8.8-1.5
			c6.1-1.2,8.3-5.9,8.3-9.6c0-0.1,0-0.3,0-0.4c0-0.6-0.5-9.3-1-19.2c6.1,10.1,11.8,19.4,12.1,20c0.9,1.5,3.8,6.2,11,5.4
			c6.2-0.7,8.5-5,9.3-6.7l0.1-0.2c0.4-0.8,7.1-13.1,14.2-26.2c0.1,10.2,0.3,21.1,0.3,21.1c0.1,2.8,1,5.1,2.8,6.8
			c2.8,2.6,6.4,2.4,7.7,2.4l11.4-0.7c6.7-0.4,9.4-5.2,9.7-9.1c0-0.2,0.1-0.9,0.1-2c0,0.9,0,1.4,0,1.5c0.2,4.4,3,9.6,10.6,9.5h12
			c6.9,0.1,10.1-4.7,10.2-9.5c0,0,0.2-11.6,0.4-19.8c0.1,0,0.2,0,0.3,0c12.4,0.3,22.2-1.2,30.2-4.5c5-2.1,9.1-5,12.4-8.5
			c0.7,19.2,1.4,38.3,1.4,39.3c0.1,4,2.7,8.9,9.6,9.8l5.6,0.8l5.6,0.8c1.4,0.2,5.1,0.6,8.2-2.1c1.9-1.7,3.1-4.1,3.2-6.8
			c0-0.6,0.2-5.7,0.5-13.1c6.8,17.2,20.5,29.3,38.9,33.7c10.2,2.5,19.1,1.6,26.6-3c2.8-1.7,5-3.6,6.8-5.7c1.9,4.7,4.2,9.2,7.1,13.3
			c6.5,9.4,15.2,16.6,25.1,20.9c11,4.7,21.3,4.6,29.9-0.2c6.6-3.7,15-11.9,17.8-30.3C529.8,100.1,518.9,65.8,490.4,53.3z M84,105
			c0.7-18.8,1.6-39.9,1.9-48.3c3.4-1.4,14.8-6.1,14.8-6.1C97.9,59.8,92.8,76.3,84,105z M311.5,49.8c0,7.7-11.3,8.7-14.3,8.7
			c0.1-5.7,0.2-9.9,0.2-15.5C298.6,43,311.5,42.1,311.5,49.8z M495.8,113.3c0,7.2-2.1,23.9-9.3,22.1c-5-1.2-11.4-7.2-13.9-21.1
			c-1.5-8.1-1.9-28.5,5.9-30.7c5.1-1.4,11.4,4.7,15,14.5C494.7,101.2,495.8,106.9,495.8,113.3z M439.1,94.6
			c-3.1,0.7-5.7,2.8-7.2,5.8c-4.3,9.2-8.9,9.5-13.2,8.4c-10-2.5-16-13.5-16.7-30.2c-0.3-7.6,1.4-13.3,4.8-16.1
			c2.8-2.3,5.9-1.9,7.5-1.5c7,1.7,9.2,4.4,11.8,10.1c0,0,0-0.1-0.1-0.1c2.3,5.3,6.1,8.8,11.3,10.3c1.5,0.4,3,0.6,4.5,0.6
			c-0.7,3.9-1.1,8.1-1.2,12.5C440.2,94.4,439.7,94.5,439.1,94.6z"/>
	</g>
	<g>
		<path class="st1" d="M216,103.8l0.1-0.2c0.4-0.8,7.3-13.4,14.5-26.7c0.1,10.4,0.3,21.5,0.3,21.5c0.1,2.9,1,5.2,2.8,6.9
			c2.9,2.7,6.5,2.5,7.9,2.4l11.6-0.7c6.8-0.4,9.6-5.3,9.9-9.3c0-0.2,0.1-0.9,0.2-2c0,0.9,0,1.4,0,1.5c0.2,4.5,3.1,9.8,10.9,9.7h12.3
			c7,0.1,10.3-4.8,10.4-9.6c0,0,0.2-11.8,0.4-20.2c0.1,0,0.2,0,0.3,0c12.6,0.3,22.7-1.2,30.7-4.6c5.1-2.2,9.3-5.1,12.6-8.7
			c0.7,19.5,1.4,39,1.5,40c0.1,4,2.7,9.1,9.8,10l5.8,0.8l5.7,0.8c1.5,0.2,5.2,0.6,8.4-2.1c2-1.7,3.1-4.1,3.3-6.9
			c0-0.6,0.2-5.9,0.5-13.4c7,17.5,20.9,29.9,39.6,34.4c10.4,2.6,19.5,1.6,27.1-3c2.8-1.7,5.1-3.7,6.9-5.8c1.9,4.8,4.3,9.4,7.2,13.6
			c6.6,9.6,15.5,17,25.6,21.3c11.2,4.8,21.7,4.7,30.5-0.2c6.7-3.8,15.3-12.2,18.1-30.9c0.1-0.7-8.4-63.5-36.1-75.6l0,0
			c-12.3-5.4-24.2-4.9-33.4,1.5c-1.2,0.9-2.4,1.8-3.5,2.9c-4.8-11.7-17.7-23.9-34.6-28.2c-14.2-3.7-27.4-1-37.1,7.4
			c-3.3,2.9-6.1,6.3-8.4,10.2c0.3-8.7,0.5-14.8,0.5-15c0.1-3.1-0.7-10.6-10.2-12l0,0c-2.5-0.4-13.2-1.9-16.2-2.2
			c-3.8-0.5-6.9,0.4-9.2,2.5c-1.4,1.3-2.3,2.8-2.8,4.7c-12.7-11.9-33.8-13-40.2-13l0,0c-11.1-0.1-20.4,0.1-29.5,2.1
			c-1.5,0.3-2.9,0.9-4,1.5c-3-2.9-6.7-2.7-8.3-2.7l0,0l-5.7,0.2c-5.2,0.2-9,0.3-10.3,0.4c-5.2,0.3-8.7,2.5-10.9,6.9
			c0,0-14.9,29.6-23.9,47.4C198,45.5,181.6-19.8,181-20.8c-2.7-4.7-4.7,33.4-10,34.3c-1.3,0.2-14.2,2.6-16.2,3
			c-6.4,1.3-10,6-9.2,12.3c0,0,2.5,20.9,4.9,41.1c-7.5-19.5-15.4-40-15.7-40.7l0,0c-1.9-5.1-6.7-7.8-11.8-6.7
			c-0.4,0.1-1.2,0.3-2.1,0.5l0.6-3.2c0.1-0.7,0.1-1.3,0.1-1.9c0-2.7-0.9-5-2.6-6.7c-3.8-3.7-8.8-2.2-10.7-1.6l-1.7,0.5
			c-14.2,4.4-24.5,7.6-49.4,17.3C36.5,35.5,17.2,45,9.9,48.7c-4.2,2.1-6.5,6.7-5.7,11.4c0.2,1.3,1,5.5,1.5,7.5l0.1,0.3
			c0.3,1.6,1.1,5.3,5,7.3c2.6,1.3,5.6,1.3,8.8-0.2c0.9-0.4,8.2-3.4,15.8-6.3c2-0.8,4.2-1.6,6.5-2.4c0.3,6.8,3.1,77.2,3.1,77.6
			c0.3,4,2.4,6,4.1,7c3.8,2.2,7.4,0.6,9.6-0.4c0.1-0.1,12.9-5.9,14.4-6.6c1.9-1,3.7-2.2,4.9-4.2c1.7,0.4,3.4,0.4,5.1-0.1
			c1.4-0.4,10.6-3.7,10.7-3.7c4.1-1.4,5.9-4.3,6.7-6.5c0.3-0.9,3.1-9.1,4.9-14.3c4.3-1.3,18.8-5.7,22-6.6c3.9,8,4.1,8.3,4.3,8.6
			c2.3,3.8,6.3,5.4,10.9,4.3l14.6-3.4c1.7-0.4,3.2-1.2,4.5-2.2c1.6,0.5,3.4,0.6,5.4,0.3l8.9-1.6c6.2-1.3,8.4-6,8.4-9.8
			c0-0.1,0-0.3,0-0.4c0-0.7-0.5-9.5-1-19.6c6.2,10.3,12,19.7,12.4,20.4c1,1.6,3.9,6.3,11.2,5.5 M80.4,99.6c0.8-19.1,1.6-40.7,2-49.2
			c3.4-1.4,15.1-6.2,15.1-6.2C94.6,53.5,89.4,70.4,80.4,99.6z M312.3,43.3c0,7.8-11.5,8.8-14.6,8.8c0.1-5.8,0.2-10,0.2-15.8
			C299.2,36.4,312.3,35.5,312.3,43.3z M500.3,108c0,7.4-2.1,24.3-9.5,22.5c-5.1-1.3-11.6-7.4-14.2-21.5c-1.5-8.3-1.9-29,6.1-31.3
			c5.2-1.5,11.7,4.8,15.3,14.8C499.1,95.7,500.3,101.5,500.3,108z M442.4,89c-3.2,0.7-5.9,2.8-7.3,5.9c-4.4,9.4-9.1,9.7-13.4,8.6
			c-10.1-2.5-16.4-13.7-17.1-30.8c-0.3-7.8,1.4-13.6,4.8-16.4c2.8-2.3,6-2,7.7-1.5c7.1,1.8,9.4,4.5,12.1,10.3c0,0,0-0.1-0.1-0.1
			c2.3,5.4,6.2,9,11.5,10.5c1.5,0.4,3.1,0.7,4.6,0.7c-0.8,4-1.2,8.3-1.2,12.7C443.6,88.8,443,88.9,442.4,89z"/>
	</g>
	<g id="circle_R_5_">
		<path class="st0" d="M508.7,161.4c0.3-0.7,0.8-1.4,1.3-1.9c0.6-0.5,1.2-1,2-1.3c0.7-0.3,1.5-0.5,2.4-0.5c0.8,0,1.6,0.1,2.4,0.4
			c0.7,0.3,1.4,0.7,1.9,1.2s1,1.1,1.3,1.9c0.3,0.7,0.5,1.5,0.5,2.3c0,0.9-0.2,1.6-0.5,2.4c-0.3,0.7-0.8,1.4-1.3,1.9
			c-0.6,0.5-1.2,1-1.9,1.3s-1.5,0.5-2.4,0.5c-0.8,0-1.6-0.1-2.4-0.4c-0.7-0.3-1.4-0.7-2-1.2s-1-1.2-1.3-1.9s-0.5-1.5-0.5-2.4
			C508.2,162.9,508.4,162.2,508.7,161.4z M509.7,165.8c0.3,0.6,0.6,1.1,1.1,1.6c0.4,0.4,1,0.8,1.6,1.1s1.3,0.4,2,0.4s1.4-0.1,2-0.4
			c0.6-0.3,1.1-0.6,1.6-1.1s0.8-1,1.1-1.6s0.4-1.3,0.4-2s-0.1-1.4-0.4-2c-0.3-0.6-0.6-1.1-1.1-1.6c-0.5-0.4-1-0.8-1.6-1
			c-0.6-0.3-1.3-0.4-2-0.4s-1.4,0.1-2,0.4c-0.6,0.3-1.1,0.6-1.6,1.1c-0.4,0.5-0.8,1-1.1,1.6s-0.4,1.3-0.4,2
			C509.3,164.5,509.5,165.2,509.7,165.8z M514.7,160.3c0.9,0,1.5,0.1,1.9,0.5c0.4,0.3,0.6,0.8,0.6,1.5c0,0.6-0.2,1.1-0.5,1.4
			c-0.4,0.3-0.8,0.5-1.3,0.5l2,3h-1.2l-1.9-3h-1.2v3H512v-6.9H514.7z M514.2,163.3c0.2,0,0.5,0,0.7,0s0.4-0.1,0.6-0.1
			c0.2-0.1,0.3-0.2,0.4-0.3c0.1-0.2,0.2-0.4,0.2-0.6c0-0.2,0-0.4-0.1-0.6c-0.1-0.1-0.2-0.2-0.4-0.3c-0.1-0.1-0.3-0.1-0.5-0.1
			s-0.4,0-0.6,0H513v2.2L514.2,163.3z"/>
	</g>
	<path class="st0" d="M127.9,91.9l6.8,1.4l-17-37.5l-3.1,6.7C119,72.1,123.5,82.1,127.9,91.9z"/>
	<path class="st0" d="M118,37.4l-1.3-5.3c0,0-2.8,0.7-4.4,1c-2.7,0.6-3.6,1.3-4.5,4.1l5.6,1.3C113.5,38.4,115.7,37.9,118,37.4z"/>
	<path class="st0" d="M134.9,93.6l-3.8,5.5c2.9,6,6.4,13,6.7,13.7c0.4,0.8,0.8,1,1.5,1l2.2-6.1C139.9,104.4,134.9,93.6,134.9,93.6z"
		/>
	<path class="st0" d="M113.4,38.4l-5.6-1.5c-0.2,0.7-15.3,49.7-22.9,74.4l6-0.9C91.6,108.4,113.4,38.4,113.4,38.4z"/>
	<path class="st0" d="M122.9,36.2l3.1-5.8c-0.8-0.4-1.4-0.2-3,0.1c-2.1,0.5-6.4,1.5-6.4,1.5l1.4,5.3L122.9,36.2z"/>
	<path class="st0" d="M86.9,124c0,0,2.8-9,4.2-13.6l-6,0.8c-1.9,6.2-6,19.4-6.1,20c-0.1,0.5,0,0.7,0.6,0.9L86.9,124z"/>
	<path class="st0" d="M127.9,91.8l-26.1,7.7c0,0-7.6,5.6-7.6,5.7l0,0l40.4-12L127.9,91.8z"/>
	<path class="st0" d="M101.8,99.5c0,0,8-25,12-37.3l-4.1-5.3l-15.5,48.3l8.5-6L101.8,99.5z"/>
	<path class="st0" d="M114.1,61.4c0.2,0.4,0.3,0.8,0.5,1.2l3.1-6.7l-4.5-9.8c0,0-1.4,4.5-3.5,10.9l4.1,5.3
		C113.9,62,114,61.7,114.1,61.4z"/>
	<path class="st0" d="M86.7,124l-7.2,8.1c0.6,0.2,1.8-0.3,2.4-0.5c3.9-1.4,6.3-2.2,8-2.8c1.5-0.5,2.1-0.8,2.6-1.6l-4.5-3.6
		C87.8,123.7,87.2,123.9,86.7,124z"/>
	<path class="st0" d="M134.9,93.7l-40.7,11.5l4.5,3.7c0,0,7-2.3,15.1-4.7c6.1-1.8,12.7-3.7,17.4-4.9
		C131.1,99.2,134.9,93.7,134.9,93.7z"/>
	<g>
		<path class="st0" d="M149.8,105.9L149.8,105.9c-0.5,0.1-8.4,1.9-8.4,1.9l-2.2,6.1c0.4,0,1.1-0.1,2-0.4c4.4-1,8.5-2,12.8-3
			c1-0.2,2.2-0.4,2.6-1.5L149.8,105.9z"/>
	</g>
	<path class="st0" d="M156.6,107.9c-0.1-0.3-29.1-75.4-29.2-75.8c-0.3-0.7-0.6-1.4-1.4-1.8l-3.1,5.8c0,0,26,67.2,27,69.7l6.9,3.2
		C156.9,108.5,156.7,108.2,156.6,107.9z"/>
	<path class="st0" d="M127.9,91.8l-26.1,7.7c0,0-7.6,5.6-7.6,5.7l0,0l40.4-12L127.9,91.8z"/>
	<path class="st0" d="M94.3,105.2L88,123.6l0,0l4.5,3.6c0.2-0.3,0.4-1,0.6-1.5c2-5.7,3.8-11.1,5.8-16.9L94.3,105.2z"/>
	<path class="st0" d="M242.6,20.2l-4.8-2.5c0,0-16.7,32.2-28.9,57.3l4.1,4C222.7,59,242.5,20.3,242.6,20.2z"/>
	<path class="st0" d="M243.5,45.9l-5.4,3.9c0,0,0.6,46.8,0.6,48.1c0,1.2,0,1.8,1.1,2l4.9-5.4L243.5,45.9z"/>
	<path class="st0" d="M261,16.7c0.1-2.2-0.8-2.2-3.1-2.1c-3.1,0.1-13.4,0.4-15.6,0.5c-2.5,0.1-3.6,0.6-4.7,2.8l4.8,2.5l13,0.3
		L261,16.7z"/>
	<path class="st0" d="M172,21.4c-2.6,0.5-13.9,2.5-15.8,2.9c-2.1,0.4-3.1,1.2-3.1,3.2l5.8,2.3l13.1-2.6l3.2-5.2
		C174.7,21.5,174.1,21,172,21.4z"/>
	<path class="st0" d="M159,29.6l-5.8-2.3c0,0,0,0.3,0.1,0.8c0.9,8,8.6,71.4,9.4,78.4c0.2,1.3,0.5,1.7,1.4,1.9l3.7-6
		C167.4,100.4,159,29.6,159,29.6z"/>
	<path class="st0" d="M178.1,51.1l-2.4,6.6c8.3,13.5,25.1,41.4,25.1,41.4l2.4-6.6C198.5,84.8,186.8,65.6,178.1,51.1z"/>
	<path class="st0" d="M242.6,20.2l-4.8-2.5c0,0-16.7,32.2-28.9,57.3l4.1,4C222.7,59,242.5,20.3,242.6,20.2z"/>
	<path class="st0" d="M243.5,45.9l-5.4,3.9c0,0,0.6,46.8,0.6,48.1c0,1.2,0,1.8,1.1,2l4.9-5.4L243.5,45.9z"/>
	<path class="st0" d="M261,16.7c0.1-2.2-0.8-2.2-3.1-2.1c-3.1,0.1-13.4,0.4-15.6,0.5c-2.5,0.1-3.6,0.6-4.7,2.8l4.8,2.5l13,0.3
		L261,16.7z"/>
	<path class="st0" d="M172,21.4c-2.6,0.5-13.9,2.5-15.8,2.9c-2.1,0.4-3.1,1.2-3.1,3.2l5.8,2.3l13.1-2.6l3.2-5.2
		C174.7,21.5,174.1,21,172,21.4z"/>
	<path class="st0" d="M159,29.6l-5.8-2.3c0,0,0,0.3,0.1,0.8c0.9,8,8.6,71.4,9.4,78.4c0.2,1.3,0.5,1.7,1.4,1.9l3.7-6
		C167.4,100.4,159,29.6,159,29.6z"/>
	<path class="st0" d="M178.1,51.1l-2.4,6.6c8.3,13.5,25.1,41.4,25.1,41.4l2.4-6.6C198.5,84.8,186.8,65.6,178.1,51.1z"/>
	<path class="st0" d="M202.3,80.3l3.6-4.8c0,0-28.8-50.6-29.3-51.5c-0.1-0.2-0.7-1.4-1.4-2.1l-3.1,5.2L202.3,80.3z"/>
	<polygon class="st0" points="207.7,89.9 213.1,78.8 209,74.8 207.4,78.1 205.8,75.4 202.2,80.2 	"/>
	<path class="st0" d="M250,94.2l4.8,4.2c0.3-0.4,0.4-0.8,0.5-1.4c0-0.2,1.4-20.8,2.3-32.1l-5.1-0.9C251.7,73.5,250,94.2,250,94.2z"
		/>
	<polygon class="st0" points="243.2,26.5 232.7,45.4 236.3,50 238.1,46.8 238.1,49.9 243.5,46 	"/>
	<path class="st0" d="M206.2,94l3.6,4.8l26.6-48.9l-3.6-4.7C230,50.3,215.1,76.9,206.2,94z"/>
	<path class="st0" d="M173.5,54.1l2.4,3.9l2.4-6.6c-6.4-10.5-11.4-18.7-11.4-18.7l3.4,69.3l5.3,4.1c0.4-0.4,0.5-1,0.5-1.7
		C175.2,89.2,173.5,54.1,173.5,54.1z"/>
	<path class="st0" d="M205.2,95.8l-2.2-3.5l-2.4,6.6c0,0,0.9,1.5,1.3,2.1c0.9,1.6,1.7,2.1,3.7,1.8c2-0.2,2.4-0.8,3.4-2.6
		c0.3-0.5,0.8-1.5,0.8-1.5l-3.6-4.8L205.2,95.8z"/>
	<path class="st0" d="M167.6,102.5l-3.7,5.9c0.4,0.1,1.1,0,1.8-0.1c2.6-0.5,5.2-0.9,7.8-1.4c1-0.2,1.7-0.4,2.1-0.9l-5.2-4.1
		L167.6,102.5z"/>
	<path class="st0" d="M244.5,94.4l-4.8,5.4c0.4,0.1,0.9,0.1,1.8,0c1-0.1,9.6-0.6,10.6-0.6c1.3-0.1,2.3-0.1,2.9-1l-5-4.2L244.5,94.4z
		"/>
	<path class="st0" d="M255.3,20.6L252.4,64l5.1,0.9c1.2-15.9,3.5-48.5,3.5-48.5L255.3,20.6z"/>
	<path class="st0" d="M352.8,25.1l-5.6-2.2c0.8,20.8,1.5,41.4,2.3,62.2l5.4-0.7C354.2,63.7,353,29.9,352.8,25.1z"/>
	<path class="st0" d="M350.8,19.3c-3.1-0.4-3.7,0.7-3.5,3.8l8.1,3l-1.7-6.5C353.7,19.7,351.6,19.4,350.8,19.3z"/>
	<path class="st0" d="M370.4,24.7c-0.1-2.1-1-2.8-3.5-3.2c-2.9-0.4-13.4-1.9-13.4-1.9l1.3,5.7c0,0,8.7,1.2,10.1,1.4
		c0,0.1,0,0.4,0,0.9L370.4,24.7z"/>
	<path class="st0" d="M355.6,100.8c0,0,0.1-7-0.6-16.8l-5.4,0.6c0,0,0.5,12.8,0.7,19c0,1.2,0.7,1.8,1.7,2.1l3.9-4.9
		C355.7,100.9,355.6,100.9,355.6,100.8z"/>
	<path class="st0" d="M370.4,24.6l-5.5,2.9c-0.2,5.7-2.7,71.4-2.8,74.3l4.6,5.7c0.4-0.2,0.8-0.7,0.8-1.5c0.3-7.6,2.3-61.3,3-80.5
		C370.4,25.2,370.4,24.9,370.4,24.6z"/>
	<path class="st0" d="M362.1,101.8L362.1,101.8c-0.4-0.1-5.6-0.8-7.3-1.4l-3.9,4.7c0.9,0.7,1.9,0.8,2.3,0.9c2,0.3,9.6,1.3,11.4,1.6
		c0.9,0.1,1.6,0.1,2.1-0.1C366.5,107.3,362.1,101.8,362.1,101.8z"/>
	<path class="st0" d="M464.3,119.8l-3.9,3.7c4.4,7.6,9.7,13.3,15.9,17.7l3.3-3.2C470.6,132.1,465.2,121.6,464.3,119.8z"/>
	<path class="st0" d="M457.4,92.8L457.4,92.8c-0.2-2.8-1.2-22.7,9.8-32.4l-3-4.3c-8.9,7.3-13.1,21.6-12.2,37.4
		c0.7,12,3.8,22.2,8.5,30.1l4.1-4.1C460.4,111.7,458,102.7,457.4,92.8z"/>
	<path class="st0" d="M499,65.2l4.1-4c-15.9-12.6-30.2-12.6-38.9-5.1l3,4.3C470,58.1,480.4,51.3,499,65.2z"/>
	<path class="st0" d="M504,138.8l-3-4.5c-3.5,5.3-11.5,5.8-18.7,0.8l-2.8,2.8C483.8,141,495.3,147.2,504,138.8z"/>
	<path class="st0" d="M469.4,113l-6.1-3.6c1,9.7,5.9,20.9,16.7,28.2l2.5-2.3C478,132.2,472.3,125.6,469.4,113z"/>
	<path class="st0" d="M513.4,109.6c0.4-5.9,0.2-21.5-9.8-35l-4.2,4.1c7.6,10.5,8.4,21.3,8.6,26.1c0.2,3.3-0.3,20.1-7.2,29.8l3,4.5
		C512.9,130.1,513.3,111.2,513.4,109.6z"/>
	<path class="st0" d="M477.5,71.5l-3.1-4.3c-14.7,9.3-11.7,34.5-11.1,42.9l6.2,3.4C465.8,96,467.8,77,477.5,71.5z"/>
	<path class="st0" d="M499.5,78.9l4.1-4.1c-8.1-9.8-18.6-13.9-29.4-7.4l2.9,4.3C482.4,68.8,490.7,67.7,499.5,78.9z"/>
	<path class="st0" d="M522.1,95c-2.8-13.2-9.2-25.8-19.6-34.3l-3.8,3.6c9.8,8.3,15.8,20.1,18.3,32.5c1.7,8.1,3.8,28.1-5.6,40.9
		l3.1,4.5C526.8,128.3,524,103.9,522.1,95z"/>
	<path class="st0" d="M479.5,137.9l-3.3,3.2c18,12.5,31.4,8.7,38.5,0.8l-3.1-4.5C503,148.9,484.2,142.1,479.5,137.9z"/>
	<path class="st0" d="M54.4,56.1c-0.1-2-1-4.2-3.7-5.4l-2.1,5.1c0.2,0.1,0.3,0.3,0.3,0.6c1.2,28.6,2.3,58.3,3.5,86.8
		c0,0.7,0.1,1.1,0.8,0.9l4.7-7.9C57.8,136.3,54.4,56.1,54.4,56.1z"/>
	<path class="st0" d="M106.4,24.1l2-6.4c-17.3,5.2-35,11.5-51.8,18.3c-14.4,5.8-28,11.9-42,19c-1.7,0.9-2.3,1-2.9,2.2
		c-0.4,0.9-0.1,1.9,0.4,4.5l5.2-1.9C37.8,49.3,75.4,33.4,106.4,24.1z"/>
	<path class="st0" d="M107,23.9c0,0.2-0.1,0.4-0.1,0.6l6.4-4.5c0,0,0.5-2.3,0.1-3.1c-0.4-0.7-2.3,0-5,0.8l-2,6.4
		C106.6,24.1,106.8,23.9,107,23.9z"/>
	<path class="st0" d="M50.7,50.7c0,0-6.1,0.2-20.8,5.7c0,0-11.6,4.5-12.2,4.7l-2.9,7.1c0.6-0.1,8.7-3.6,16.4-6.5s16.2-5.9,16.5-6
		c0.4-0.1,0.6-0.1,0.8,0.1L50.7,50.7z"/>
	<path class="st0" d="M106.7,26.1c-0.2,0.1-22.4,8.9-33,13.6c-2.5,1.1-4.3,3.7-4.4,6.4c0,0-3,75.5-3.4,86.4l5.2,2.8
		c0.1-0.2,0.1-0.6,0.2-0.9c1.2-29.6,2.4-58.6,3.5-88.2c0-0.6,0.5-1.3,1.1-1.6c4.5-1.8,10-4.1,15.4-6.3c8-3.3,15.4-6.3,16.7-6.8
		c1.7-0.7,2.9-1.1,3.6-2.3L106.7,26.1z"/>
	<path class="st0" d="M65.8,132.6c-1.4,0.7-4.6,2.1-8.1,3.8l-4.6,7.8c0.4-0.1,1-0.3,2-0.8c2.3-1.1,4.5-2.1,6.8-3.1
		c2.4-1.1,4.8-2.2,7.2-3.4c1.3-0.6,1.8-1,2-1.7l-5.2-2.9C65.8,132.6,65.8,132.6,65.8,132.6z"/>
	<path class="st0" d="M106.9,24.3c-0.2,0.9-0.3,1.6-0.3,1.8l0,0l4.8,3.1c0.4-0.7,0.3-1,0.5-2.1c0.5-2.9,1.3-7.3,1.3-7.3L106.9,24.3z
		"/>
	<path class="st0" d="M113.4,16.9c-0.4-0.7-2.3,0-5,0.8l-2,6.4c0.2-0.1,0.5-0.2,0.7-0.2c0,0.2-0.1,0.3-0.1,0.4l6.4-4.5l0.1-0.3
		C113.4,19.6,113.8,17.6,113.4,16.9z"/>
	<path class="st0" d="M14.8,68.2l2.9-7.1c0,0,0,0,0.1,0l-0.5-1.3l-5.2,1.8c0,0,1,5,1.2,5.6S13.7,68.5,14.8,68.2z"/>
	<path class="st0" d="M324,23.9l4-4.1c-10-5.4-22.5-6.4-31.4-6.3l-0.1,5.3C304.2,18.9,316,20.1,324,23.9z"/>
	<path class="st0" d="M276.5,93.7L276,77.1l-5.5-1.6c0,0,0.4,14.2,0.6,21.4c0,1.1,0.4,1.7,1.2,1.9L276.5,93.7z"/>
	<path class="st0" d="M274.4,22l-5.5-3c0,0,1.1,38.1,1.6,56.6l5.5,1.6L274.4,22z"/>
	<path class="st0" d="M274.4,20.3c3.7-0.7,13.1-1.6,22.2-1.5l0.1-5.3c-10.3-0.2-19.5,0.6-25.3,2.1c-2.3,0.6-2.5,2.1-2.4,3.5l5.5,3
		C274.4,21.3,274.4,20.7,274.4,20.3z"/>
	<path class="st0" d="M320.2,29.6l-4.8,3.1c2.9,2.3,5,5.4,4.7,11c-0.1,3.1-1.7,9.9-7.2,13c-9.3,5.1-23.4,2.8-23.4,2.8l-5.4,3.1
		c0,0,19.8,3.9,30.3-0.9c10.5-4.8,11.1-13.6,11.1-19C325.6,33.9,320.2,29.6,320.2,29.6z"/>
	<path class="st0" d="M327.7,19.7l-3.9,4.1c6.7,3.7,12.1,8.2,12.1,17.3c0,9-4.5,14.7-9.7,17.9l5,2.9c5.4-3.9,8.9-9,9.9-16.3
		C343,31.9,336.3,24.3,327.7,19.7z"/>
	<path class="st0" d="M289.6,68.7C289.5,68.7,289.5,68.7,289.6,68.7l-5.4-5c-0.1,4.5-0.5,25.9-0.6,30.1l4.7,4.9
		c0.8-0.5,0.7-1.7,0.7-1.7S289.4,78.1,289.6,68.7z"/>
	<path class="st0" d="M283.6,93.8L283.6,93.8l-7.2-0.1l-4.1,5.1c0.7,0.2,1.8,0.2,1.8,0.2s8,0,12,0c1.2,0,1.7,0,2.2-0.3L283.6,93.8z"
		/>
	<path class="st0" d="M290.2,28.9c9.3-1,20.1-0.2,25.3,3.9l4.8-3.1c-11.4-10.5-35.4-5.5-35.4-5.5L290.2,28.9z"/>
	<path class="st0" d="M284.9,24.2c0,0,0.1,0,0.2,0l-0.2-0.2c0,0-0.2,10.5-0.3,20.1l5.5-0.1c0.1-5,0.2-10.2,0.2-15.2L284.9,24.2z"/>
	<path class="st0" d="M326.6,59.3c-16.3,8.6-42.7,4.2-42.7,4.2l5.5,5.2c0,0,5.3,0.5,8.3,0.6c13.1,0.4,25.3-1.5,33.5-7.3L326.6,59.3z
		"/>
	<path class="st0" d="M284.5,44.1l-0.3,18.6l5.5-3.2c0.1-5.1,0.2-10.5,0.2-15.5L284.5,44.1z"/>
	<path class="st0" d="M384.5,73.1C383.2,55.4,384.5,73,384.5,73.1c-0.3-2.5-2.5-22.1,10.6-33.4l-3.2-4c-9.9,8-14.6,22.4-12.9,38
		c1.5,13.3,6.5,25.1,15.4,33.9l4.9-2.8C390.9,97.3,385.4,84.2,384.5,73.1z"/>
	<path class="st0" d="M435.1,43.1l3.8-3.7c-9.3-7.3-30.3-16.6-46.9-3.6l3.1,4C409.7,28.4,430.2,39.1,435.1,43.1z"/>
	<path class="st0" d="M445.1,102.2l-3.7-2.3c-2.2,4.4-6.4,10.1-13.3,11.5l0.9,4.5C433.2,115,440.1,112.6,445.1,102.2z"/>
	<path class="st0" d="M428.3,111.4c-6.4,1.4-18.2-1.1-25.5-13.9l-4.9,0.9c2.6,5.9,12.9,20.6,31.6,17.5L428.3,111.4z"/>
	<path class="st0" d="M402.4,45.2l3.3,4.2c9.2-6.3,22.5-0.7,27.4,6.6l4-3.9C431.4,43.9,413.8,36.4,402.4,45.2z"/>
	<path class="st0" d="M405.7,49.4l-3.2-4.1c-16.7,11.2-11.7,42.3-5.4,53.1l5.8-0.8C395,83,393.5,57.3,405.7,49.4z"/>
	<path class="st0" d="M446,62.8l3.3,4.2c7.4-5.8-0.9-20.2-10.5-27.7l-3.9,3.8C443.4,49.6,448.2,59.6,446,62.8z"/>
	<g>
		<path class="st0" d="M446,62.8C446,62.8,446,62.7,446,62.8c-1.9,0.3-3.7-1.2-4.6-3.4c-1.2-2.7-2.6-5.2-4.3-7.4l-4,3.9
			c3.3,4.8,3.4,7.9,6.4,10.2c3.3,2.6,7.3,2.6,9.7,0.9L446,62.8z"/>
	</g>
	<path class="st0" d="M429,116.3c-9.3,1.1-20.1-2.5-30.4-11.3l-4.3,2.5c8.5,8.6,24.2,14.9,35.5,13.3L429,116.3z"/>
	<path class="st0" d="M448.8,104.5l-3.6-3.1c-2.9,9.2-11.1,14-16.2,14.6l0.8,4.8C441.8,119,447.1,109.5,448.8,104.5z"/>
	<path class="st0" d="M447.6,97.6c-0.3-0.2-0.6-0.4-1-0.6c-1.5-0.7-3.5-0.8-4.4,1.2c-0.2,0.6-0.5,1.1-0.8,1.8l7.4,4.6
		c0.2-0.6,0.3-1.1,0.4-1.6C449.8,100.6,449,98.8,447.6,97.6z"/>
	<g>
		<path class="st2" d="M16.5,58.9c0,0-0.2,0.1-0.4,0.2c0.2,0.8,0.4,1.7,0.6,2.7c0.1,0.4,0.1,0.5,0.2,0.8c0.9-0.4,1.9-0.8,3.1-1.2
			l10.3-4c15.3-5.8,16.3-6,16.8-6.1l-0.6,0.2c1.6-0.6,3.4-0.4,4.7,0.6c1.3,0.9,2.2,2.4,2.2,4.1c0,0,3,73.5,3.3,81.8
			c3.3-1.5,8.4-3.9,10.2-4.7c0.3-8.6,3.4-87.1,3.4-87.1c0.1-2.3,1.6-4.5,3.8-5.5c10.6-4.7,21.4-9.2,32.3-13.3l0.1-0.1h0.1
			c0.4-0.1,0.7-0.2,0.9-0.3c0.1-0.3,0.1-0.6,0.1-0.6s0,0,0,0.1c0-0.2,0.2-0.9,0.7-4.1C76.8,31.9,45.9,44.2,16.5,58.9z"/>
		<path class="st3" d="M113.3,37.4c-0.5,0.1-0.7,0.2-0.8,0.2c-0.1,0.2-0.3,0.6-0.5,1.3c-9.5,27.8-18,57.9-26.7,86.7
			c1.7-0.6,3.2-1.1,3.2-1.1s0.2-0.1,0.4-0.1c0.5-1.5,5.6-16.5,5.8-17c0,0,0.2-0.7,0.3-0.9l39.3-11.2l0.5,0.9l0.4,0.8
			c0.5,0.9,4.6,9.3,5.9,12c1.9-0.4,7.3-1.7,10.4-2.4c-1.9-4.9-26.7-69.3-27.7-71.7C122.7,35.1,113.3,37.4,113.3,37.4z M95.7,104
			c3.1-9.6,17.7-55,17.7-55l4.7,10.5l15.3,33.6L95.7,104z"/>
		<path class="st4" d="M241.9,19.4c-0.2,0.4-0.6,1-0.6,1c-10,19.7-20,39-29.9,59.5l-3.7,7.7l-4.2-7.4c-9.9-17.5-20.3-36-30.9-54.4
			c0,0,0-0.1-0.1-0.2c-0.1,0-0.3,0-0.3,0s-11.5,2.1-14.4,2.7c0.2,1.7,8.5,70.9,9,75.3c1.5-0.3,3.5-0.6,4.7-0.8c0-0.4-3.4-66-3.4-66
			s36.2,59.6,37.1,61.1c9.4-18.1,28.7-52.7,28.9-53.1l8-14.5l0.3,16.3c0,0.3,0.6,31.2,0.7,48.8c2.4-0.2,6.3-0.4,7.9-0.5
			c2.2-26.3,4-49.6,5.5-76.1c-2.5,0.1-13.9,0.4-13.9,0.4S242.2,19.4,241.9,19.4z"/>
		<path class="st5" d="M299.5,18h-0.2c-10.7-0.4-22.8,0.8-26,1.7c0,0.1,0,0.3,0,0.3s1.8,62.8,2.1,74.9c1.9,0,7.1,0,9.2,0
			c0.1-4,0.6-30.1,0.6-30.1l6.3,0.3l6.4,0.4c23.7,0.7,36.7-6.4,38.7-20.3c1-6.7-0.4-12.1-4.2-16.3C323,18.2,301.9,18,299.5,18z
			 M324.5,44.2c-1.9,20.7-21.5,18.7-28.2,18.6l0,0c-2.5-0.1-5.3-0.4-7.2-0.7l-3.8-0.7l0.6-36.3l3.8-0.5c2.2-0.3,4.4-0.5,8.1-0.4
			c5.2,0.1,16.1,0.3,22.4,7C323.4,34.6,324.8,39,324.5,44.2z"/>
		<path class="st6" d="M354.5,100.6c0,0,0,0.6,0,1.2c1.1,0.2,6,0.8,8.6,1.2c0.2-5.1,2.8-76.3,2.8-77.1c-1.3-0.2-10.6-1.5-14.3-2
			C351.8,27.2,354.5,100.6,354.5,100.6z"/>
		<path class="st7" d="M420,35.5c-10.7-2.6-19.8-1-26.3,4.6c-7.9,6.9-11.8,19.3-10.2,33.4l0,0c2.4,22,14.9,37.7,34.7,42.4
			c7.2,1.8,13.3,0.9,18-1.9c5.8-3.5,9.2-9.8,9.2-12.3c-8.8,14.2-20.4,15.2-26.9,13.5c-15.7-3.9-25.2-19.1-26.2-41.7
			c-0.6-15,4.8-22.6,9.5-26.3c5.1-4.1,11.8-5.5,18.4-3.9c11.6,2.9,16.3,8.6,20.1,16.8c1.1,2.5,2.3,3.3,3.9,3.8
			c1,0.3,1.8,0.2,2.4-0.1c0.6-0.4,0.8-1.2,0.9-1.7C448.5,56.5,440.2,40.5,420,35.5z"/>
		<path class="st8" d="M491.3,58.1c-23.8-10.5-37.5,9.9-36.1,36c1.4,25.5,15.4,41.8,30.4,48.2c16.9,7.2,31.1-0.5,34.4-22.8
			C523.2,97.5,515.1,68.6,491.3,58.1z M503.5,137.5c-7,9.1-32,5.4-38.5-26.9c-1.1-5.3-5.8-39.5,14.1-44.6c12.1-3.1,24,6.7,30,21.8
			C513.3,98.3,515.5,121.7,503.5,137.5z"/>
	</g>
</g>
<g id="Layer_8">
</g>
</svg>
