<?xml version="1.0" encoding="utf-8"?>
<!-- Generator: Adobe Illustrator 22.0.1, SVG Export Plug-In . SVG Version: 6.00 Build 0)  -->
<svg version="1.1" id="Layer_1" xmlns="http://www.w3.org/2000/svg" xmlns:xlink="http://www.w3.org/1999/xlink" x="0px" y="0px"
	 viewBox="0 0 192.3 52.3" style="enable-background:new 0 0 192.3 52.3;" xml:space="preserve">
<style type="text/css">
	.st0{fill-rule:evenodd;clip-rule:evenodd;fill:#7C7C7C;}
</style>
<g>
	<path class="st0" d="M26.3,3.5H6.6c-2.1,0-3.7,1.7-3.7,3.7v23.7c0,2.1,1.7,3.7,3.7,3.7h19.8c2.1,0,3.7-1.7,3.7-3.7V7.2
		C30.1,5.2,28.4,3.5,26.3,3.5L26.3,3.5z M27.2,29.8c0,1.1-0.9,2-2,2H7.7c-1.1,0-2-0.9-2-2V8.4c0-1.1,0.9-2,2-2h17.6c1.1,0,2,0.9,2,2
		V29.8L27.2,29.8z"/>
	<path class="st0" d="M23.7,12.7l1.6-1.2l-2.8-1.2l0.2-1.6l-2.9,0.8l-1.1-1.9l-1.9,1.2l-1.6-1.2L13.6,9L11.6,8l-0.1,1.9H8.7l1.1,1.7
		l-2.2,1.2l2,2L8,16l2.2,0.5l0.1,1.7l2.3-0.5l0.5,1.6l-1.5-0.1l2.7,6.3c-1.9,1.5-2.6,3.6-2.6,4.7h9.8c0-1.1-0.7-3.2-2.6-4.7l2.9-6.3
		l-1.7,0.1l0.5-1.6l3,0.3l-0.6-2.3l2-0.6L23.7,12.7L23.7,12.7z M11.4,11.6c0.4,0,0.7,0.3,0.7,0.7c0,0.4-0.3,0.7-0.7,0.7
		c-0.4,0-0.7-0.3-0.7-0.7C10.7,11.9,11,11.6,11.4,11.6L11.4,11.6z M11.4,15.7c-0.6,0-1-0.5-1-1s0.5-1,1-1c0.6,0,1,0.5,1,1
		S12,15.7,11.4,15.7L11.4,15.7z M18.9,9.3c0.3,0,0.6,0.3,0.6,0.6c0,0.3-0.3,0.6-0.6,0.6c-0.3,0-0.6-0.3-0.6-0.6
		C18.3,9.6,18.6,9.3,18.9,9.3L18.9,9.3z M18.9,11.3c0.6,0,1,0.5,1,1c0,0.6-0.5,1-1,1s-1-0.5-1-1C17.9,11.8,18.3,11.3,18.9,11.3
		L18.9,11.3z M18.4,14.7c0,0.6-0.5,1-1,1c-0.6,0-1-0.5-1-1c0-0.6,0.5-1,1-1C17.9,13.7,18.4,14.2,18.4,14.7L18.4,14.7z M16.5,9.3
		c0.3,0,0.6,0.3,0.6,0.6c0,0.3-0.3,0.6-0.6,0.6s-0.6-0.3-0.6-0.6C15.9,9.6,16.2,9.3,16.5,9.3L16.5,9.3z M16.4,11.5
		c0.3,0,0.6,0.3,0.6,0.6c0,0.3-0.3,0.6-0.6,0.6c-0.3,0-0.6-0.3-0.6-0.6C15.8,11.8,16.1,11.5,16.4,11.5L16.4,11.5z M15.2,13
		c0,0.6-0.5,1-1,1c-0.6,0-1-0.5-1-1c0-0.6,0.5-1,1-1C14.7,12,15.2,12.5,15.2,13L15.2,13z M15.1,15.1c0,0.2-0.2,0.4-0.4,0.4
		s-0.4-0.2-0.4-0.4c0-0.2,0.2-0.4,0.4-0.4S15.1,14.8,15.1,15.1L15.1,15.1z M13.7,9.5c0.6,0,1,0.5,1,1c0,0.6-0.5,1-1,1
		c-0.6,0-1-0.5-1-1C12.7,10,13.1,9.5,13.7,9.5L13.7,9.5z M13.3,17.2c-0.3,0-0.6-0.3-0.6-0.6S13,16,13.3,16c0.3,0,0.6,0.3,0.6,0.6
		S13.6,17.2,13.3,17.2L13.3,17.2z M14.1,19l0.9,0.6l0.6-0.9l-0.1,3.9L14.1,19L14.1,19z M15.2,28.2c-0.3-0.3-0.7-1.2-2.4,0.3
		c0.6-1.3,1.7-2.2,2.8-0.6C15.9,28.4,15.5,28.5,15.2,28.2L15.2,28.2z M15.1,17.1c0-0.6,0.5-1,1-1c0.6,0,1,0.5,1,1c0,0.6-0.5,1-1,1
		C15.6,18.1,15.1,17.6,15.1,17.1L15.1,17.1z M17.3,19.8L18,20l-0.8,3.3l-0.3-0.6L17.3,19.8L17.3,19.8z M20.1,28.6
		c-1.7-1.6-2.1-0.6-2.4-0.3c-0.3,0.3-0.7,0.1-0.4-0.3C18.3,26.4,19.4,27.3,20.1,28.6L20.1,28.6z M19.1,18.1c-0.3,0-0.6-0.3-0.6-0.6
		c0-0.3,0.3-0.6,0.6-0.6c0.3,0,0.6,0.3,0.6,0.6C19.7,17.8,19.4,18.1,19.1,18.1L19.1,18.1z M19.9,15.8c-0.2,0-0.4-0.2-0.4-0.4
		c0-0.2,0.2-0.4,0.4-0.4c0.2,0,0.4,0.2,0.4,0.4C20.4,15.6,20.2,15.8,19.9,15.8L19.9,15.8z M21.5,10.7c0.3,0,0.6,0.3,0.6,0.6
		c0,0.3-0.3,0.6-0.6,0.6c-0.3,0-0.6-0.3-0.6-0.6C20.9,11,21.2,10.7,21.5,10.7L21.5,10.7z M21.4,14.9c-0.6,0-1-0.5-1-1
		c0-0.6,0.5-1,1-1c0.6,0,1,0.5,1,1C22.5,14.4,22,14.9,21.4,14.9L21.4,14.9z"/>
	<path class="st0" d="M148.1,34.6h8.3v-7.3v-7.1v-8.4c0-1,0.8-1.8,1.8-1.8c1,0,1.8,0.8,1.8,1.8v22.8h8.3V8.1c0-1.6-0.4-4.6-5.6-4.6
		c-2.9,0-4.7-0.2-6.8,2.9c-0.1-1.1-0.5-2.3-0.9-2.9h-7.6c0.3,1,0.8,4.5,0.8,6.4V34.6L148.1,34.6z"/>
	<polygon class="st0" points="93.8,34.6 102.1,34.6 102.1,3.5 93.8,3.5 93.8,34.6 	"/>
	<path class="st0" d="M59,34.6h10.8v-7.1h-7.8v-5.1h7.8v-7.1h-7.8v-4.8h7.8V3.5H59c-2.7,0-5,2.2-5,4.9v21.2
		C54,32.4,56.3,34.6,59,34.6L59,34.6z"/>
	<polygon class="st0" points="112.5,22.5 115.9,22.5 115.9,34.6 124.2,34.6 124.2,3.5 115.9,3.5 115.9,15.4 112.5,15.4 112.5,3.5 
		104.2,3.5 104.2,34.6 112.5,34.6 112.5,22.5 	"/>
	<path class="st0" d="M86.3,3.5c-2.9,0-4.7-0.2-6.8,2.9c-0.1-1.1-0.5-2.3-0.9-2.9H71c0.3,1,0.8,4.5,0.8,6.4v24.7H80V11.8
		c0-1,0.8-1.8,1.8-1.8c1,0,1.8,0.8,1.8,1.8v22.8h8.3V8.1C91.9,6.5,91.5,3.5,86.3,3.5L86.3,3.5z"/>
	<path class="st0" d="M180.7,42.2l-2.1,0c-0.3,0-0.5-0.2-0.5-0.5v-1.2c0-0.3,0.2-0.5,0.5-0.5h3.4V37H176c-0.8,0-1.5,0.7-1.5,1.5v5.2
		c0,0.8,0.7,1.5,1.5,1.5h2.1c0.3,0,0.5,0.2,0.5,0.5v1.2c0,0.3-0.2,0.5-0.5,0.5h-3.4v3h5.9c0.8,0,1.5-0.7,1.5-1.5v-5.2
		C182.2,42.9,181.5,42.2,180.7,42.2L180.7,42.2z"/>
	<polygon class="st0" points="16.1,42.1 14.6,42.1 14.6,37 11,37 11,50.4 14.6,50.4 14.6,45.1 16.1,45.1 16.1,50.4 19.6,50.4 
		19.6,37 16.1,37 16.1,42.1 	"/>
	<path class="st0" d="M20.4,39.1v9.1c0,1.2,1,2.1,2.1,2.1l4.6,0v-3h-3.4v-2.2h3.4v-3h-3.4v-2.1h3.4V37h-4.6
		C21.4,37,20.4,38,20.4,39.1L20.4,39.1z"/>
	<path class="st0" d="M76.5,39.1v9.1c0,1.2,1,2.1,2.1,2.1l4.6,0v-3h-3.4v-2.2h3.4v-3h-3.4v-2.1h3.4V37h-4.6
		C77.4,37,76.5,38,76.5,39.1L76.5,39.1z"/>
	<path class="st0" d="M92.5,39.1v9.1c0,1.2,1,2.1,2.1,2.1l4.6,0v-3h-3.4v-2.2h3.4v-3h-3.4v-2.1h3.4V37h-4.6
		C93.5,37,92.5,38,92.5,39.1L92.5,39.1z"/>
	<path class="st0" d="M118.9,39.1v9.1c0,1.2,1,2.1,2.1,2.1l4.6,0v-3h-3.4v-2.2h3.4v-3h-3.4v-2.1h3.4V37H121
		C119.8,37,118.9,38,118.9,39.1L118.9,39.1z"/>
	<polygon class="st0" points="151.1,42.1 149.6,42.1 149.6,37 146.1,37 146.1,50.4 149.6,50.4 149.6,45.1 151.1,45.1 151.1,50.4 
		154.7,50.4 154.7,37 151.1,37 151.1,42.1 	"/>
	<path class="st0" d="M73.2,37c-1.2,0-2-0.1-2.9,1.3c0-0.5-0.2-1-0.4-1.2l-3.3,0c0.1,0.4,0.3,1.9,0.3,2.7v10.6l3.6,0v-9.8
		c0-0.4,0.3-0.8,0.8-0.8c0.4,0,0.8,0.3,0.8,0.8v9.8l3.6,0V38.9C75.6,38.2,75.4,37,73.2,37L73.2,37z"/>
	<polygon class="st0" points="3.1,40 4.9,40 4.9,50.4 8.5,50.4 8.5,40 10.3,40 10.3,37 3.1,37 3.1,40 	"/>
	<polygon class="st0" points="111.2,40 113,40 113,50.4 116.6,50.4 116.6,40 118.4,40 118.4,37 111.2,37 111.2,40 	"/>
	<path class="st0" d="M182.8,39.1v9.1c0,1.2,1,2.1,2.1,2.1l4.6,0v-3h-3.4v-2.2h3.4v-3h-3.4v-2.1h3.4V37h-4.6
		C183.7,37,182.8,38,182.8,39.1L182.8,39.1z"/>
	<path class="st0" d="M33.2,45.9c0,1.6-0.8,1.4-1.6,1.4v2.9c3.5,1.1,5.2-1.2,5.2-2.5V37h-3.5V45.9L33.2,45.9z"/>
	<path class="st0" d="M170.3,46.6c0,0.5-0.4,0.8-0.8,0.8c-0.5,0-0.8-0.4-0.8-0.8V37l-3.5,0v11.9c0,0.8,0.7,1.5,1.5,1.5h5.7
		c0.8,0,1.5-0.7,1.5-1.5V37l-3.5,0V46.6L170.3,46.6z"/>
	<path class="st0" d="M109.3,42.2l-2.1,0c-0.3,0-0.5-0.2-0.5-0.5v-1.2c0-0.3,0.2-0.5,0.5-0.5h3.4V37h-5.9c-0.8,0-1.5,0.7-1.5,1.5
		v5.2c0,0.8,0.7,1.5,1.5,1.5h2.1c0.3,0,0.5,0.2,0.5,0.5v1.2c0,0.3-0.2,0.5-0.5,0.5h-3.4v3h5.9c0.8,0,1.5-0.7,1.5-1.5v-5.2
		C110.8,42.9,110.1,42.2,109.3,42.2L109.3,42.2z"/>
	<path class="st0" d="M90.3,42.2l-2.1,0c-0.3,0-0.5-0.2-0.5-0.5v-1.2c0-0.3,0.2-0.5,0.5-0.5h3.4V37h-5.9c-0.8,0-1.5,0.7-1.5,1.5v5.2
		c0,0.8,0.7,1.5,1.5,1.5h2.1c0.3,0,0.5,0.2,0.5,0.5v1.2c0,0.3-0.2,0.5-0.5,0.5h-3.4v3h5.9c0.8,0,1.5-0.7,1.5-1.5v-5.2
		C91.8,42.9,91.1,42.2,90.3,42.2L90.3,42.2z"/>
	<path class="st0" d="M141.5,41.3c0,0.5-0.4,0.9-0.9,0.9h-0.9V37H136v13.4h3.5v-5.2h0.9c0.5,0,1,0.4,1,1v4.2h3.5v-5
		c0-1.2-0.9-1.6-1.3-1.9c0.6-0.4,1.3-1.2,1.3-2.1V37h-3.5V41.3L141.5,41.3z"/>
	<path class="st0" d="M49.2,18.7c1.8-0.8,3.2-2.4,3.2-4.5V8.5c0-2.7-2.2-5-5-5H33.6v31.1h14.2c2.7,0,5-2.2,5-5v-6.2
		C52.8,21.2,51.3,19.3,49.2,18.7L49.2,18.7z M45,25.8c0,1-0.8,1.8-1.8,1.8l-1.8,0v-5.1h1.8c1,0,1.8,0.8,1.8,1.8V25.8L45,25.8z
		 M45,13.6c0,1-0.8,1.8-1.8,1.8l-1.8,0v-4.8h1.8c1,0,1.8,0.8,1.8,1.8V13.6L45,13.6z"/>
	<path class="st0" d="M143.1,3.5h-14.2c-1.6,0-3,1.3-3,3v28.2h8.3v-7.3h3.6v7.3h8.3V6.5C146.1,4.8,144.8,3.5,143.1,3.5L143.1,3.5z
		 M137.8,20.2h-3.6v-8.4c0-1,0.8-1.8,1.8-1.8c1,0,1.8,0.8,1.8,1.8V20.2L137.8,20.2z"/>
	<path class="st0" d="M186.9,3.5h-14.2c-1.6,0-3,1.3-3,3v28.2h8.3v-7.3h3.6v7.3h8.3V6.5C189.9,4.8,188.6,3.5,186.9,3.5L186.9,3.5z
		 M181.7,20.2H178v-8.4c0-1,0.8-1.8,1.8-1.8c1,0,1.8,0.8,1.8,1.8V20.2L181.7,20.2z"/>
	<path class="st0" d="M45.3,37h-6.1c-0.7,0-1.3,0.6-1.3,1.3v12.1l3.6,0v-3.2H43v3.2l3.6,0V38.2C46.6,37.5,46,37,45.3,37L45.3,37z
		 M43,44.2h-1.6v-3.6c0-0.4,0.3-0.8,0.8-0.8c0.4,0,0.8,0.3,0.8,0.8V44.2L43,44.2z"/>
	<path class="st0" d="M64.4,37h-6.1c-0.7,0-1.3,0.6-1.3,1.3v12.1l3.6,0v-3.2h1.6v3.2l3.6,0V38.2C65.7,37.5,65.1,37,64.4,37L64.4,37z
		 M62.2,44.2h-1.6v-3.6c0-0.4,0.3-0.8,0.8-0.8c0.4,0,0.8,0.3,0.8,0.8V44.2L62.2,44.2z"/>
	<path class="st0" d="M134,37h-6.1c-0.7,0-1.3,0.6-1.3,1.3v12.1l3.6,0v-3.2h1.6v3.2l3.6,0V38.2C135.3,37.5,134.7,37,134,37L134,37z
		 M131.8,44.2h-1.6v-3.6c0-0.4,0.3-0.8,0.8-0.8c0.4,0,0.8,0.3,0.8,0.8V44.2L131.8,44.2z"/>
	<path class="st0" d="M161.3,37h-2.7c-1.6,0-3,1.3-3,3v7.4c0,1.6,1.3,3,3,3h2.7c1.6,0,3-1.3,3-3V40C164.3,38.3,163,37,161.3,37
		L161.3,37z M160.8,46.6c0,0.5-0.4,0.8-0.8,0.8c-0.5,0-0.8-0.4-0.8-0.8v-5.7c0-0.5,0.4-0.8,0.8-0.8c0.5,0,0.8,0.4,0.8,0.8V46.6
		L160.8,46.6z"/>
	<path class="st0" d="M54.2,37h-6.8v13.4h3.5v-5.2h3.3c1.1,0,1.9-0.9,1.9-1.9v-4.4C56.1,37.8,55.3,37,54.2,37L54.2,37z M52.6,41.7
		c0,0.3-0.2,0.5-0.5,0.5h-1.1V40h1.1c0.3,0,0.5,0.2,0.5,0.5V41.7L52.6,41.7z"/>
</g>
</svg>
