<?xml version="1.0" encoding="utf-8"?>
<!-- Generator: Adobe Illustrator 22.0.1, SVG Export Plug-In . SVG Version: 6.00 Build 0)  -->
<svg version="1.1" id="Layer_1" xmlns="http://www.w3.org/2000/svg" xmlns:xlink="http://www.w3.org/1999/xlink" x="0px" y="0px"
	 viewBox="0 0 162.5 171" style="enable-background:new 0 0 162.5 171;" xml:space="preserve">
<style type="text/css">
	.st0{fill-rule:evenodd;clip-rule:evenodd;fill:#7C7C7C;}
	.st1{fill-rule:evenodd;clip-rule:evenodd;fill:#FFFFFF;}
	.st2{fill:#7C7C7C;}
</style>
<g>
	<path class="st0" d="M88.3,9.9c12.8,0,24.5,4.6,33.9,12.5c2,1.9,1.6,3.2-0.3,3.5c-28.1,5.7-56.3,13.7-84.4,22.9
		c-3.1,0.9-1.6-5.3-0.4-7.2C48.1,22.6,67.1,9.9,88.3,9.9L88.3,9.9z M137.7,105.5c-10.4,21.7-30.9,36.7-53.9,36.7
		c-11.1,0-21.3-3.5-29.9-9.5c-2.3-1.9-1.7-3.6,0.5-4.4c24.5-9.8,50.5-18.6,78.9-25.7C136.6,101.8,139.1,102.4,137.7,105.5
		L137.7,105.5z"/>
	<path class="st1" d="M106.4,134.1c10.8-7.8,17-15,19.2-21.7c1.3-4.5,5.1-3.5,4.1,0C124.6,125.4,114.4,130.9,106.4,134.1
		L106.4,134.1z"/>
	<path class="st1" d="M60.5,20.2c-5.7,3.6-11.7,6.6-17,20.5c-0.7,2.8,2.4,3.6,3.1,1.2C48.2,33.6,53.4,26.6,60.5,20.2L60.5,20.2z"/>
	<path class="st1" d="M88.2,13.1c25.4,1.5,29.6,9.7,16.7,13.5C109.6,19.4,102.8,15.2,88.2,13.1L88.2,13.1z"/>
	<polygon class="st2" points="153.5,111.5 153.5,109.2 152.4,109.2 152.4,108.8 155.2,108.8 155.2,109.2 154.2,109.2 154.2,111.5 
		153.5,111.5 	"/>
	<polygon class="st2" points="155.6,111.5 155.6,108.8 156.7,108.8 157.3,110.6 158,108.8 159,108.8 159,111.5 158.4,111.5 
		158.4,109.3 157.7,111.5 157,111.5 156.3,109.3 156.3,111.5 155.6,111.5 	"/>
	<path class="st0" d="M28.2,93.7v39.8c3-1.3,6.1-2.5,9.1-3.8c2.2-0.8,2.9-2.5,2.7-5.1l0.2-13c3.6,3.6,7.1,7.2,10.7,10.9
		c4.8,5,12.8-4.2,9.1-8.2l-8.4-9.5c2.8-5.1,5.6-10.2,8.4-15.2c3-5.1-5.3-10.4-9.1-5.1l-11.1,17.9l0-13.9L28.2,93.7L28.2,93.7z"/>
	<path class="st0" d="M63,84.4c0,0.7-0.1,36.1-0.1,36.1c2.6-1.1,5.2-2.2,7.8-3.3c3.2-1.5,4.4-3.7,4.5-6.6l0.3-35.8
		c-2.8,1.1-5.6,2.3-8.4,3.4C64.3,79.8,63,81.7,63,84.4L63,84.4z"/>
	<path class="st0" d="M79.1,113.9l-0.3-39.6c2.2-0.8,4.4-1.6,6.6-2.4c2.5-1.1,4.5,0.3,5.4,1.8L102,86c0-4.6-0.1-9.2-0.1-13.7
		c-0.1-2.8,2.6-4.8,6-6l4.8-1.5l0.1,36.7c0,4.2-7.5,6.4-9.7,3.6c-1.5-2.1-12.7-14.2-12.7-14.2l-0.4,15.4
		C89.6,110.7,86.3,112.1,79.1,113.9L79.1,113.9z"/>
	<path class="st0" d="M132.1,76.6l16.4-4v16.3c-1.6,6.3-6.7,9.7-15.7,11.1c-11.4,1.1-18.4-5.4-18.2-17.6c2.2-17.4,12-25.1,29.4-23
		c8.7,1.3,5.5,11.1-1.8,9.6c-9.6-1.8-16,2.9-16.4,11.6c0.4,8.8,6.4,12.4,12.5,7.3l0.1-3.9c-3.9,0.9-6.7,0.7-6.6-2.5
		C132,81.4,132.4,76.7,132.1,76.6L132.1,76.6z"/>
	<path class="st0" d="M94.4,50.1l10.7-2.7v10.9c-1.1,4.2-4.4,6.5-10.2,7.4c-7.4,0.7-12-3.6-11.8-11.8c1.5-11.6,7.8-16.8,19.1-15.4
		c5.6,0.9,3.6,7.4-1.2,6.4c-6.2-1.2-10.4,2-10.7,7.8c0.3,5.9,4.1,8.3,8.1,4.9l0.1-2.6c-2.5,0.6-4.3,0.5-4.3-1.7
		C94.3,53.2,94.6,50.2,94.4,50.1L94.4,50.1z"/>
	<path class="st0" d="M28.8,75.7l-0.4,7.7c2.8-1.1,5.8-2.6,5.8-6.6C34.3,74.8,31.8,74.1,28.8,75.7L28.8,75.7z M28.8,64.8L28.4,72
		c2.6-1,5.4-2.4,5.4-6.1C33.8,64,31.6,63.3,28.8,64.8L28.8,64.8z M22,62.4c0.1,0.6,0.1,29.7,0.1,29.7l14.3-6.8
		c6.6-3.6,6.6-14.3,1.1-13.7c5.4-5.6,1.9-15.2-3.3-13.5L22,62.4L22,62.4z"/>
	<path class="st0" d="M42.3,56.6c0,0.6-0.1,18.3-0.1,18.3c0,4.7,5.1,6.6,9.5,5.7c6-1.2,9.3-4.9,9.5-10.4c0-6.6,0.1-12.3,0.1-19
		c-0.1-3.6-6.9-2.3-7.1,1.2c0.1,6.1,0.1,11.8,0.2,17.9c-0.5,4.5-5.3,4.6-5.3,0.9c0-5.2,0-10.4,0-15.7C49.3,51.9,42.2,52.5,42.3,56.6
		L42.3,56.6z"/>
	<path class="st0" d="M63.7,75l-0.3-27.1L74,44.5c6.6-2,11.3,7,4,14.4c1.7,1.9,3.4,3.8,5,5.7c2.5,3.1-2.7,7.5-5.5,4.9l-6.8-6.3
		c-0.1,2.1-0.2,4.2-0.3,6.3C70.3,72.6,68,74.1,63.7,75L63.7,75z M70.6,50.4c5.8-2.8,6.6,4.8-0.1,8C70.5,55.9,70.5,53,70.6,50.4
		L70.6,50.4z"/>
	<path class="st0" d="M123.9,58.4l-0.2-26.2l11-1.8c6.8-1.1,11.6,8.3,4,14.4c1.7,2.1,3.4,4.1,5.2,6.2c2.5,3.4-2.8,6.9-5.7,4l-6.9-7
		c-0.1,2-0.2,4-0.4,6.1C130.7,57.1,128.3,58.2,123.9,58.4L123.9,58.4z M131.1,35.6c5.9-1.9,6.8,5.5-0.2,7.7
		C131,40.9,131.1,38.1,131.1,35.6L131.1,35.6z"/>
	<path class="st0" d="M106.9,35.8l0.2,26.5c4.1-0.8,6.9-1.4,11.1-2.3c4.3-1.1,4.5-3.9,4.3-7.1l-8.5,2v-5.6c7.4-1.2,8-2.2,7.7-6.4
		l-8,1.5c0-1.4,0-3,0-4.4c7.4-1.4,8.7-2.3,8.7-7.3L106.9,35.8L106.9,35.8z"/>
	<path class="st0" d="M84.4,2.1c7.2,0,14.2,1,20.8,2.7l-0.5,0.8c-16-3.4-38.9,1.7-49,6.5c-25.2,10.8-43,36.9-43,67.2
		c0,16.4,5.2,31.5,13.9,43.7v13.2l8.4-3.4c12.2,11.8,28.5,19,46.3,19c28.1,0,52.4-18.1,63-43.8c4.2,2.4,10,5.7,14.7,8.4
		c-12.4,29.2-41.2,49.8-74.6,49.8c-44.7,0-81.2-36.8-81.2-82C3.2,38.9,39.7,2.1,84.4,2.1L84.4,2.1z"/>
</g>
</svg>
