<?xml version="1.0" encoding="utf-8"?>
<!-- Generator: Adobe Illustrator 22.0.1, SVG Export Plug-In . SVG Version: 6.00 Build 0)  -->
<svg version="1.1" id="svg2500" xmlns:svg="http://www.w3.org/2000/svg"
	 xmlns="http://www.w3.org/2000/svg" xmlns:xlink="http://www.w3.org/1999/xlink" x="0px" y="0px" viewBox="0 0 1024 297"
	 style="enable-background:new 0 0 1024 297;" xml:space="preserve">
<style type="text/css">
	.st0{fill:#7C7C7C;}
	.st1{fill:#575757;}
</style>
<path id="path2450" class="st0" d="M221.6,8.4c-8.6,0-18.2,1-28.7,3.6c0,0-53.5,13.3-112.5,68.3c0,0-28.1,28.5-48,65.2
	c0,0-20.7,38.3-23.8,70.3c0,0-3.1,35.9,17.2,54.3c0,0,23.4,21.5,74.6,17.2c0,0,32-3.9,66.8-25.8c0,0,16.8-10.9,27.7-21.1
	c0,0-5.1,18.4,2.3,31.6c0,0,7,12.5,23,15.2c0,0,11.7,2.3,28.5-3.9c0,0,10.5-4.7,17.6-8.2c0,0,14.4-7.8,28.5-18.7
	c0,0-2.7,10.9,3.5,20.3c0,0,7.4,10.5,21.1,11.7c0,0,36.7,2.7,87.9-60.1l-35.9,57.8l32.8-0.4l28.5-49.2c0,0,29.7-50.8,35.9-57
	c0,0,15.2-20.3,38.3-25l15.2,1.2c0,0,6.2,3.1,6.2,10.2l-11.3-2c0,0-6.6,0.8-10.2,7.8c0,0-3.1,6.6-1.6,13.3c0,0,2,5.5,7,7.4l3.5,1.2
	L527,192c0,0,19.9-7.4,47.3-41.8l-6.2,11.3l-23,39.4l-26.9,47.6c0,0-7.8,15.6-4.3,25c0,0,3.5,9,15.2,11.3l25.4-2
	c0,0,14.4-4.3,26.2-14.4l16.8-13.7c0,0,20.3-17.2,38.7-37.5l-1.2,1.6c0,0-16,29.3-18.7,39.1c0,0-6.2,20.7,8.2,28.9l16.4,1.6
	c0,0,13.7-2,27.3-11.7l22.3-19.1c0,0,19.1-18,29.3-30.8c0,0-5.1,11.7-6.2,20.3c0,0-3.9,27.3,21.5,38.3l23.8,2c0,0,9.4-0.8,23.8-5.9
	c0,0,33.6-10.9,80.8-54.3c0,0,23.8-21.9,40.6-41.4l-59.4,99.6H874l21.9-36.7L924,203c0,0,16-25.4,45.3-41.8c0,0,11.7-7,20.7-8.6
	c0,0,9.4-2,11.3,2.7c0,0-13.3-2.7-16.4,10.9c0,0-3.1,13.7,7.8,18c0,0,8.2,2.7,14.8-2c0,0,5.9-4.3,7.8-12.5c0,0,1.6-8.2-2.3-14.1
	c0,0-4.7-7-15.6-7.8c0,0-12.1-0.4-36.3,15.6c0,0-18,11.7-25.4,19.1l19.9-34h-29.7c0,0-28.1,47.6-77.7,88.6c0,0-48.4,39.4-75.8,40.6
	c0,0-26.6,2-29.3-18.4c0,0-1.6-12.1,5.5-29.3c0,0,16.4,1.6,38.3-5.5c0,0,20.7-6.6,37.9-18.4c0,0,18.4-12.5,25-25.8
	c0,0,7.8-14.8-1.2-27.3c0,0-16.4-16-51.9-1.2c0,0-36.7,15.2-64,51.5l-7,10.5l-0.8,1.2l-19.5,22.6l-19.9,19.9
	c0,0-24.2,23.8-36.3,16.8c0,0-4.7-3.1-4.7-10.5c0,0,0-7.4,5.5-16.4l56.6-98.4H681c0,0-14.1,23-30.5,44.9c0,0-32,42.6-66.8,67.2
	c0,0-23.8,18.4-37.1,12.1c0,0-5.9-2.7-5.5-10.2c0,0,0.4-8.2,8.2-19.5l55.5-94.5l30.8-0.4l3.9-3.9h-31.2l33.2-59l-28.1,0.4
	c0,0-19.5,33.2-34.4,53.1c0,0-27.3,35.9-50,45.7c0,0,3.9-5.1,4.3-12.9l-0.4-6.2c0,0-1.6-8.2-9.4-12.1l-7-2l-13.3,1.2
	c0,0-15.6,3.5-30.1,16l12.1-20.3h-28.1c0,0-25.4,45.3-58.6,84c0,0-43.3,50-67.2,44.1c0,0-7-3.5-7.4-12.1c0,0,0-8.6,7.4-20.7
	l56.6-95.7l-28.1,0.4l-9,15.6l-5.9,11.3c0,0,1.2-3.5,0-10.9c0,0-2.3-17.6-19.1-21.1l-13.3-1.2c0,0-33.6-0.4-71.9,33.2
	c0,0-26.2,23.4-46.1,59c0,0-39.8,37.1-82,45.3c0,0-37.5,7.8-53.5-9c0,0-17.6-18-17.6-49.2c0,0,0.4-37.1,26.9-87.5
	c0,0,28.1-41.4,45.3-60.1c0,0,43.7-48,89-60.1c0,0,37.1-9.8,57.8,7c0,0,17.6,14.4,19.1,43.7L290.1,48c0,0,12.9-20.3,24.2-32
	c0,0-10.5,4.7-23.4,6.2c0,0-16,2-23.8-2.7C267.1,19.5,249.7,8.5,221.6,8.4z M316.9,146.4c11.4,0.1,17.3,5.4,17.3,5.4
	c13.7,12.5,2.7,35.9,2.7,35.9C315.8,231.4,285,258,285,258l-18.7,13.3c-29.3,14.4-41.8,4.3-41.8,4.3c-10.2-8.6-5.9-28.1-5.9-28.1
	c2.7-13.3,13.7-32.4,13.7-32.4l21.1-30.8c19.1-21.1,41-32,41-32C303.4,147.8,310.9,146.4,316.9,146.4z M819.3,149.9
	c0.4,0,0.8,0,1.2,0c0,0,6.2,0.8,9,3.9c0,0,2.7,3.9,2,11.7c0,0-2,20.7-25,40.2c0,0-26.2,22.3-56.6,21.5l5.9-12.1
	c0,0,13.3-25.8,32.8-45.7C788.4,169.4,807.1,150,819.3,149.9z"/>
<path id="path2454" class="st1" d="M700.5,106.2c0,0,0,5.1,3.9,9c0,0,3.5,3.5,9,3.5c0,0,5.1,0,8.6-3.5c0,0,3.5-3.9,3.5-9l-3.5-9
	c0,0-3.9-3.5-8.6-3.5c0,0-5.5,0-9,3.5C704.4,97.2,700.5,100.7,700.5,106.2"/>
</svg>
