<svg id="Layer_1" data-name="Layer 1" xmlns="http://www.w3.org/2000/svg" viewBox="0 0 180.4 57.74"><defs><style>.cls-1,.cls-2{fill:#7c7c7c;fill-rule:evenodd;}.cls-2{stroke:#7c7c7c;stroke-linecap:square;stroke-miterlimit:2.61;stroke-width:0px;}</style></defs><title>ESPN</title><path class="cls-1" d="M232.45,255.39h.9c.28,0,.63-.07.84.28a.78.78,0,0,1-.14.83c-.07.07-.07.07-.21.07a1.38,1.38,0,0,1-.63.07h-.76v-1.25Zm.76,1.81,1.11,1.87h.7l-1.18-1.87a1.42,1.42,0,0,0,1-.56,1.7,1.7,0,0,0,0-1.18.8.8,0,0,0-.42-.41c-.14-.14-.27-.14-.55-.21h-2v4.23h.63V257.2ZM230.44,256a2.22,2.22,0,0,1,.41-.83,6.31,6.31,0,0,1,.63-.7,3.13,3.13,0,0,1,2.71-.41,2.78,2.78,0,0,1,.76.41,3.05,3.05,0,0,1,.69.7,3.23,3.23,0,0,1,.42,2.77,9.37,9.37,0,0,1-.42.84,3.22,3.22,0,0,1-.69.69,2.92,2.92,0,0,1-2.64.42,2.33,2.33,0,0,1-.83-.42,7.19,7.19,0,0,1-.63-.69,3.25,3.25,0,0,1-.41-2.78Zm3.95,4.44a3.51,3.51,0,0,0,1.05-.48,10.89,10.89,0,0,0,.83-.84,3.88,3.88,0,0,0,.48-3.26,6,6,0,0,0-.48-1,4.26,4.26,0,0,0-.83-.76,3.57,3.57,0,0,0-3.34-.56,2.55,2.55,0,0,0-1,.56,2.78,2.78,0,0,0-.83.76,3.65,3.65,0,0,0-.49,3.26,3.39,3.39,0,0,0,.49,1,4.67,4.67,0,0,0,.83.84,3.55,3.55,0,0,0,3.33.48Z" transform="translate(-56.52 -253.27)"/><path class="cls-1" d="M174.34,310.87h5.83l.21-1.6h-3.47l.21-1.18H180l.28-1.6h-2.85l.21-1h3.47l.28-1.53h-5.76l-1.25,6.95Zm34.78-5.35a7.45,7.45,0,0,1,1.25,0,.58.58,0,0,1,.63.42.69.69,0,0,1-.42.76,1.37,1.37,0,0,1-.76.14h-1l.34-1.32Zm.14,2.92c.35,0,.77-.07,1,.34a1.16,1.16,0,0,1,0,.84c0,.07,0,.21-.07.27a3.72,3.72,0,0,0-.07,1h2.23l.2-.21c-.14.07-.27-.14-.2-.28v-.21c.06-.21.13-.41.2-.69v-.56a1.4,1.4,0,0,0-.2-.9c-.07-.07-.07-.14-.21-.21a4,4,0,0,1-.49-.28,1.4,1.4,0,0,0,1-.69,2.38,2.38,0,0,0,.42-1,.89.89,0,0,0,.07-.42,1.54,1.54,0,0,0-.42-.9,1.93,1.93,0,0,0-1-.42,7.92,7.92,0,0,0-1.46-.14H207l-1.18,6.95h2.22l.49-2.43Zm-98.86,2.43h5.41l.35-1.6H113l.83-5.35h-2.22l-1.25,6.95Zm-13.61-6.95-.21,1.74h2l-.91,5.21h2.29l.84-5.21h2.08l.35-1.74Zm85.39,0-.34,1.74h2l-.83,5.21h2.22l.9-5.21h2.09l.34-1.74Zm-100.25,0-.34,1.74h2l-.83,5.21H85l.9-5.21H88l.35-1.74Zm-25.06,0-.35,1.74h2.09l-.91,5.21H60l.84-5.21h2.08l.35-1.74Zm93.31,0-.35,1.74h2.08l-.9,5.21h2.29l.84-5.21h2.08l.35-1.74ZM124.42,306h2.22a1.74,1.74,0,0,0-.07-.63,1.23,1.23,0,0,0-.14-.55,1.29,1.29,0,0,0-.27-.35,2.93,2.93,0,0,0-.84-.56,5.39,5.39,0,0,0-.55-.14,7.1,7.1,0,0,0-1.6,0c-.28.07-.55.14-.76.21a4.16,4.16,0,0,0-.56.28,2.85,2.85,0,0,0-.48.35,2.56,2.56,0,0,0-.77,1.8,1.51,1.51,0,0,0,.7,1.18c.14.07.21.14.34.21a2.37,2.37,0,0,0,.56.21l1,.28c.28.07.42.14.49.14a1.2,1.2,0,0,1,.28.2.42.42,0,0,1-.14.63.75.75,0,0,1-.49.14c-.14,0-.21.07-.28.07s-.07,0-.14-.07-.27-.14-.41-.14-.28-.21-.28-.35a.22.22,0,0,1-.07-.14h-2.08a1.59,1.59,0,0,0,.21,1.11c.06.14.13.35.27.42a2.46,2.46,0,0,0,.56.35,2.13,2.13,0,0,0,.69.28,6.72,6.72,0,0,0,2-.07,3.23,3.23,0,0,0,1-.35,2.93,2.93,0,0,0,.69-.49,2.5,2.5,0,0,0,.84-2,1.27,1.27,0,0,0-.63-1,1.53,1.53,0,0,0-.35-.21,1.46,1.46,0,0,0-.55-.21c-.35-.14-.83-.21-1.11-.35s-.42-.13-.49-.13-.21-.14-.28-.21-.14-.42.14-.49a1.52,1.52,0,0,1,.84-.14c.13,0,.2.07.34.14s.14.07.14.14V306Zm36.31,0h2.08v-.63a1.5,1.5,0,0,0-.69-1.18c-.14-.07-.28-.21-.42-.21l-.62-.21a7.1,7.1,0,0,0-1.6,0c-.28.07-.55.14-.76.21s-.42.21-.63.28-.27.21-.41.35a2.32,2.32,0,0,0-.77,2,1.39,1.39,0,0,0,.7,1c.14.07.21.14.35.21a2.33,2.33,0,0,1,.69.21c.28.07.76.21,1,.28s.42.07.49.14a.41.41,0,0,1,.27.48c-.06.28-.34.35-.48.42s-.35.07-.56.07-.34,0-.48-.07a.84.84,0,0,1-.35-.35v-.28h-2.29a1.65,1.65,0,0,0,.55,1.53,1.52,1.52,0,0,0,.56.35,2.54,2.54,0,0,0,.76.28,7.18,7.18,0,0,0,2.09-.07,3.23,3.23,0,0,0,1-.35,5.88,5.88,0,0,0,.69-.49,2.57,2.57,0,0,0,.84-1.87,1.64,1.64,0,0,0-.77-1.11,1.68,1.68,0,0,0-.34-.21,1.53,1.53,0,0,0-.56-.21,6.77,6.77,0,0,0-1.11-.35.74.74,0,0,1-.42-.2c-.14-.07-.21-.07-.28-.14s-.13-.35.14-.56a1,1,0,0,1,.49-.07h.35a.4.4,0,0,1,.34.14.93.93,0,0,1,.21.56ZM71,310.87h5.76l.28-1.6H73.53l.28-1.18h2.78l.27-1.6H74l.21-1H77.7l.28-1.53H72.21L71,310.87Zm58.74-3.82.21-1.6h.69c.28.07.69,0,.9.42a.66.66,0,0,1-.14.9,1.12,1.12,0,0,1-.76.28h-.9Zm-.7,3.82.35-2.29h1.25a5.2,5.2,0,0,0,1-.07,2.84,2.84,0,0,0,.83-.35,3.29,3.29,0,0,0,.63-.42,2.28,2.28,0,0,0,.42-.69,2.59,2.59,0,0,0,.34-1.46,1.16,1.16,0,0,0-.48-1,.55.55,0,0,0-.28-.28,1,1,0,0,0-.42-.14,4.4,4.4,0,0,0-1.39-.21H128l-1.18,6.95Zm15.9-5.35a8.31,8.31,0,0,1,1.32,0,.63.63,0,0,1,.63.42.69.69,0,0,1-.42.76,1.62,1.62,0,0,1-.83.14h-1l.35-1.32Zm.21,2.92c.35,0,.76-.07,1,.34a1.7,1.7,0,0,1,0,.84.41.41,0,0,0-.07.27,3.24,3.24,0,0,0-.14,1h2.29l.14-.21c-.14.07-.2-.14-.2-.28a.61.61,0,0,1,.06-.21,3,3,0,0,1,.14-.69c0-.21.07-.42.07-.56a1.12,1.12,0,0,0-.27-.9q0-.11-.21-.21a4.29,4.29,0,0,1-.42-.28,1.55,1.55,0,0,0,1-.69,3.7,3.7,0,0,0,.42-1v-.42a1,1,0,0,0-.42-.9,1.7,1.7,0,0,0-1-.42,7.75,7.75,0,0,0-1.39-.14h-3.33l-1.18,6.95h2.22l.56-2.43Zm-38.05,0h-1.38l1-2.43.34,2.43Zm-2.56,2.43.48-.91h2.29l.14.91h2.08l-1.18-6.95h-2.29l-3.82,6.95Zm-13.82-4.1.21-.42c.07-.14.14-.2.21-.34.48-.56.9-.49,1.45-.56a.84.84,0,0,1,.63.56,3,3,0,0,1,.07,1.39c-.07.2-.07.41-.14.55a1.14,1.14,0,0,1-.21.42,1.07,1.07,0,0,1-.42.55,1.22,1.22,0,0,1-1.18.35,1,1,0,0,1-.76-.56,1.86,1.86,0,0,1-.14-.9,3.88,3.88,0,0,1,.28-1Zm4.86-.28a2.56,2.56,0,0,0-.07-.76,2.49,2.49,0,0,0-.28-.63,3.39,3.39,0,0,0-.28-.48,2.48,2.48,0,0,0-1-.63,3.06,3.06,0,0,0-1.39-.27A5.82,5.82,0,0,0,91,304a4.1,4.1,0,0,0-1.32.77,3.53,3.53,0,0,0-.9,1.18,3.25,3.25,0,0,0-.49,1.46,5.15,5.15,0,0,0-.07,1c.07.34.14.62.21.9a1.38,1.38,0,0,0,.42.69,1.73,1.73,0,0,0,.55.49,3.09,3.09,0,0,0,.83.35,3.84,3.84,0,0,0,2.29-.07,3.22,3.22,0,0,0,1.12-.49,5.91,5.91,0,0,0,1-.83,4.83,4.83,0,0,0,1-3Zm41,.56a2.23,2.23,0,0,1,.7-1.32,1.61,1.61,0,0,1,1.25-.21c.27,0,.48.28.55.49a3,3,0,0,1,.07,1.39,2,2,0,0,0-.14.55,1.14,1.14,0,0,1-.21.42,1.1,1.1,0,0,1-.41.55,1.23,1.23,0,0,1-1.18.35.89.89,0,0,1-.63-.49,1,1,0,0,1-.14-.41,10.46,10.46,0,0,1,.14-1.32Zm4.86-.56c0-.28-.07-.55-.07-.76s-.21-.42-.28-.63a1.27,1.27,0,0,0-.34-.48,2.15,2.15,0,0,0-1-.63,2.59,2.59,0,0,0-1.31-.27A4.47,4.47,0,0,0,137,304a4.78,4.78,0,0,0-1.32.7,6.93,6.93,0,0,0-1,1.18,5.74,5.74,0,0,0-.63,1.53,5.16,5.16,0,0,0,0,1,1.93,1.93,0,0,0,.21.9,1.38,1.38,0,0,0,.42.69,1.49,1.49,0,0,0,.62.49,2.36,2.36,0,0,0,.83.35,3.88,3.88,0,0,0,2.3-.07,4,4,0,0,0,1.11-.49c.27-.28.62-.55.9-.83a5,5,0,0,0,.9-2.08,4.31,4.31,0,0,0,.07-.91Zm59.22.28.21-.42a1.44,1.44,0,0,1,.21-.34,1.31,1.31,0,0,1,1.39-.49,1,1,0,0,1,.69.49,1.89,1.89,0,0,1,.07,1.39c-.07.27-.21.55-.28.76a4.55,4.55,0,0,0-.27.48,1.2,1.2,0,0,1-2.3-.27,5.12,5.12,0,0,1,.28-1.6Zm4.86-.28a2,2,0,0,0-.14-.69,1,1,0,0,0-.14-.49,2.62,2.62,0,0,0-.9-1,3.78,3.78,0,0,0-1.94-.55,5.39,5.39,0,0,0-1.53.27,3.76,3.76,0,0,0-1.25.77,2.89,2.89,0,0,0-.9,1.18,3.25,3.25,0,0,0-.49,1.46,3.92,3.92,0,0,0-.14.9c0,.28.07.55.07.76a2.74,2.74,0,0,0,.28.63,4.38,4.38,0,0,0,.42.55,3.75,3.75,0,0,0,.55.42,4.53,4.53,0,0,0,1.74.35,3.43,3.43,0,0,0,1.46-.28,3.52,3.52,0,0,0,1.32-.7,5.51,5.51,0,0,0,1-1.18,5.66,5.66,0,0,0,.62-1.45v-.91Zm-33.88,1.25-1.94-3.82h-2.08l-1.19,6.95h2.09l.48-2.29.21-1.53,1.74,3.82h2l1.25-6.95h-2.08a35.63,35.63,0,0,0-.49,3.82ZM62.91,310.87h2.22l.56-2.78h2.15l-.42,2.78h2.22l1.18-6.95H68.6l-.41,2.23H66l.35-2.23H64.09l-1.18,6.95Zm151.77-6.95-1.25,6.95h2.29l.28-2.29.69-.49,1,2.78h2.78l-2.08-4.38,3.12-2.57h-2.78l-2.43,2.23.56-2.23Zm-20.07,4.31v-4.31h-1.94l-1.53,4.31-.14-4.31h-2.08l.49,6.95h2.08l1.53-4,.2,4h2.23l3-6.95h-2.29l-1.53,4.31Z" transform="translate(-56.52 -253.27)"/><path class="cls-2" d="M184.75,270.39l-2.91,27.29H196l3.06-27.29Zm27.84-.14-3.12,27.43h14l3.27-27.43ZM62,254.7l-1.39,11.87H97.83l1.32-11.87Zm-1.74,15.55-3.05,27.63H94.36l1.18-11.94H73.25l.7-5H96.1l1.18-10.69Zm125-3.68H227.1c.28-2.29.49-4.58.56-6s0-1.94,0-2.43-.14-.69-.21-1a6.12,6.12,0,0,0-.28-.69,1.23,1.23,0,0,0-.34-.49,1.19,1.19,0,0,0-.42-.42,2.46,2.46,0,0,0-.49-.34c-.2-.07-.41-.14-.69-.21a2.44,2.44,0,0,0-1.11-.21,10.21,10.21,0,0,0-1.53-.07h-36l-1.39,11.87Zm-42.14,3.82L140,297.68h14l1.87-16.74H177a9.79,9.79,0,0,0,1.46-.07c.48-.07.83-.14,1.11-.2a2.54,2.54,0,0,0,.76-.28,2.58,2.58,0,0,0,.62-.35l.42-.42c.21-.13.28-.34.42-.55a2.36,2.36,0,0,0,.35-.83,8.46,8.46,0,0,0,.41-2.16c.21-1.32.35-3.47.49-5.69H143.1Zm-43.39-.14a36.47,36.47,0,0,0-.21,3.68,19.34,19.34,0,0,0,.14,2.36,7.49,7.49,0,0,0,.34,1.46c.14.35.28.69.42,1a2.89,2.89,0,0,0,.49.77,2.06,2.06,0,0,0,.55.55,4.91,4.91,0,0,0,.63.42,2.21,2.21,0,0,0,.83.34,6.92,6.92,0,0,0,2.15.35h20.41v4.65H98l-1.39,12.08h33.74a11.2,11.2,0,0,0,1.53-.07c.42-.07.9-.2,1.32-.27a9.23,9.23,0,0,0,1.25-.49,7.54,7.54,0,0,0,2.08-1.46,7.42,7.42,0,0,0,.9-1.18,10.34,10.34,0,0,0,.91-1.6,15.25,15.25,0,0,0,.83-3.05,56.29,56.29,0,0,0,.69-6.25c.35-2,.56-4.09.7-5.48a14.13,14.13,0,0,0-.07-2.64c-.07-.56-.21-1-.28-1.39s-.28-.69-.42-1a6.11,6.11,0,0,0-.55-.77,3.85,3.85,0,0,0-1.25-1.11,2.93,2.93,0,0,0-.76-.34c-.28-.14-.56-.21-.91-.35a12.26,12.26,0,0,0-2.36-.21H99.71Zm78.45-15.62H107.48a12.36,12.36,0,0,0-1.73.14c-.49.07-.84.14-1.18.21s-.56.21-.84.34a4.63,4.63,0,0,0-1.18.91,7.19,7.19,0,0,0-.48.76c-.14.28-.28.63-.49,1.11a12.73,12.73,0,0,0-.56,2.43c-.27,1.46-.55,3.75-.83,6H183.5c.42-2.08.7-4.23.84-5.55a9.36,9.36,0,0,0,.07-2.36c-.07-.42-.07-.77-.14-1a4.83,4.83,0,0,1-.28-.7,5.82,5.82,0,0,0-.83-1,1.52,1.52,0,0,0-.56-.35,2.22,2.22,0,0,0-.69-.34c-.28-.07-.56-.21-.91-.28s-.76-.14-1.25-.21-1-.07-1.59-.07Z" transform="translate(-56.52 -253.27)"/></svg>