<svg id="Layer_1" data-name="Layer 1" xmlns="http://www.w3.org/2000/svg" viewBox="0 0 175.75 47.69"><defs><style>.cls-1{fill:#7b7b7b;fill-rule:evenodd;}</style></defs><title>goya</title><path class="cls-1" d="M20.93,43.55A21,21,0,1,1,35.4,6.33L30,15.85a10.39,10.39,0,1,0-2.89,15.78V23.9l11.48-2.45V46.78L27,49.22V33.08L20.93,43.55Z" transform="translate(-1 -1.53)"/><path class="cls-1" d="M63.75,1.53a21,21,0,1,0,21,21A21,21,0,0,0,63.75,1.53Zm0,31.41A10.39,10.39,0,1,1,74.13,22.55,10.38,10.38,0,0,1,63.75,32.94Z" transform="translate(-1 -1.53)"/><path class="cls-1" d="M113.15,2.49V16.25a6.71,6.71,0,1,1-13.41,0l0-13.76H89V16.25a17.43,17.43,0,0,0,12.15,16.62V42.5h10.66V32.84a17.44,17.44,0,0,0,12-16.59l-.06-13.76Z" transform="translate(-1 -1.53)"/><path class="cls-1" d="M147.86,1.94A18.9,18.9,0,0,0,129,20.84V42.5H139.6v-7h16.52v7h10.65V20.84A18.91,18.91,0,0,0,147.86,1.94Zm8.26,22.82H139.6V20.84a8.26,8.26,0,1,1,16.52,0Z" transform="translate(-1 -1.53)"/><path class="cls-1" d="M173.07,35.62a3.68,3.68,0,1,0,3.68,3.68A3.68,3.68,0,0,0,173.07,35.62Zm0,7a3.31,3.31,0,0,1-3.32-3.36,3.31,3.31,0,1,1,3.32,3.36Z" transform="translate(-1 -1.53)"/><path class="cls-1" d="M173.66,39.48a1.16,1.16,0,0,0,1.12-1.16c0-.78-.43-1.2-1.42-1.2h-1.63v4.36h.37v-2h1.14l1.31,2H175Zm-.63-.34h-.93V37.45h1.2c.53,0,1.11.19,1.11.86S173.69,39.14,173,39.14Z" transform="translate(-1 -1.53)"/></svg>