<?xml version="1.0" encoding="utf-8"?>
<!-- Generator: Adobe Illustrator 22.0.1, SVG Export Plug-In . SVG Version: 6.00 Build 0)  -->
<svg version="1.1" id="Layer_1" xmlns="http://www.w3.org/2000/svg" xmlns:xlink="http://www.w3.org/1999/xlink" x="0px" y="0px"
	 viewBox="0 0 753 800" style="enable-background:new 0 0 753 800;" xml:space="preserve">
<style type="text/css">
	.st0{fill:#7C7C7C;}
</style>
<g>
	<path class="st0" d="M265.5,8c0,78.6,0,157.3,0,236.3c-6.6,0-12.9,0-19.7,0c0-68.7,0-137.2,0-205.7c-0.4-0.2-0.8-0.4-1.2-0.5
		c-29.9,35.6-59.8,71.2-90,107.3c-5-4.1-9.8-8.1-15-12.4c-4.9,4-9.9,8.1-15.2,12.5c-30.1-35.9-60-71.6-90.8-108.2
		c0,69.7,0,138.2,0,207.1c-6.9,0-13.3,0-20.1,0c0-2.3,0-4.3,0-6.3c0-75.2,0-150.3,0-225.5c0-1.5-0.1-3-0.1-4.5c6.7,0,13.3,0,20,0
		c0,9.2,0,18.4,0,28.4c5.5-4.5,10.1-8.2,15-12.3c30.4,36.2,60.6,72.2,91.1,108.6c30.7-36.5,60.8-72.6,91.1-108.6
		c5,4.2,9.6,8,14.8,12.4c0-10.3,0-19.4,0-28.5C252.2,8,258.8,8,265.5,8z"/>
	<path class="st0" d="M646.5,8c4.6,10.9,9,21.8,13.7,32.6c27.7,63.1,55.4,126.2,83.1,189.3c0.5,1.2,0.9,2.5,1.6,4.2
		c-5.8,2.6-11.5,5.1-17.8,7.9c-15.6-35.5-31.1-70.8-46.6-106.1c-0.3,0-0.5,0-0.8,0c0,4.9,0,9.9,0,15.2c-34.2,0-67.7,0-101.9,0
		c0-5.2,0-10.2,0-15.2c-0.3,0-0.6-0.1-0.9-0.1c-15.4,35.3-30.7,70.6-46.3,106.4c-6.1-2.6-11.8-5.1-18-7.8
		c5.2-12,10.3-23.7,15.4-35.4c27.2-62.6,54.4-125.2,81.6-187.8c0.5-1,0.6-2.2,1-3.3c0.7,0,1.3,0,2,0c4.9,2.3,9.7,4.7,14.6,6.9
		c0.8,0.4,2,0.4,2.8,0c4.9-2.2,9.7-4.6,14.6-7C645.2,8,645.8,8,646.5,8z M678.6,131.7c-16.7-38.1-33.3-75.8-50.2-114.4
		c-16.8,38.7-33.2,76.4-49.7,114.4C612.5,131.7,645.2,131.7,678.6,131.7z"/>
	<path class="st0" d="M350.5,793c0-6.4,0-12.9,0-19.6c8.4,0,16.8,0,26,0c0,6.7,0,13.2,0,19.6C367.8,793,359.2,793,350.5,793z"/>
	<path class="st0" d="M745.5,489c-7,4.9-14.1,9.7-21.4,14.8c-3.7-5.1-7.4-10.1-11.5-15.7c7-5.1,13.9-10.1,21.2-15.4
		c4,5.2,7.9,10.3,11.7,15.3C745.5,488.3,745.5,488.7,745.5,489z"/>
	<path class="st0" d="M613.5,793c0-6.4,0-12.9,0-19.6c9,0,17.2,0,26,0c0,6.5,0,13.1,0,19.6C630.8,793,622.2,793,613.5,793z"/>
	<path class="st0" d="M9.5,388c6.4,0,12.9,0,19.6,0c0,8.6,0,16.8,0,26c-6.5,0-13,0-19.6,0C9.5,405.3,9.5,396.7,9.5,388z"/>
	<path class="st0" d="M428.5,8c0,6.5,0,12.9,0,19.8c-8.8,0-17.1,0-26,0c0-6.6,0-13.2,0-19.8C411.2,8,419.8,8,428.5,8z"/>
	<path class="st0" d="M745.5,314c-3.8,4.7-7.6,9.5-11.8,14.6c-6.9-5-13.7-10-20.9-15.3c3.9-5.4,7.5-10.3,11.3-15.5
		c7.2,4.8,14.3,9.5,21.4,14.2C745.5,312.7,745.5,313.3,745.5,314z"/>
	<path class="st0" d="M242.8,783.7c-6.1,2.7-11.7,5.1-18,7.9c-15.7-35.7-31.3-71.2-46.9-106.7c-0.3,0-0.6,0.1-0.9,0.1
		c0,5.2,0,10.4,0,15.8c-34,0-67.4,0-101.3,0c0-5,0-9.9,0-14.9c-0.4-0.1-0.8-0.2-1.2-0.3c-15.3,35.2-30.7,70.5-46.2,106.1
		c-6-2.6-11.8-5.1-18.1-7.8c32.8-75.4,65.5-150.6,98.4-226.4c4.6,2,9,4.2,13.7,5.7c2.4,0.8,5.4,0.7,7.8,0c4.4-1.4,8.5-3.6,13.4-5.7
		C176.7,632.9,209.6,708,242.8,783.7z M176.4,681.2c-16.8-38.3-33.3-75.9-50.2-114.4c-16.8,38.7-33.1,76.3-49.7,114.4
		C110.2,681.2,142.9,681.2,176.4,681.2z"/>
	<path class="st0" d="M432.8,282.5c6.5,0,12.6,0,19.1,0c0,78.6,0,157.1,0,236c-6.3,0-12.5,0-19.1,0
		C432.8,439.9,432.8,361.5,432.8,282.5z"/>
	<path class="st0" d="M263,518.5c-6.4,0-12.5,0-19.1,0c0-78.6,0-157.1,0-236.3c3.1,0,6.2,0,9.3,0c3.1,0,6.3,0,9.7,0
		C263,361.1,263,439.5,263,518.5z"/>
	<path class="st0" d="M506.3,518.5c-5.9,0-11.5,0-17.5,0c0-78.6,0-157.1,0-236c5.7,0,11.4,0,17.5,0
		C506.3,361.2,506.3,439.7,506.3,518.5z"/>
	<path class="st0" d="M427.8,391.9c0,6.5,0,12.6,0,19c-53.1,0-105.9,0-159.1,0c0-6.3,0-12.4,0-19
		C321.6,391.9,374.4,391.9,427.8,391.9z"/>
	<path class="st0" d="M375.6,687.7c0-6.4,0-12.5,0-19.1c34.7,0,69.4,0,104.4,0c0,6.2,0,12.4,0,19.1
		C445.4,687.7,410.8,687.7,375.6,687.7z"/>
	<path class="st0" d="M708.5,311.3c-8.5-2.8-16.5-5.4-25-8.3c2-6.2,3.9-12.1,6-18.7c8.4,2.7,16.5,5.3,25,8
		C712.5,298.7,710.6,304.6,708.5,311.3z"/>
	<path class="st0" d="M387.2,558.5c8.4,2.7,16.4,5.3,25,8c-2,6.4-4,12.4-6.1,18.9c-8.3-2.7-16.3-5.4-24.9-8.2
		C383.2,571,385.1,565,387.2,558.5z"/>
	<path class="st0" d="M644.9,577.3c2.1-6.5,4-12.3,6.1-18.7c8.4,2.7,16.5,5.3,25,8c-2.1,6.4-4,12.4-6.1,18.9
		C661.5,582.7,653.5,580.1,644.9,577.3z"/>
	<path class="st0" d="M669.8,764.4c2.1,6.5,3.9,12.3,6,18.7c-8.4,2.7-16.5,5.3-25,8.1c-2.1-6.3-4-12.2-6.2-18.7
		C653,769.9,661.1,767.3,669.8,764.4z"/>
	<path class="st0" d="M557.3,449.7c-2.7-8.5-5.3-16.5-8.1-24.9c6.2-2.1,12.1-4,18.6-6.2c2.7,8.4,5.3,16.5,8.1,25
		C569.6,445.7,563.7,447.6,557.3,449.7z"/>
	<path class="st0" d="M78.7,292.4c8.7-2.8,16.6-5.3,25-8c2.1,6.4,4,12.2,6.1,18.6c-8.3,2.7-16.5,5.3-25,8.1
		C82.8,304.8,80.8,298.9,78.7,292.4z"/>
	<path class="st0" d="M103.5,517c-8.5-2.8-16.4-5.3-24.8-8.1c2-6.2,3.8-12.1,5.9-18.6c8.5,2.7,16.6,5.3,25.2,8
		C107.7,504.6,105.7,510.5,103.5,517z"/>
	<path class="st0" d="M372.3,216c8.6,2.8,16.6,5.3,25.2,8.1c-2.1,6.3-4.1,12.3-6.3,18.7c-8.4-2.7-16.3-5.3-24.8-8
		C368.4,228.5,370.3,222.6,372.3,216z"/>
	<path class="st0" d="M483.9,198.3c3.8,5.5,7.3,10.5,11.2,16c-7,5.2-13.9,10.3-21,15.6c-3.9-5.4-7.6-10.4-11.7-15.9
		C469.5,208.8,476.4,203.7,483.9,198.3z"/>
	<path class="st0" d="M273.7,632c-2.8,8.5-5.3,16.4-8.1,24.9c-6.3-2-12.3-4-18.7-6.1c2.8-8.6,5.3-16.6,8-25
		C261.3,627.9,267.2,629.9,273.7,632z"/>
	<path class="st0" d="M458.3,37.1c-8.6-2.8-16.6-5.5-25-8.3c2-6.3,4-12.2,6.1-18.7c8.4,2.7,16.5,5.4,24.9,8.1
		C462.4,24.6,460.4,30.5,458.3,37.1z"/>
	<path class="st0" d="M678.4,499.3c0,6.5,0,12.6,0,19.1c-8.5,0-16.9,0-25.6,0c0-6.3,0-12.5,0-19.1
		C661.1,499.3,669.5,499.3,678.4,499.3z"/>
	<path class="st0" d="M714.7,594.9c5.3,7.4,10.2,14.2,15.3,21.3c-5.4,4-10.5,7.6-16,11.6c-5.2-7.2-10.1-14.2-15.3-21.4
		C704.1,602.5,709.2,598.9,714.7,594.9z"/>
	<path class="st0" d="M140.3,518.6c-8.6,0-16.8,0-25.4,0c0-6.4,0-12.6,0-19.3c8.3,0,16.7,0,25.4,0
		C140.3,505.6,140.3,511.8,140.3,518.6z"/>
	<path class="st0" d="M714.3,508.9c-8.6,2.8-16.5,5.3-24.9,8.1c-2.1-6.2-4-12.1-6.2-18.6c8.4-2.7,16.5-5.3,25.2-8.1
		C710.4,496.5,712.3,502.5,714.3,508.9z"/>
	<path class="st0" d="M724.4,656.9c-2.7-8.4-5.3-16.3-8.1-25c6.2-2,12.3-3.9,18.7-5.9c2.8,8.4,5.4,16.3,8.3,24.7
		C736.9,652.9,730.8,654.8,724.4,656.9z"/>
	<path class="st0" d="M528.1,687.9c-6.5,0-12.6,0-19,0c0-8.6,0-17,0-25.6c6.4,0,12.5,0,19,0C528.1,670.7,528.1,679,528.1,687.9z"/>
	<path class="st0" d="M566.9,413.7c-6.4,0-12.5,0-19,0c0-8.4,0-16.8,0-25.5c6.2,0,12.4,0,19,0C566.9,396.6,566.9,405,566.9,413.7z"
		/>
	<path class="st0" d="M439.2,242.8c-2.1-6.5-4-12.3-6.1-18.7c8.4-2.7,16.5-5.3,25.1-8.1c2,6.2,3.9,12.1,6,18.7
		C456,237.4,447.9,240,439.2,242.8z"/>
	<path class="st0" d="M297.8,113.9c6.5,0,12.6,0,19,0c0,8.7,0,17,0,25.6c-6.5,0-12.5,0-19,0C297.8,131,297.8,122.6,297.8,113.9z"/>
	<path class="st0" d="M307.2,77.4c6.4,2.1,12.4,4.1,18.7,6.1c-2.7,8.4-5.3,16.4-8,24.9c-6.2-2-12.2-3.9-18.7-6
		C301.8,94.2,304.3,86.2,307.2,77.4z"/>
	<path class="st0" d="M273.7,717.8c-6.4,2.1-12.4,4.1-18.7,6.1c-2.7-8.3-5.3-16.4-8.1-24.9c6.3-2.1,12.2-4,18.6-6.1
		C268.3,701.1,270.9,709.1,273.7,717.8z"/>
	<path class="st0" d="M529.3,692.7c2.7,8.5,5.3,16.5,8.1,25c-6.1,2-12.1,4-18.6,6.2c-2.7-8.2-5.3-16.4-8.1-25
		C516.8,696.9,522.7,694.9,529.3,692.7z"/>
	<path class="st0" d="M639.6,557.2c0,6.4,0,12.7,0,19.2c-8.6,0-16.9,0-25.6,0c0-6.5,0-12.7,0-19.2
		C622.6,557.2,630.9,557.2,639.6,557.2z"/>
	<path class="st0" d="M350,557.1c8.9,0,17.2,0,25.8,0c0,6.3,0,12.5,0,19.6c-7.8,0-15.7,0.1-23.6-0.1c-0.8,0-2.1-2-2.1-3
		C349.9,568.2,350,562.9,350,557.1z"/>
	<path class="st0" d="M402.6,244.3c0-6.5,0-12.7,0-19.3c8.6,0,17,0,25.6,0c0,6.5,0,12.7,0,19.3C419.5,244.3,411.2,244.3,402.6,244.3
		z"/>
	<path class="st0" d="M558.5,746.7c7.4,5.4,14.2,10.4,21.2,15.6c-3.9,5.3-7.6,10.3-11.6,15.7c-7.1-5.2-14.1-10.2-21.2-15.3
		C550.8,757.2,554.5,752.2,558.5,746.7z"/>
	<path class="st0" d="M606.7,503.8c-7.4-5.3-14.2-10.3-21.3-15.4c3.9-5.3,7.6-10.4,11.6-16c7.1,5.2,14,10.2,21.3,15.5
		C614.4,493.4,610.7,498.4,606.7,503.8z"/>
	<path class="st0" d="M174.8,488.1c7.3-5.3,14.1-10.3,21.4-15.6c3.7,5.2,7.4,10.3,11.3,15.9c-7,5.2-13.9,10.3-21,15.6
		C182.5,498.7,178.8,493.7,174.8,488.1z"/>
	<path class="st0" d="M609,772.5c-2.2,6.6-4.2,12.5-6.3,18.7c-8.4-2.8-16.4-5.4-24.7-8.1c2.1-6.5,3.9-12.4,5.9-18.7
		C592.3,767.2,600.4,769.7,609,772.5z"/>
	<path class="st0" d="M11.4,424.7c6.3-2.1,12.3-4,18.7-6.1c2.7,8.3,5.3,16.3,8.1,24.9c-6.2,2.1-12.1,4-18.6,6.2
		C16.8,441.3,14.1,433.1,11.4,424.7z"/>
	<path class="st0" d="M685.6,778.3c-3.8-5.2-7.5-10.3-11.7-16c7.1-5.2,13.9-10.2,21.3-15.6c3.8,5.3,7.4,10.3,11.5,15.9
		C699.7,767.8,692.9,772.9,685.6,778.3z"/>
	<path class="st0" d="M314.2,783.2c2.1-6.5,3.9-12.3,6-18.7c8.5,2.7,16.6,5.3,25.2,8c-2.1,6.4-4.1,12.3-6.3,18.7
		C330.7,788.5,322.7,785.9,314.2,783.2z"/>
	<path class="st0" d="M30.1,382.7c-6.4-2.1-12.3-4-18.7-6.1c2.7-8.3,5.2-16.3,8-24.9c6.2,2,12.1,3.9,18.7,6
		C35.4,366.1,32.8,374.3,30.1,382.7z"/>
	<path class="st0" d="M714.5,755c-5.5-4-10.6-7.7-16-11.6c5.2-7.1,10.3-14,15.5-21.2c5.3,3.9,10.4,7.6,15.7,11.6
		C724.7,740.8,719.8,747.6,714.5,755z"/>
	<path class="st0" d="M307.2,175.5c-2.8-8.8-5.4-16.7-8-25c6.3-2,12.2-4,18.7-6.1c2.7,8.4,5.3,16.3,8.1,25
		C319.6,171.4,313.6,173.4,307.2,175.5z"/>
	<path class="st0" d="M327.7,206.4c-5.4-7.3-10.4-14.1-15.6-21.1c5.4-3.9,10.5-7.6,15.9-11.6c5.1,7,10,13.9,15.3,21.2
		C338.2,198.7,333.2,202.4,327.7,206.4z"/>
	<path class="st0" d="M602.9,558.5c2.1,6.4,4,12.2,6.1,18.7c-8.4,2.7-16.5,5.3-25,8.1c-2.1-6.3-4-12.3-6.1-18.7
		C586.3,563.9,594.3,561.3,602.9,558.5z"/>
	<path class="st0" d="M314.2,566.6c8.8-2.8,16.6-5.4,24.9-8c2.1,6.3,4,12.2,6.2,18.6c-8.3,2.7-16.3,5.3-25,8.1
		C318.3,579.1,316.3,573,314.2,566.6z"/>
	<path class="st0" d="M641.3,517c-8.3-2.7-16.3-5.3-24.8-8c2-6.2,3.8-12.1,5.9-18.7c8.4,2.7,16.5,5.2,25.2,8
		C645.5,504.6,643.5,510.6,641.3,517z"/>
	<path class="st0" d="M641.5,284.4c2.2,6.7,4,12.4,6.1,18.6c-8.3,2.7-16.4,5.3-24.9,8.1c-2.1-6.2-4-12.1-6.2-18.7
		C624.9,289.7,633.1,287.1,641.5,284.4z"/>
	<path class="st0" d="M176.7,292.4c-2.1,6.4-4,12.3-6.1,18.9c-8.3-2.7-16.4-5.4-25-8.2c2-6.3,3.9-12.2,6.1-18.7
		C160.2,287.1,168.2,289.7,176.7,292.4z"/>
	<path class="st0" d="M593.5,469.2c-5.4,3.9-10.3,7.5-15.8,11.4c-5.1-7-10.1-13.8-15.5-21c5.3-3.9,10.4-7.7,15.9-11.7
		C583.2,454.9,588.2,461.8,593.5,469.2z"/>
	<path class="st0" d="M59.2,472.5c7.2,5.3,14,10.2,21.3,15.6c-3.9,5.3-7.7,10.4-11.6,15.7c-7.2-5.2-14-10.1-21.3-15.3
		C51.5,483.1,55.2,478.1,59.2,472.5z"/>
	<path class="st0" d="M304.4,778c-7.4-5.4-14.2-10.3-21.2-15.4c4-5.4,7.7-10.5,11.6-15.9c7.1,5.2,14,10.2,21.2,15.5
		C312,767.6,308.3,772.7,304.4,778z"/>
	<path class="st0" d="M412.1,783.1c-8.6,2.8-16.5,5.3-25,8.1c-2-6.2-4-12.2-6.1-18.7c8.3-2.7,16.2-5.2,25.1-8.1
		C408,770.5,409.9,776.5,412.1,783.1z"/>
	<path class="st0" d="M431.7,746.7c3.8,5.4,7.3,10.4,11.3,15.9c-7,5.2-13.9,10.3-21,15.6c-3.9-5.3-7.6-10.3-11.6-15.9
		C417.3,757.2,424.2,752.2,431.7,746.7z"/>
	<path class="st0" d="M170.6,490.3c2,6.3,3.9,12.3,5.9,18.6c-8.3,2.7-16.3,5.3-24.9,8.1c-2.1-6.2-4.1-12.3-6.2-18.7
		C153.9,495.6,162,493,170.6,490.3z"/>
	<path class="st0" d="M391.4,10.1c2.1,6.3,4,12.2,6.2,18.6c-8.3,2.7-16.5,5.3-25,8.1c-2.1-6.3-4-12.2-6.1-18.7
		C374.7,15.5,382.9,12.9,391.4,10.1z"/>
	<path class="st0" d="M312.3,67.6c5.3-7.2,10.1-13.9,15.4-21c5.4,3.8,10.5,7.5,16,11.4c-5.3,7.2-10.3,14.1-15.5,21.2
		C322.7,75.2,317.7,71.5,312.3,67.6z"/>
	<path class="st0" d="M567.9,382.7c-6.6-2.2-12.4-4.1-18.7-6.1c2.7-8.4,5.3-16.5,8-25c6.4,2.1,12.3,4.1,18.7,6.1
		C573.2,366.2,570.7,374.2,567.9,382.7z"/>
	<path class="st0" d="M435,743.4c5.2-7.2,10-13.9,15.3-21.2c5.3,3.9,10.4,7.6,15.8,11.6c-5.2,7.2-10.1,14.1-15.3,21.3
		C445.5,751.1,440.5,747.4,435,743.4z"/>
	<path class="st0" d="M479.3,699.1c-2.8,8.5-5.3,16.3-8.1,24.8c-6.2-2-12.1-3.9-18.7-6c2.7-8.3,5.4-16.4,8.2-25
		C467,694.9,472.9,696.9,479.3,699.1z"/>
	<path class="st0" d="M577.8,320.7c5.5,4,10.5,7.5,15.9,11.4c-5.2,7.1-10.2,13.9-15.5,21.2c-5.4-3.9-10.5-7.7-15.8-11.6
		C567.6,334.7,572.6,327.9,577.8,320.7z"/>
	<path class="st0" d="M55.9,332.1c-5.4,7.4-10.4,14.2-15.5,21.3c-5.4-4-10.4-7.7-15.8-11.6c5.2-7.1,10.2-13.9,15.4-21.1
		C45.3,324.6,50.4,328.2,55.9,332.1z"/>
	<path class="st0" d="M186.6,297.5c7.2,5.2,13.9,10.1,21,15.4c-3.8,5.3-7.5,10.5-11.4,16c-7.2-5.3-14-10.2-21.3-15.6
		C178.8,308,182.5,303,186.6,297.5z"/>
	<path class="st0" d="M68.9,297.5c3.9,5.3,7.6,10.3,11.6,15.8c-7.2,5.2-14,10.3-21.3,15.6c-3.9-5.5-7.5-10.5-11.4-15.9
		C55,307.7,61.7,302.7,68.9,297.5z"/>
	<path class="st0" d="M579.7,587.5c-7.3,5.3-14.1,10.3-21.3,15.5c-3.8-5.3-7.5-10.4-11.4-15.9c7-5.1,13.8-10.1,21-15.4
		C571.9,576.9,575.6,582,579.7,587.5z"/>
	<path class="st0" d="M529.1,656.9c-6.3-2.1-12.2-4-18.5-6.1c2.7-8.4,5.3-16.5,8.1-25c6.2,2,12.1,3.9,18.7,6.1
		C534.6,640.3,531.9,648.4,529.1,656.9z"/>
	<path class="st0" d="M275.5,594.9c5.5,3.9,10.4,7.5,15.9,11.4c-5.2,7.1-10.2,14-15.5,21.2c-5.3-3.9-10.4-7.6-15.8-11.6
		C265.3,608.9,270.2,602.1,275.5,594.9z"/>
	<path class="st0" d="M554.9,743.4c-5.5,3.9-10.5,7.5-16,11.4c-5.1-7-10-13.7-15.4-21c5.3-3.9,10.4-7.6,15.9-11.6
		C544.8,729.3,549.7,736.1,554.9,743.4z"/>
	<path class="st0" d="M346.9,198.3c7.4,5.4,14.1,10.3,21.3,15.5c-3.8,5.2-7.5,10.2-11.5,15.8c-7-5.1-13.9-10-21.3-15.3
		C339.2,209,342.9,203.9,346.9,198.3z"/>
	<path class="st0" d="M275.8,722.1c5.3,7.3,10.2,14.2,15.3,21.3c-5.3,3.9-10.2,7.5-15.7,11.4c-5.2-7-10.2-13.9-15.6-21.1
		C265.3,729.8,270.3,726.1,275.8,722.1z"/>
	<path class="st0" d="M606.6,297.5c4,5.4,7.7,10.4,11.6,15.8c-7.1,5.2-13.9,10.2-21.2,15.6c-3.8-5.2-7.4-10.2-11.5-15.8
		C592.5,307.9,599.3,302.9,606.6,297.5z"/>
	<path class="st0" d="M724.5,692.8c6.3,2.1,12.1,4.1,18.5,6.3c-2.7,8.3-5.3,16.4-8,24.8c-6.3-2-12.1-3.9-18.7-6.1
		C719,709.6,721.6,701.5,724.5,692.8z"/>
	<path class="st0" d="M685.6,571.7c7.3,5.2,14.1,10.2,21.3,15.4c-3.9,5.4-7.6,10.4-11.6,15.9c-7.1-5.2-14-10.3-21.1-15.5
		C678,582.2,681.6,577.2,685.6,571.7z"/>
	<path class="st0" d="M495.3,38.7c-3.8,5.4-7.5,10.4-11.4,15.9c-7.1-5.2-14-10.2-21.3-15.5c4-5.4,7.7-10.4,11.6-15.7
		C481.4,28.5,488.2,33.5,495.3,38.7z"/>
	<path class="st0" d="M523.8,616c5.2-7.2,10.2-14,15.3-21.1c5.4,3.9,10.5,7.5,15.9,11.4c-5.2,7.1-10.2,14-15.5,21.3
		C534.2,623.6,529.2,619.9,523.8,616z"/>
	<path class="st0" d="M316,587.5c-7.1,5.2-14,10.2-21.2,15.5c-3.8-5.2-7.5-10.3-11.5-15.9c6.9-5,13.7-10,21.1-15.5
		C308.2,576.9,312,582,316,587.5z"/>
	<path class="st0" d="M443.1,587.1c-4,5.6-7.5,10.5-11.4,15.9c-7.1-5.2-14-10.2-21.3-15.6c3.9-5.3,7.6-10.3,11.6-15.7
		C429.1,576.9,435.9,581.8,443.1,587.1z"/>
	<path class="st0" d="M55.7,469.2c-5.4,3.9-10.4,7.5-15.8,11.4c-5.3-7.1-10.3-13.9-15.6-21c5.4-3.9,10.4-7.6,16-11.6
		C45.4,454.9,50.4,461.8,55.7,469.2z"/>
	<path class="st0" d="M356.6,23.3c4.1,5.6,7.7,10.5,11.5,15.8c-7.1,5.2-13.9,10.2-21.2,15.5c-3.8-5.3-7.4-10.4-11.4-15.9
		C342.6,33.5,349.4,28.6,356.6,23.3z"/>
	<path class="st0" d="M114.9,282.8c8.4,0,16.7,0,25.3,0c0,6.2,0,12.4,0,19.1c-8.2,0-16.6,0-25.3,0
		C114.9,295.9,114.9,289.7,114.9,282.8z"/>
	<path class="st0" d="M678.3,283c0,6.4,0,12.5,0,19c-8.5,0-16.8,0-25.6,0c0-6.1,0-12.3,0-19C661.1,283,669.4,283,678.3,283z"/>
	<path class="st0" d="M744.5,662.3c0,8.4,0,16.7,0,25.4c-6.1,0-12.3,0-18.9,0c0-8.3,0-16.6,0-25.4
		C731.8,662.3,738,662.3,744.5,662.3z"/>
	<path class="st0" d="M264.4,687.8c-6.5,0-12.6,0-18.9,0c0-8.6,0-17,0-25.6c6.4,0,12.4,0,18.9,0
		C264.4,670.7,264.4,679.1,264.4,687.8z"/>
</g>
</svg>
