<?xml version="1.0" encoding="utf-8"?>
<!-- Generator: Adobe Illustrator 22.0.1, SVG Export Plug-In . SVG Version: 6.00 Build 0)  -->
<svg version="1.1" id="Layer_1" xmlns="http://www.w3.org/2000/svg" xmlns:xlink="http://www.w3.org/1999/xlink" x="0px" y="0px"
	 viewBox="0 0 800 457" style="enable-background:new 0 0 800 457;" xml:space="preserve">
<style type="text/css">
	.st0{fill:#7C7C7C;}
</style>
<g id="Ebene_x0020_1">
	<g id="_130202704">
		<path id="_23028896" class="st0" d="M410,259.9h-12.7v-5.4c0-5.6,1.6-15.6,2.7-21.5c1.8-10.1,0-11.3,3.5-20.7
			c1-2.6,2.9-6.2,3.7-8.4c0.9-2.7,0.7-6.7,1.9-10.2c1.7-5.2,5.4-13.6,5.8-19c1.7,0.5,6,3.9,8.7,5.2c3.6,1.8,6.1,2.9,9.9,4.6
			c7.6,3.6,4.4,12.6,7.2,21.8c2.7,8.9,4.7,12.7,9.7,19.4c3.4,4.6,9.8,12.1,11.1,17.9c-1.9,0.5-8.5,4.3-11.3,5.6
			c-3.8,1.8-7.7,3.6-11.9,5C432,256.3,417.5,259.9,410,259.9L410,259.9z M282.4,163.8c3.9-0.3,5-3,9.7-3h1.8
			c5.1,0,13.5,10.3,29,10.3h5.4c10.9,0,36.9-8.2,38.7-7.9l13.3,1.9l5,0l-0.7,13.9l-0.2,1.2l1.4,13.9v4.8c0,11-6.7,20.1-6.7,27.2
			l-0.5,6.7l4.1,25.9h-2.4c-8.6,0-29.3-8.6-35.9-11.9c-9.4-4.7-21-13.3-28.1-20.3c-8.2-8.2-15.3-16.6-21.1-27.3
			C291.1,191.6,282.7,174.6,282.4,163.8L282.4,163.8z M461.4,160.8c8.2,0.2,16.2,6.6,24.8,6.6l5.5,0.1l26-4.3
			c0,8.8-9.3,29.7-13.1,35.9c-3.4,5.6-16.9,26.2-22,27.6c-2.3-9.9-8.6-24.2-9.7-33.8c-0.7-6.3-0.3-14.1-2.8-19
			C467,167.8,463.7,165.1,461.4,160.8L461.4,160.8z M416.5,138.5l0.1-3.6c3,0.7,13,7.3,16.1,9.3c7.6,5.1,7.5,5.7,13.1,12.3
			c4.5,5.3,7.9,8.2,12.4,13c4.7,4.9,6,9.9,6.2,19.2c0.1,9.6,7.9,31.7,10.8,40c5.2,14.8,15.1,16.2,34.6,16.2
			c-1.7,2.3-12.8,6.4-16.5,7.6c-3.8,1.3-6.5,1.1-10,2.1c-2.4,0.7-6.1,3.5-8.6,3.5h-0.6c-2.9,0-3.2-11.4-4-14.1
			c-1.9-6.4-2.9-7.7-6.1-12.6c-5.2-7.8-10.8-12.9-14.1-22.8c-1.9-5.6-2.1-8-3.3-14.8c-1.3-7.2,0.3-9.8-5-13.8
			c-1-0.7-24.1-13.1-24.2-13.2L416.5,138.5L416.5,138.5z M294.4,136c10.8,5.1,17.5-0.5,23.7-4.8c6.7-4.7,13.4-7.3,24.8-7.3h1.8
			c11.7,0,23.7,17,33.9,22.4c0.1,5.2,4,7.2,6,10.3c-15.3,0-13.1-3.4-28.2,0.8c-8.4,2.4-17.7,5.2-28.1,5.2h-5.4
			c-16.4,0-20.1-10.3-28.4-10.3h-4.8c-4.2,0-6.7,4.2-12.1,4.2h-6c-6.2,0-9.7-7.1-9.7-13.9v-1.2c0-12.3,7-15.1,19.4-15.1
			c0.9-0.6,2.2-1.8,3.6-1.8c1.5,0,1.8,1,3,1.8l4.8,0l2.4,1.2l0.1,1.8L294.4,136L294.4,136z M418.4,122.7c7.5,0,18,2.3,23.7,4.2
			c3.7,1.2,7,1.9,10.6,3.3c6.5,2.6,4.4,1.4,11.5,3c7.6,1.7,9.6,6.5,22,6.4c10.5-0.1,16.4,2.4,26,2.4h10.9c12,0,16.4-23.2,19.9-24.2
			l1.3,15.1c0.2,1.9-1.6,7.6-1.8,10.3c-0.3,4.7,0.4,7.8-0.6,12.1c-4.1,0-10.2-2.1-12.2-2.3l-40.4,6.5c-5.6,0.9-23.5-7.9-35.7-7.9
			c-3.6-2.4-11.7-10.2-15.9-13.7c-3.1-2.6-15-10.7-19.2-11L418.4,122.7L418.4,122.7z M282.4,114.3c0-7.5,12.7-36.5,16.9-39.3
			c17.3,4,10.6,8.4,16.9,21.2c1.9,3.9,5,8.4,8,11.3c2.5,2.5,8.7,7.1,10.1,9.2c-14.8,0-25.3,12.1-28.4,12.1h-2.4c0-4.8-2.9-7.6-6.1-9
			c-1.5-0.6-10.2-3.7-11.4-3.7h-3.6L282.4,114.3L282.4,114.3z M390,58.1c0-1.4,0.4-1.8,1.8-1.8c4.7,0,9.1,5.8,9.1,11.5l0.2,4.9
			l-1.4,12.1l0.2,0.6l2.2,29.6v4.2c0,6.3-1.4,22-0.5,26.5c0.5,2.3,10.2,11.1,10.2,17c0,1.4-0.4,1.8-1.8,1.8c-1.4,0-1.8-1.2-4.2-1.8
			c1,1.9,3,9.1,3,12.1v1.8c0,1.4-1.6,3-3,3h-1.2c-7.6,0-13.9-10.8-13.9-16.9V156c0-1.4,0.4-1.8,1.8-1.8c3.3,0,0.4,20.9,12.1,21.2
			c0-7-3.9-11.7-2.4-18.1l3.3-0.2l-7.4-9.5l-0.7-7.2c-0.7-6.4,1.2-15.6,1.2-23v-3c0-0.5-1.6-8.6-1.8-10.3c-0.4-3.1-0.1-8.7,0-12.1
			c0-4.1-1.1-6.9-0.6-11.4c0.4-3.6,1.2-6.6,1.2-10.9C397.3,59.9,390,60.4,390,58.1L390,58.1z M294.5,55.7v-0.6
			c0-6.8,8.3-16.3,15.1-16.3h0.6c4.8,0,8.4,2.3,11,4.7c5,4.6,8.3,1.9,8.3,8c1.2,0.8,4.2,3.1,4.2,4.8v0.6c0,4.3-12.7,5.9-12.7,9.1
			v1.2c0,1.4,0.4,1.8,1.8,1.8c3.7,0,5.5-1.7,8.5-2.4c6.8,12.8,13.4,5.5,25.8,10.5c8.5,3.4,13.8,12.4,22,14.3
			c0.7,8.7,4.8,9.7,4.8,22.4c-4-2.1-5.6-5.3-9-8c-3.2-2.5-7.5-4.2-10.6-7c-3.8-3.4-13.2-15.9-19.2-15.9H341c-2,0-7.9,1.8-7.9,4.2
			v2.4c0,1.7,2.1,3,3.6,3c1,0,3.3-1.8,6.7-1.8c3.9,0,14.4,13.4,18.7,16.3c4.2,2.8,6.4,3.6,10.1,7.4c2.1,2.1,7,6.9,9.8,7.7
			c-0.4,4.6-4.8,6.7-4.8,13.9c-4-2.7-6.7-6.4-10.1-9.8c-3.7-3.7-8.4-4.6-13.3-7.3c-6.9-3.8-19.4-11.5-24.6-16.6
			c-11.1-11-5.8-17.5-12.8-27.7C311.5,67,294.5,68.8,294.5,55.7L294.5,55.7z M374.9,65.3l-0.2,0.6l1.5,13.9
			c-2.3-0.6-9.6-7.9-14.8-10c-4.7-1.9-14.7-3.9-20.9-3.9c-0.4-1.6-0.6-1.1-0.6-2.4c0-0.8,1.8-1.3,1.8-4.2v-2.4
			c0-4.8-2.6-6.1-3.5-9.2c-1.9-6.2-4.1-5.1-4.9-8.4c2.9-0.7,16.1-8.8,21.7-11c5.5-2.2,19.1-7,26.1-7.2c1,4.1,4.2,6.6,4.2,11.5v1.8
			C385.2,44.3,374.9,51.1,374.9,65.3L374.9,65.3z M415.4,21.2c27.4,0,58.3,22,72.2,36.6c15.2,16,32.4,46.3,32.4,77
			c-9.2,0-18.4-3-26-3c-10.1,0-17.1-1.5-24.4-4.6c-5.8-2.5-6.6-1.4-11.5-3c-3.9-1.3-6.8-2.8-10.7-3.8c-7.8-2-14.6-4.8-24.8-4.8h-3
			V98.6c0-6.5-2.4-22.8-3.9-28.8c-1.6-6.5-12.5-20.2-12.5-20.8v-1.8c0-2.6,1.2-2.2,1.2-4.8v-3c-2.1-0.2-8.5-3.6-8.5-4.8
			c0-1.4,0.4-1.8,1.8-1.8c1.8,0,6.8,4.8,12.1,4.8h1.2c1.4,0,1.3-0.5,2.4-1.2c0-4.5,1.2-4,1.2-6.6v-2.4h1.8v-2.4
			C416.6,22.6,415.9,24.7,415.4,21.2L415.4,21.2z M401.5,0.1h-10.3c-7.7,4.9-8.7,1.5-11.5,13.3c-7.7,0-23.7,6-29.7,8.4
			c-9.3,3.6-17.1,8.9-24.7,14c-3.6-2.4-8.7-5.4-14.5-5.4c-11.4,0-24.8,13.2-24.8,24.8c0,7.5,3.9,10.3,6.7,14.5
			c-6.8,10.1-18.1,33.8-19.4,49c-11.6,1-20,10-20,22.4v4.8c0,9.3,6.4,15.1,13.5,17.9c9.3,3.8,5.7-2.4,8.4,7.3
			c1.1,4.1,2.5,7.8,3.9,11.9c4.6,14,14.2,30.7,23.1,40.4c10.1,11.1,20.7,20.9,34.4,28.5c10.2,5.6,33.1,15.5,48,15.5v2.4
			c0,4.6-1.8,7.4-1.8,9.7v3c0,4.3,7.3,2.4,10.9,2.4l0.6-0.2l10.2,1.4l3,0.1l15.1-0.7c0.3-0.5,1.2-1.5,1.2-1.8c0-1.4-0.5-1.3-1.2-2.4
			c-7,0-21.3-8.3-23.6-12.7c27.7,0,46.6-7.4,64.7-16.9c0.6,6.7,2.8,15.1,9.7,15.1h1.8c3,0,8.4-3.8,10.9-4.8
			c3.6-1.3,8.9-1.6,13.2-3.2c6.1-2.2,18.2-6.1,18.2-13.8v-1.2c0-3.1-2.7-5.9-5.3-6.8c-3.3-1.1-7.1,0.1-11,0.1
			c-4.9,0-9.3-1.5-13.3-2.4c0.2-2.7,10-11.8,12.3-14.9c4.1-5.4,8.2-10.4,11.3-16.6c8-15.8,9.9-21.5,14.5-41.1h4.8
			c3.5,0,5.9,1.8,10.3,1.8c10.6,0,9.1-11.8,9.1-20.5v-1.8c0-2.6,1.2-2.2,1.2-4.8v-10.3c0-6.9-1.5-17.5-8.5-17.5h-2.4
			c-8.5,0-6.5,14.8-13.3,19.3c0-29.8-20.6-62.6-35.8-77.8c-9.7-9.7-19.8-17.9-32.5-24.3c-9-4.6-30.6-13.3-43.5-13.3h-1.8
			C410.9,1.1,408.4,4.8,401.5,0.1L401.5,0.1z"/>
		<polygon id="_49038600" class="st0" points="679.1,363.9 714.7,363.9 714.7,340.3 679.1,340.3 		"/>
		<path id="_48609656" class="st0" d="M800,452.7v-24.8c-6,1.4-8.5,4.2-17.5,4.2h-1.8c-10.1,0-18.1-7.9-18.1-18.7v-0.6
			c0-11.2,8-19.3,18.7-19.3c7.2,0,14.1,3.5,18.7,3.6v-23c-10.1-2.4-14.5-3.6-27.8-3.6h-4.8c-27.9,0-47.8,14.4-47.8,42.3
			c0,27.8,20.7,43.5,48.4,43.5h14.5C787.4,456.3,796.6,453,800,452.7L800,452.7z"/>
		<path id="_49038992" class="st0" d="M524.3,431.6c-7,0-11.5-6.1-11.5-12.7v-11.5c0-7.7,3.7-13.9,11.5-13.9
			c9.5,0,11.5,9.2,11.5,18.7v3C535.8,423.6,532.6,431.6,524.3,431.6L524.3,431.6z M518.8,456.9h11.5c2.2-1.4,6.2-0.9,9.3-1.5
			c3.2-0.7,5.2-1.7,7.7-2.6c6.9-2.6,8.1-3.7,13.5-7.7c6.8-5.1,13.1-17,13.1-28.6V408c0-11-7.4-21.5-13.7-26.8
			c-4.4-3.7-6.9-5-12.8-7.2c-2.4-0.9-13-4.2-15.8-4.2h-8.5c-9.8,0-17.6,2.8-24.7,5.5c-9.1,3.5-10.7,9.1-16.4,13.2v-15.7
			c-1.9-0.2-2.1-0.6-4.2-0.6h-3.6c-6,0-11.7,4.4-15,7.4c-3.6,3.1-8.4,11.6-9.8,12.6v-19.9h-33.9v82.2h33.9v-32
			c0-9.8,12.9-20.5,24.8-20.5h2.4l-0.7,6.6l0.1,10.9c0,11.4,7.3,21.5,13.8,26.7c4.6,3.6,7.1,4.6,13,6.9
			C505.1,454.1,518.8,456.9,518.8,456.9L518.8,456.9z"/>
		<path id="_49104680" class="st0" d="M613.2,406.8c0-4.2,2.2-10.3,6.7-10.3h2.4c11.5,0,4.3,28.4,7.3,38c3.2,10.2,11.5,20,24.7,20
			h60.5v-82.2h-35.7v58H670c-6.9,0-4.8-10.8-4.8-17.5c0-7.3,0.4-15.4-0.7-21.7c-1.6-9.5-12.6-20.6-23.5-20.6h-4.8
			c-6.2,0-10.8,3.3-14.4,6.2c-3.3,2.8-7.4,11.1-8.6,11.9v-16.3h-33.9v82.2h33.9L613.2,406.8L613.2,406.8z"/>
		<path id="_49039048" class="st0" d="M267.9,411c0-7.2,2.8-17.5,9.7-17.5h4.2c6.1,0,9.7,9.4,9.7,15.7v6.6c0,7.4-4,15.7-11.5,15.7
			h-3C270.2,431.6,267.9,419,267.9,411L267.9,411z M180.8,405.6c0-5.8,4.9-13.9,10.3-13.9h3c5.3,0,10.9,7.8,10.9,12.7v3h-24.2
			L180.8,405.6L180.8,405.6z M0,451.5v3c8.7,0,17.3,0,26,0c15.8,0,10.5,1.2,12.9-13c1.3-7.7,1.7-15,3.1-22.9
			c1.1-6.2,3.1-16.6,3.3-22.7l0.6-0.2l15.1,58.8l29.6,0l15.8-58.6l8.5,58.6l37,0l-3.1-23c1.9,2.2,3.6,6.9,5.9,9.8
			c1.7,2.2,5.8,5.9,8.2,7.5c5.1,3.4,15.8,7.5,23.9,7.5h10.3c7,0,13.4-0.7,19.3-1.9c7.4-1.5,11-4.1,15.8-5.4v-19.9
			c-3.5,0.9-7.7,3.4-13.3,4.8c-4.4,1.1-10.9,1.8-16.3,1.8h-1.8c-11.4,0-20.6-3-20.6-14.5h55.6v2.4c0,13.7,15,32.6,28.4,32.6h3.6
			c14.4,0,24.5-7.8,27.2-19.3c4,4.6,4.3,8.2,10.2,12.8c6.3,4.9,11.7,4.5,15.8,7.1h11.5c0.6-0.4,13.2-2.2,15.7-3.1
			c1.5-0.5,13.3-5.4,13.4-5.4c0.3,0,6.2,4.5,8,5.3c1.7,0.7,8.8,2.6,10.7,2.6h6.7c4.7,0,21.2-2.2,21.2-5.4v-19.3h-8.5
			c-4.7,0-9.7-4-9.7-8.5v-28.4h18.1v-22.4H390v-32h-36.3v32h-13.9v21.8h13.9v26.6c0,6.2-4.9,13.5-10.9,12.7l-6-0.7
			c-3.1-4.6-6.1-2.9-6.1-13.2v-78.6h-35.7v42.3c-3.4-2.5-4.1-5.4-10.1-9.2c-3.1-1.9-10.2-4.1-15.2-4.1c-9.3,0-19.4,5.2-23.7,10.2
			c-2.4,2.8-5.1,6.7-6.6,10.3c-1.3,2.9-3.2,11.4-4.1,12.8c-4.2-18.2-17.4-33.2-39.3-33.2h-3c-23.4,0-47.2,15.2-47.2,36.9
			c-2.4-1.7-4.6-24.3-5.6-29.5c-0.7-3.7-2.7-29.2-5.9-29.2H90.7c-2.5,0-3.7,9.7-4.4,12.6c-0.7,3-2.7,9-3.6,12.7
			c-1.3,4.9-5.1,22.6-7.1,25.5c-1.7-7.5-4.2-19.1-6.6-26c-1.2-3.4-5.4-24.8-7.9-24.8H17.5c-2.9,0-4.4,21.3-5.1,25.1
			c-1.5,8.6-3.2,17.7-4,26.2C8,404.1,0.6,450.6,0,451.5L0,451.5z"/>
	</g>
</g>
</svg>
