<?xml version="1.0" encoding="utf-8"?>
<!-- Generator: Adobe Illustrator 23.0.1, SVG Export Plug-In . SVG Version: 6.00 Build 0)  -->
<svg version="1.1" id="Layer_1" xmlns="http://www.w3.org/2000/svg" xmlns:xlink="http://www.w3.org/1999/xlink" x="0px" y="0px"
	 viewBox="0 0 175.4 37.4" style="enable-background:new 0 0 175.4 37.4;" xml:space="preserve">
<style type="text/css">
	.st0{fill:#7B7B7B;}
</style>
<path class="st0" d="M175.3,33.1c-0.4,0.1-0.7,0.2-1,0.2c-1.1,0-1.7-0.5-1.7-1.9V20.7c0-5.6-4.5-8.3-9.7-8.3c-4,0-6.2,0.5-10.5,2.2
	l-1,5.6l5.6,0.6l0.8-2.8c1.1-0.6,2.3-0.7,3.7-0.7c4,0,4,3,4,5.5v0.8c-1.3-0.2-2.7-0.2-4-0.2c-5.6,0-11.4,1.4-11.4,7.4
	c0,5.1,4,7,7.5,7c4,0,6.5-2.4,7.9-4.9c0.3,3,2.1,4.9,5.4,4.9c1.5,0,3.1-0.4,4.4-1.1L175.3,33.1z M160.3,32.9c-2.1,0-2.9-1.3-2.9-2.8
	c0-2.7,2.2-3.4,4.7-3.4c1.1,0,2.4,0.2,3.5,0.3C165.4,31.1,162.8,32.9,160.3,32.9z M150.9,0l-10.6,37.4h-6.9L144,0H150.9z M136.7,0
	l-10.6,37.4h-6.9L129.8,0L136.7,0L136.7,0z M107.3,12.9h7.3v8.8h-7.3V12.9z M107.3,28.6h7.3v8.8h-7.3V28.6z M96.6,28.2l5.5,0.5
	l-1.5,8.6H79.2l-0.7-3.7L92,18.2h-7.7L83.2,22l-5-0.5l0.9-8.6h21.5l0.5,3.7L87.5,32h7.9L96.6,28.2z M61.5,12.4
	c-8.8,0-13.1,5.9-13.1,13.1c0,7.8,5.2,12.4,12.8,12.4c7.8,0,13.5-4.9,13.5-12.8C74.6,18.3,70.3,12.4,61.5,12.4z M61.3,32.5
	c-3.8,0-5.8-3.3-5.8-7.5c0-4.6,2.2-7.3,5.8-7.3c3.3,0,6,2.2,6,7.2C67.4,29.6,65,32.5,61.3,32.5z M42.1,32h3.3v5.3H35.1V23.6
	c0-4.2-1.4-5.9-4.2-5.9c-3.4,0-4.7,2.4-4.7,5.8V32h3.3v5.3H19.2V23.6c0-4.2-1.4-5.9-4.2-5.9c-3.4,0-4.7,2.4-4.7,5.8V32h4.7v5.3H0V32
	h3.3V18.2H0v-5.3h10.3v3.7c1.5-2.6,4-4.2,7.4-4.2c3.5,0,6.8,1.7,8,5.3c1.4-3.3,4.1-5.3,8-5.3c4.4,0,8.4,2.7,8.4,8.5L42.1,32L42.1,32
	z"/>
</svg>
