<?xml version="1.0" encoding="utf-8"?>
<!-- Generator: Adobe Illustrator 22.0.1, SVG Export Plug-In . SVG Version: 6.00 Build 0)  -->
<svg version="1.1" id="Layer_1" xmlns="http://www.w3.org/2000/svg" xmlns:xlink="http://www.w3.org/1999/xlink" x="0px" y="0px"
	 viewBox="0 0 479.2 396.3" style="enable-background:new 0 0 479.2 396.3;" xml:space="preserve">
<style type="text/css">
	.st0{fill:#7C7C7C;}
</style>
<g>
	<path class="st0" d="M477,6c0,26.3,0,52.5,0,78.8c-7.5,0-15,0-22.6,0c0-6,0-11.9,0-18c-11,0-21.8,0-32.8,0c0,6,0,11.9,0,18
		c-7.6,0-15,0-22.5,0c0-26.3,0-52.5,0-78.8C425.1,6,451,6,477,6z M421.6,28.6c0,5.2,0,10.3,0,15.4c10.9,0,21.8,0,32.7,0
		c0-5.2,0-10.3,0-15.4C443.4,28.6,432.6,28.6,421.6,28.6z"/>
	<path class="st0" d="M438,360.6c-5.5-5.5-10.9-10.9-16.4-16.4c0,15.6,0,31,0,46.5c-7.6,0-15,0-22.5,0c0-26.2,0-52.5,0-78.9
		c0.4,0,0.8-0.1,1.2-0.1c6.7,0,13.4,0,20.2,0c0.6,0,1.4,0.3,1.9,0.8c4.9,4.9,9.8,9.9,14.7,14.9c0.3,0.3,0.5,0.7,0.7,1
		c2.1-2,4-3.7,5.8-5.6c3.5-3.5,6.9-7,10.4-10.5c0.3-0.3,0.8-0.6,1.2-0.6c7.1,0,14.2,0,21.4,0c0.2,0,0.3,0.1,0.5,0.1
		c0,26.3,0,52.5,0,78.9c-7.5,0-15,0-22.6,0c0-15.5,0-30.9,0-46.3C449,349.9,443.6,355.2,438,360.6z"/>
	<path class="st0" d="M5.3,84.8c0-26.3,0-52.5,0-78.8c26,0,51.9,0,77.9,0c0,20.2,0,40.4,0,60.8c-18.5,0-36.9,0-55.4,0
		c0,6.1,0,12,0,18.1C20.3,84.8,12.9,84.8,5.3,84.8z M27.9,28.6c0,5.2,0,10.3,0,15.4c11,0,21.9,0,32.7,0c0-5.2,0-10.3,0-15.4
		C49.7,28.6,38.8,28.6,27.9,28.6z"/>
	<path class="st0" d="M83.3,390.8c-7.5,0-14.9,0-22.5,0c0-15.4,0-30.8,0-46.2c-5.4,5.4-10.8,10.8-16.2,16.3
		c-5.7-5.7-11.1-11-16.7-16.6c0,15.6,0,31,0,46.5c-7.6,0-15,0-22.5,0c0-26.3,0-52.5,0-78.9c0.3,0,0.7-0.1,1.1-0.1
		c6.8,0,13.6,0,20.4,0c0.6,0,1.3,0.3,1.7,0.8c4.9,5,9.8,10,14.7,14.9c0.3,0.3,0.5,0.6,0.8,0.9c1.9-1.8,3.6-3.5,5.4-5.2
		c3.6-3.6,7.2-7.3,10.8-10.9c0.3-0.3,0.8-0.5,1.1-0.5c7,0,14.1,0,21.1,0c0.2,0,0.5,0.1,0.7,0.1C83.3,338.2,83.3,364.4,83.3,390.8z"
		/>
	<path class="st0" d="M95.8,258.8c4.2,0,8.3,0,12.4,0c0.3,0,0.8,0.5,0.9,0.9c2.6,8.6,5.1,17.1,7.6,25.7c0.1,0.4,0.2,0.8,0.4,1.5
		c0.6-2.3,1.1-4.3,1.6-6.3c1.9-7,3.9-13.9,5.9-20.8c0.1-0.4,0.6-0.9,0.9-0.9c4.2-0.1,8.4,0,12.7,0c0,13.3,0,26.6,0,39.9
		c-2.8,0-5.7,0-8.5,0c0-9.6,0-19.1,0-28.6c-0.1,0-0.1,0-0.2,0c-0.5,1.8-1,3.5-1.5,5.3c-2.1,7.4-4.2,14.8-6.3,22.2
		c-0.3,0.9-0.6,1.3-1.6,1.2c-1.9-0.1-3.8-0.1-5.8,0c-1,0-1.4-0.3-1.7-1.3c-2.6-8.9-5.4-17.8-8-26.7c-0.1-0.2-0.1-0.4-0.3-0.6
		c0,9.5,0,18.9,0,28.4c-2.8,0-5.6,0-8.4,0C95.8,285.5,95.8,272.2,95.8,258.8z"/>
	<path class="st0" d="M104.2,240.8c-2.9,0-5.6,0-8.4,0c0-13.3,0-26.6,0-39.9c4.3,0,8.6,0,12.9,0c2.8,9.2,5.5,18.5,8.3,27.7
		c0.1,0,0.2,0,0.2,0c2.7-9.2,5.4-18.5,8.1-27.7c4.5,0,8.9,0,13.4,0c0,13.3,0,26.6,0,39.9c-2.9,0-5.7,0-8.6,0c0-9.7,0-19.4,0-29
		c-0.1,0-0.1,0-0.2,0c-1,3.2-1.9,6.5-2.9,9.7c-1.8,6.1-3.6,12.2-5.4,18.3c-0.3,0.9-0.6,1.2-1.6,1.2c-2-0.1-3.9-0.1-5.9,0
		c-0.9,0-1.2-0.3-1.5-1.1c-2.6-9-5.3-18-8-27c-0.1-0.4-0.2-0.7-0.5-1C104.2,221.4,104.2,231,104.2,240.8z"/>
	<path class="st0" d="M200.5,298.8c-2.9,0-5.5,0-8.3,0c0-9.5,0-19,0-28.6c2.6,0,5.2,0,7.9,0c0,1.2,0,2.5,0,3.9
		c6.4-6.5,12.2-6.5,16.1-0.2c1.6-1.2,3.1-2.5,4.9-3.5c2.2-1.2,4.6-1.4,7-0.8c4,0.9,5.9,3.7,6.6,7.5c0.2,1,0.2,2,0.3,3
		c0,5.8,0,11.6,0,17.4c0,0.4,0,0.9,0,1.4c-2.8,0-5.5,0-8.4,0c0-0.5,0-0.9,0-1.3c0-5,0-10.1,0-15.1c0-0.7,0-1.4-0.1-2
		c-0.2-2-1.3-3.3-3-3.8c-1.8-0.5-3.9,0.1-4.8,1.7c-0.6,1.2-1.1,2.6-1.1,3.9c-0.1,5-0.1,10-0.1,15c0,0.5,0,1,0,1.5c-2.7,0-5.3,0-8,0
		c0-0.5,0-0.9,0-1.3c0-5.5,0-11,0-16.6c0-1.7-0.6-3.3-2.3-4c-1.7-0.8-3.4-0.6-4.8,0.6c-1.2,1-1.8,2.3-1.8,3.8
		c-0.1,4-0.1,7.9-0.1,11.9C200.5,294.9,200.5,296.8,200.5,298.8z"/>
	<path class="st0" d="M299.6,240.8c-2.6,0-5.1,0-7.8,0c0-0.5-0.1-0.9-0.1-1.4c0-5.5,0.1-11-0.1-16.6c-0.1-3.1-1.6-4.7-4.1-4.7
		c-2.5-0.1-4.5,1.9-4.8,4.7c-0.1,0.8,0,1.5,0,2.3c0,4.9,0,9.8,0,14.8c0,0.3,0,0.5-0.1,0.9c-2.8,0-5.4,0-8.2,0c0-9.5,0-19,0-28.6
		c2.6,0,5.2,0,7.8,0c0,1.3,0,2.5,0,4.1c2.2-3.1,5-4.7,8.5-4.9c3.7-0.3,6.2,1.7,7.8,4.9c1.3-1.8,2.9-3.2,4.9-4.1
		c2-0.9,4.2-1.1,6.3-0.7c4.3,0.8,7.1,4,7.2,8.9c0.2,6.7,0.1,13.4,0.1,20c0,0.1-0.1,0.2-0.1,0.4c-2.7,0-5.4,0-8.2,0
		c0-0.5,0-0.9,0-1.3c0-5.6,0-11.2,0-16.8c0-3.4-2.6-5.3-5.6-4.3c-2,0.6-2.9,2.2-3.3,4.2c-0.1,0.7-0.1,1.4-0.1,2c0,5,0,9.9,0,14.9
		C299.6,239.9,299.6,240.3,299.6,240.8z"/>
	<path class="st0" d="M90.8,182.9c1.1-3.1,2.2-6.1,3.2-9c3.6-10,7.2-19.9,10.7-29.9c0.3-0.9,0.8-1.2,1.7-1.2c2.7,0.1,5.4,0,8,0
		c0.7,0,1,0.2,1.3,0.9c4.6,12.8,9.2,25.5,13.8,38.3c0.1,0.3,0.1,0.5,0.2,0.9c-3,0-6,0-8.9,0c-0.3,0-0.6-0.5-0.8-0.9
		c-0.6-1.8-1.2-3.6-1.7-5.5c-0.2-0.7-0.6-0.9-1.3-0.9c-4.6,0-9.2,0-13.8,0c-0.7,0-1,0.2-1.3,0.9c-0.6,2.1-1.3,4.2-2,6.3
		C97,182.9,94,182.9,90.8,182.9z M110.1,151.6c-1.8,5.6-3.7,11.2-5.5,16.9c3.8,0,7.3,0,11,0C113.7,162.8,111.9,157.2,110.1,151.6z"
		/>
	<path class="st0" d="M95.7,85c0.1-0.1,0.2-0.1,0.3-0.1c6.4,0.1,12.9-0.1,19.3,0.3c5.5,0.3,9.6,3.3,11.3,8.6
		c1.7,5.3,1,10.4-3.3,14.5c-2.6,2.4-5.8,3.3-9.2,3.3c-2.7,0-5.4,0-8.2,0c-0.4,0-0.9,0-1.4,0c0,4.5,0,8.8,0,13.3c-3,0-5.8,0-8.8,0
		C95.7,111.6,95.7,98.3,95.7,85z M104.5,103.7c3.2,0,6.2,0.2,9.2,0c3.6-0.3,5.5-3.5,4.4-7c-0.7-2.2-2.5-3.3-5.4-3.3
		c-2.5,0-5,0-7.4,0c-0.3,0-0.5,0.1-0.8,0.1C104.5,96.9,104.5,100.3,104.5,103.7z"/>
	<path class="st0" d="M214.4,113c-7,0-13.7,0-20.5,0c0.1,1.8,0.5,3.2,1.6,4.5c2,2.3,7.6,2.6,9.4-0.5c0.1-0.2,0.4-0.6,0.7-0.6
		c2.7,0,5.4,0,8.3,0c-1,3.2-2.8,5.6-5.5,7.4c-5,3.3-14.8,3.1-19.5-2.2c-2.1-2.4-3.3-5.1-3.6-8.2c-0.6-5,0.2-9.7,3.8-13.5
		c4.1-4.2,9.2-5.2,14.7-3.8c5.5,1.5,8.6,5.4,9.9,10.8C214,108.8,214.1,110.8,214.4,113z M194,107.5c3.8,0,7.5,0,11.2,0
		c-0.1-3.1-2.4-5.4-5.4-5.4C196.6,102,194.1,104.3,194,107.5z"/>
	<path class="st0" d="M159.1,113c-6.9,0-13.6,0-20.3,0c-0.1,2.8,1.5,5.1,3.8,5.9c2.9,0.9,5.6,0.2,7.2-2c0.2-0.2,0.5-0.5,0.8-0.5
		c2.6,0,5.3,0,8.1,0c-0.2,0.5-0.3,0.9-0.4,1.3c-2.3,5.5-7.8,8.7-14.3,8.2c-4.2-0.3-7.9-1.5-10.7-4.8c-5.7-6.8-4.1-18.6,3.1-23.3
		c7-4.5,19.9-2.8,22.2,9.9c0.2,1.2,0.3,2.5,0.5,3.7C159.1,111.8,159.1,112.3,159.1,113z M150,107.5c-0.1-3.3-2.7-5.7-5.8-5.5
		c-3,0.2-5.5,2.8-5.2,5.5C142.6,107.5,146.2,107.5,150,107.5z"/>
	<path class="st0" d="M236.4,228.9c-7.1,0-13.8,0-20.6,0c0.3,5.5,4.4,6.8,8.1,5.9c1-0.2,2-0.9,2.6-1.7c0.6-0.6,1-0.9,1.9-0.9
		c2.4,0.1,4.8,0,7.4,0c-0.2,0.5-0.3,1-0.5,1.4c-2,4.3-5.3,7-10.1,7.8c-2.8,0.4-5.7,0.4-8.4-0.4c-4.1-1.2-7.1-3.8-8.6-7.8
		c-2.1-5.8-1.9-11.5,2-16.5c3.7-4.8,8.9-6.1,14.6-5c5.6,1.1,9.1,4.8,10.6,10.3C236,224.1,236.1,226.4,236.4,228.9z M227.2,223.3
		c-0.6-3.5-2.7-5.5-5.7-5.5c-3.1,0.1-5.3,2.2-5.6,5.5C219.7,223.3,223.4,223.3,227.2,223.3z"/>
	<path class="st0" d="M160.3,279.2c0.3-4.2,2.3-7.1,6.1-8.6c4.4-1.8,8.8-1.8,13.2-0.2c3.5,1.3,5.5,3.9,5.7,7.6
		c0.2,5.5,0.1,11.1,0.3,16.7c0,1.3,0.4,2.6,0.6,4.1c-0.2,0-0.7,0-1.1,0c-1.7,0-3.4-0.1-5,0c-1.2,0.1-1.7-0.4-1.9-1.4
		c-0.1-0.5-0.2-1-0.4-1.6c-1.4,1.6-3,2.8-5,3.3c-3.2,0.8-6.4,0.9-9.4-0.6c-2.9-1.4-4.1-3.9-4.3-7.1c-0.1-3.3,1-5.9,4-7.6
		c2.8-1.5,5.9-1.8,9-2.3c1.7-0.3,3.3-0.5,5-0.8c0.3-0.1,0.7-0.5,0.7-0.8c0.2-2.4-1.1-4-3.5-4.3c-3.1-0.3-4.5,0.5-5.6,3.6
		C165.9,279.2,163.2,279.2,160.3,279.2z M177.6,285.7c-2.7,0.6-5.4,1.1-8.1,1.7c-0.4,0.1-0.7,0.4-1,0.6c-1.2,0.8-1.4,2-1.1,3.3
		c0.2,1.2,1,1.8,2.2,2.1C173.9,294.7,178.5,290.6,177.6,285.7z"/>
	<path class="st0" d="M145.9,212.2c2.7,0,5.4,0,8.3,0c0,0.5,0,1,0,1.5c0,5.2,0,10.4,0,15.6c0,0.3,0,0.6,0,0.8
		c0.2,3.2,1.6,4.7,4.2,4.7c2.9,0,5-1.9,5.2-4.8c0.1-1.8,0.1-3.6,0.1-5.4c0-4.1,0-8.1,0-12.3c2.8,0,5.5,0,8.3,0c0,9.5,0,18.9,0,28.5
		c-2.6,0-5.2,0-7.9,0c0-1,0-2,0-3.4c-0.6,0.6-1,1-1.4,1.4c-3.1,3.1-6.8,3.6-10.7,2.3c-3.8-1.3-5.8-4.4-6-8.2
		C145.8,226.1,145.9,219.2,145.9,212.2z"/>
	<path class="st0" d="M267.5,240.8c-2.7,0-5.3,0-8,0c0-1.1,0-2.1,0-3.4c-0.4,0.5-0.7,0.7-0.9,1c-3.5,3.9-9.7,4.5-13.7,1.4
		c-2.4-1.9-3.5-4.5-3.6-7.4c-0.1-6.7,0-13.3,0-20.1c2.8,0,5.5,0,8.3,0c0,0.5,0,0.9,0,1.4c0,5.1,0,10.2,0,15.4c0,0.4,0,0.8,0,1.2
		c0.1,2.8,1.5,4.5,3.8,4.7c2.8,0.2,5-1.4,5.5-4c0.2-0.8,0.2-1.6,0.2-2.4c0-4.9,0-9.8,0-14.6c0-0.5,0-1,0-1.5c2.8,0,5.5,0,8.3,0
		C267.5,221.8,267.5,231.2,267.5,240.8z"/>
	<path class="st0" d="M202.5,220.5c-2.5,0-5.1,0-7.6,0c-0.2,0-0.6-0.4-0.6-0.6c-0.9-2.6-5.3-3.7-7.3-1.8c-1.2,1.1-0.9,2.9,0.7,3.5
		c2,0.7,4.1,1,6.1,1.6c1.5,0.4,3,0.7,4.5,1.3c3.2,1.2,5,3.5,5.3,6.9c0.2,3.5-1,6.5-4.1,8.4c-3.1,1.9-6.6,2.2-10.2,2
		c-2.9-0.2-5.7-0.8-8.1-2.6c-2.5-1.8-3.8-4.4-4-7.6c2.7,0,5.4,0,8,0c0.2,0,0.5,0.4,0.6,0.7c1,3.3,5.7,4.8,8.3,2.6
		c1.4-1.2,1.2-3.3-0.6-4c-1.9-0.7-4-1-6-1.5c-1.7-0.4-3.4-0.8-5-1.5c-5.8-2.3-5.7-10.7-1.5-13.9c1.9-1.4,4-2.2,6.4-2.5
		c3.3-0.4,6.5-0.2,9.7,1.1C200.4,214,202.6,217.1,202.5,220.5z"/>
	<path class="st0" d="M228,117.9c4.9,0,9.5,0,14.1,0c0,2.4,0,4.6,0,7c-8.1,0-16.2,0-24.4,0c0-2.2,0-4.4,0-6.5c0-0.3,0.4-0.7,0.7-1
		c3.9-4.4,7.9-8.7,11.8-13c0.2-0.3,0.5-0.5,0.8-1c-4.3,0-8.3,0-12.5,0c0-2.4,0-4.6,0-6.9c7.7,0,15.4,0,23.3,0c0,2,0,4,0,6
		c0,0.4-0.4,0.8-0.6,1.1c-4.1,4.5-8.3,9.1-12.5,13.6C228.5,117.3,228.4,117.5,228,117.9z"/>
	<path class="st0" d="M158.8,160c-1.3,0-2.5,0-3.7,0c0-1.9,0-3.8,0-5.7c1.2,0,2.4,0,3.7,0c0-3,0-6,0-9c2.8,0,5.5,0,8.4,0
		c0,2.9,0,5.9,0,9c1.8,0,3.4,0,5.1,0c0,1.9,0,3.8,0,5.8c-1.6,0-3.3,0-5,0c0,0.5-0.1,0.9-0.1,1.3c0,3.9,0,7.8,0,11.8
		c0,2.5,0.9,3.3,3.4,3.2c0.6,0,1.1-0.1,1.8-0.1c0,2.2,0,4.2,0,6.3c0,0.2-0.4,0.5-0.6,0.6c-2.8,0.4-5.6,0.6-8.3-0.2
		c-2.9-0.9-4.5-3.1-4.6-6.3c-0.1-5,0-9.9-0.1-14.9C158.8,161.1,158.8,160.6,158.8,160z"/>
	<path class="st0" d="M134,154.3c2.6,0,5.2,0,7.9,0c0,1.4,0,2.8,0,4.1c2.4-3.5,5.5-5.2,9.8-4.4c0,2.7,0,5.3,0,7.9
		c-0.7,0-1.3-0.1-1.8-0.1c-4.4,0-7.3,2.6-7.4,7c-0.1,4.2-0.1,8.4-0.1,12.6c0,0.5,0,0.9,0,1.5c-2.8,0-5.5,0-8.3,0
		C134,173.4,134,163.9,134,154.3z"/>
	<path class="st0" d="M164.5,96.4c2.6,0,5.2,0,7.9,0c0,1.4,0,2.7,0,4c0.1,0,0.2,0.1,0.2,0.1c0.3-0.4,0.5-0.7,0.8-1.1
		c1.9-2.7,4.6-3.9,7.9-3.5c0.3,0,0.9,0.5,0.9,0.7c0.1,2.4,0,4.8,0,7.3c-0.5,0-1,0-1.4-0.1c-4.7-0.3-7.8,2.4-7.9,7.1
		c-0.1,4.2-0.1,8.4-0.1,12.6c0,0.4,0,0.9,0,1.4c-2.8,0-5.5,0-8.3,0C164.5,115.5,164.5,106,164.5,96.4z"/>
	<path class="st0" d="M153.8,270.2c0,9.6,0,19,0,28.5c-2.7,0-5.4,0-8.2,0c0-9.5,0-19,0-28.5C148.3,270.2,151,270.2,153.8,270.2z"/>
	<path class="st0" d="M241.7,270.2c2.8,0,5.5,0,8.2,0c0,9.5,0,19,0,28.6c-2.7,0-5.5,0-8.2,0C241.7,289.2,241.7,279.8,241.7,270.2z"
		/>
	<path class="st0" d="M139.7,92.6c2.1-2.6,3.9-5,5.8-7.3c0.2-0.3,0.7-0.6,1.1-0.6c2.6-0.1,5.3,0,8.2,0c-0.7,0.8-1.3,1.4-1.8,2.1
		c-1.3,1.4-2.7,2.7-3.9,4.2c-1.1,1.4-2.4,1.9-4.1,1.7C143.2,92.5,141.6,92.6,139.7,92.6z"/>
	<path class="st0" d="M145.6,258.9c2.8,0,5.4,0,8.2,0c0,2.4,0,4.8,0,7.3c-2.7,0-5.4,0-8.2,0C145.6,263.8,145.6,261.4,145.6,258.9z"
		/>
	<path class="st0" d="M241.7,266.2c0-2.5,0-4.8,0-7.3c2.8,0,5.5,0,8.3,0c0,2.4,0,4.8,0,7.3C247.2,266.2,244.5,266.2,241.7,266.2z"/>
	<path class="st0" d="M508.7-34.4"/>
	<path class="st0" d="M438,36.3"/>
</g>
</svg>
