<?xml version="1.0" encoding="utf-8"?>
<!-- Generator: Adobe Illustrator 22.0.1, SVG Export Plug-In . SVG Version: 6.00 Build 0)  -->
<svg version="1.1" id="Layer_1" xmlns="http://www.w3.org/2000/svg" xmlns:xlink="http://www.w3.org/1999/xlink" x="0px" y="0px"
	 viewBox="0 0 192 38.6" style="enable-background:new 0 0 192 38.6;" xml:space="preserve">
<style type="text/css">
	.st0{fill-rule:evenodd;clip-rule:evenodd;fill:#7C7C7C;}
</style>
<g>
	<path class="st0" d="M39.2,19.6c-0.3,0-1.1,0-1.1,0c-2,0-3.7,1.5-3.7,3.6c0,1.7,0.5,3.6,2.7,3.6c1.9,0,2.3-1.5,2.3-3.1v-3.8
		C39.3,19.9,39.4,19.6,39.2,19.6L39.2,19.6z M97.3,38.2h-4c-2.9-0.3-5.4-1.4-5.4-4.1c0-1.9,2.2-3.3,4-3.6c0,0,0.5-0.1,0-0.1
		c-0.6-0.1-4.1-0.4-5.2-0.1c0,0-0.3,0-0.4-0.3c-0.1-0.3-0.8-2-0.9-2.2c-0.1-0.3,0.1-0.4,0.1-0.4c2.6-0.4,4.8-1.7,5.9-2
		c0.6-0.1,0-0.3,0-0.3c-3.6-0.6-7.1-3.1-7.1-7.3c0-6,5-8.7,9.7-8.7c2.2,0,3.4,0.4,4.6,0.5c0,0,0.1,0.1,0.3-0.1
		c0-0.4,0.4-1.4,0.4-1.4c0.5-1.5,1.3-2.2,3.6-2.2c0.5,0,1,0,1.4,0.1c0,0,0.3-0.1,0.3,0.3c-0.1,0.1-0.9,3.2-0.9,3.3
		c-0.1,0.4-0.3,0.1-0.3,0.1c-0.4-0.3-0.5-0.4-1.4-0.3c-0.5,0-0.8,0.4-0.8,0.9c0,0.9,4.1,2.2,4.1,7c0,6.5-6,7.9-11.2,9.2
		c0,0-0.5,0.1,0,0.1c3.4,0.4,10.6,1.3,10.6,5.7C104.5,36.4,100.3,37.8,97.3,38.2L97.3,38.2z M47.3,27.9c0.3,0,0.8,0,1,0
		c0.3,0,0.3,0.3,0.3,0.3s0,1.8,0,2c0,0.4-0.4,0.3-0.4,0.3c-1.4,0-8.2,0-8.2,0s-0.1,0-0.1-0.3c-0.1-0.5-0.4-1-0.4-1.4
		c-0.1-0.5-0.4,0-0.4,0c-1.7,1.3-3.6,2.3-5.9,2.3c-3.8,0-6.8-2.4-6.8-6.4c0-4.8,3.1-7.5,6.9-7.5l5.9-0.3c0,0,0,0,0-0.3
		c0-0.1,0-0.6,0-0.6c0-1.7-0.9-2.4-2.8-2.4c-2.4,0-3.6,0.9-4.7,2.3c0,0,0,0.1-0.3,0.1c-0.3-0.1-2.3-0.9-2.3-0.9s-0.3,0-0.1-0.3
		c0.1-0.3,2.7-6.4,2.7-6.4s0-0.3,0.1-0.1C32.3,8.5,33.8,9,34.2,9c0.3,0.1,0.1,0.4,0.1,0.4s-0.1,0.3-0.3,0.5
		c-0.1,0.5,0.1,0.3,0.1,0.3c1.7-0.6,3.3-0.9,5-0.9c4.8,0,8,2,8,7v11.2C47.2,27.5,47.2,27.9,47.3,27.9L47.3,27.9z M47.9,10.8
		c3.3-0.9,6.1-3.1,7.5-6.1c0,0,0-0.1,0.3-0.1c0.3,0,1.9,0.4,2.2,0.4c0.3,0.1,0.1,0.3,0.1,0.3c-0.1,1-0.3,2.2-0.3,3.1
		c0,0,0,1.3,0,1.5c0,0.3,0.3,0.1,0.3,0.1s3.3,0,3.4,0c0.3,0,0.1,0.3,0.1,0.3S61,12.7,61,13c-0.1,0.3-0.3,0.3-0.3,0.3s-2.6,0-2.8,0
		c-0.3,0-0.3,0.1-0.3,0.1v11.9c0,1.4,1.1,1.7,1.8,1.7c0.6,0,0.8,0,1.3-0.3c0,0,0.3-0.3,0.3,0c0.1,0.3,0.8,1.9,0.9,2.2
		c0.1,0.1-0.1,0.3-0.1,0.3c-2.7,1.9-2.9,2-6.5,2c-4,0-5.4-1.9-5.4-5.5V13.3c0,0,0-0.1-0.3-0.1c-0.4,0-1.8,0-1.8,0s-0.1,0-0.1-0.3
		c0-0.5,0-1.7,0-1.9C47.7,10.9,47.9,10.8,47.9,10.8L47.9,10.8z M106,20.1c0-6.6,5.2-10.8,12.1-10.8c6.9,0,12.2,4.2,12.2,10.8
		c0,6.9-5.4,11-12.2,11C111.2,31.1,106,27,106,20.1L106,20.1z M113.9,17.2c0,3.1,1.3,10.7,5.6,10.7c2.3,0,2.9-2.4,2.9-4.7
		c0-3.1-1.3-10.7-5.7-10.7C113.9,12.5,113.9,15.6,113.9,17.2L113.9,17.2z M154.6,30.4h-10.7c0,0-0.1,0-0.1-0.1c0-0.3,0-2,0-2.2
		c0-0.3,0.3-0.3,0.3-0.3s1,0,1.3,0c0.1,0,0.1-0.1,0.1-0.1V16.2c0-1.3-1.1-1.8-2.3-1.8c-1.4,0-2.4,0.6-3.4,1.5c0,0-0.1,0.1-0.1,0.3
		c0,0.3,0,11.6,0,11.6s0,0.1,0.1,0.1c0.3,0,1.4,0,1.4,0s0.1,0,0.1,0.3c0,0.3,0,2,0,2.2c0,0.1-0.1,0.1-0.1,0.1h-10.7
		c0,0-0.1,0.1-0.1-0.3c0-0.1,0-1.9,0-2c0-0.3,0.1-0.3,0.1-0.3s1,0,1.1,0c0.3,0,0.1-0.1,0.1-0.1V14.1c0,0,0.1-0.3-0.1-0.3
		c-0.4,0.1-1.1,0.4-1.1,0.4s-0.1,0.1-0.1-0.1c0-0.3,0-1.9,0-2.2c0-0.3,0.1-0.1,0.1-0.1l9.1-2.4c0,0,0.3-0.1,0.3,0.1
		c0,0.1,0,2.7,0,2.9c0,0.4,0.1,0.1,0.1,0.1c2.2-1.7,4.3-3.3,7.3-3.3c5.5,0,6.2,3.7,6.2,6v12.5c0,0-0.1,0.1,0.1,0.1
		c0.1,0,1.1,0,1.1,0s0.1,0,0.1,0.3c0,0.3,0,1.9,0,2C154.7,30.6,154.6,30.4,154.6,30.4L154.6,30.4z M165.4,9.4l-9.1,2.4
		c0,0-0.1,0-0.1,0.3c0,0.1,0,1.8,0,2c0,0.3,0.3,0.1,0.3,0.1s0.6-0.1,1.1-0.3c0.3,0,0.1,0.3,0.1,0.4c0,0.3,0,13.4,0,13.4
		s0.1,0.1-0.1,0.1s-1.3,0-1.3,0s-0.3,0-0.3,0.3c0,0.3,0,1.9,0,2.2c0,0.3,0.3,0.1,0.3,0.1s10.2,0,10.6,0c0.3,0,0.1-0.3,0.1-0.3
		s0-1.7,0-2c0-0.3-0.3-0.3-0.3-0.3s-0.6,0-1,0c-0.3,0-0.1-0.1-0.1-0.1s0-18,0-18.2C165.7,9.3,165.4,9.4,165.4,9.4L165.4,9.4z
		 M162.2,3c1.8,0,3.8,0.5,3.8,2.7c0,2.6-3.4,3.6-5.6,3.6c-1.8,0-2.9-0.9-2.9-2.7C157.5,4.5,160.3,3,162.2,3L162.2,3z M74.6,19.6
		c-0.3,0-1,0-1,0c-2.2,0-3.7,1.5-3.7,3.6c0,1.7,0.5,3.6,2.6,3.6c2,0,2.4-1.5,2.4-3.1v-3.8C74.9,19.9,74.9,19.6,74.6,19.6L74.6,19.6z
		 M82.9,27.9c0.3,0,0.8,0,0.9,0c0.4,0,0.4,0.3,0.4,0.3s0,1.8,0,2c0,0.4-0.4,0.3-0.4,0.3c-1.5,0-8.2,0-8.2,0s-0.1,0-0.3-0.3
		c-0.1-0.5-0.3-1-0.3-1.4c-0.1-0.5-0.4,0-0.4,0c-1.8,1.3-3.6,2.3-5.9,2.3c-4,0-6.9-2.4-6.9-6.4c0-4.8,3.2-7.7,7-7.7l5.7-0.1
		c0,0,0.1,0,0.1-0.3c0-0.1,0-0.6,0-0.6c0-1.7-0.9-2.4-2.8-2.4c-2.4,0-3.6,0.9-4.7,2.3c0,0-0.1,0.1-0.3,0c-0.3,0-2.4-0.8-2.4-0.8
		s-0.1,0,0-0.3c0.1-0.3,2.6-6.4,2.6-6.4s0-0.3,0.3-0.1C67.7,8.5,69.4,9,69.7,9c0.3,0.1,0.1,0.4,0.1,0.4s0,0.3-0.1,0.5
		c-0.3,0.5,0.1,0.3,0.1,0.3c1.7-0.6,3.3-0.9,5-0.9c4.8,0,8,2,8,7v11.2C82.8,27.5,82.7,27.9,82.9,27.9L82.9,27.9z M91.3,14.8
		c0,2.3,1.3,8.5,4.5,8.5c1.7,0,2.3-0.8,2.3-2.8c0-2.3-1.4-8.5-4.6-8.5C92,11.9,91.3,12.7,91.3,14.8L91.3,14.8z M94.7,31.5
		c-0.4,0.4-0.6,1.8-0.6,2.7c0,1,0.5,2.2,1.8,2.2c1,0,1.7-0.5,1.7-1.5c0-1.9-1.1-2.6-2.6-3.4C94.9,31.3,94.8,31.3,94.7,31.5
		L94.7,31.5z M179.7,19.6c-0.3,0-1,0-1,0c-2.2,0-3.7,1.5-3.7,3.6c0,1.7,0.5,3.6,2.6,3.6c2,0,2.4-1.5,2.4-3.1v-3.8
		C180,19.9,180,19.6,179.7,19.6L179.7,19.6z M188,27.9c0.3,0,0.8,0,1,0s0.3,0.3,0.3,0.3s0,1.8,0,2c0,0.4-0.4,0.3-0.4,0.3
		c-1.5,0-8.2,0-8.2,0s-0.1,0-0.3-0.3c-0.1-0.5-0.3-1-0.3-1.4c-0.1-0.5-0.4,0-0.4,0c-1.8,1.3-3.6,2.3-5.9,2.3c-4,0-6.9-2.4-6.9-6.4
		c0-4.8,3.2-7.7,7-7.7l5.7-0.1c0,0,0.1,0,0.1-0.3c0-0.1,0-0.6,0-0.6c0-1.7-0.9-2.4-2.8-2.4c-2.4,0-3.6,0.9-4.7,2.3
		c0,0-0.1,0.1-0.3,0c-0.3,0-2.3-0.8-2.3-0.8s-0.3,0-0.1-0.3c0.1-0.3,2.6-6.4,2.6-6.4s0-0.3,0.3-0.1c0.3,0.1,1.9,0.6,2.2,0.6
		c0.3,0.1,0.3,0.4,0.3,0.4s-0.1,0.3-0.3,0.5c-0.3,0.5,0.1,0.3,0.1,0.3c1.7-0.6,3.3-0.9,5-0.9c4.8,0,8,2,8,7v11.2
		C187.9,27.5,187.9,27.9,188,27.9L188,27.9z M12.3,14.2c0,0.3,0,10.3,0,10.3c0,1.8,0.6,3.3,2.7,3.3c2.6,0,3.7-1.5,3.7-6.2
		c0-7.5-3.8-7.9-5.1-7.9l-1,0.1C12.5,13.9,12.3,14,12.3,14.2L12.3,14.2z M12.4,11.2c1.9-1.1,3.3-1.9,5.2-1.9c5,0,8.9,4.1,8.9,10.1
		c0,5.9-3.7,11.7-10.1,11.7c-1.3,0-2.9-0.1-4.1-0.8c0,0-0.1,0-0.1,0.1c0,0.3,0,3.7,0,3.7s0,0.3,0.3,0.3c0.3,0,2.3,0,2.3,0
		s0.3,0,0.3,0.3c0,0.5,0,1.8,0,2c0,0.1-0.3,0.3-0.3,0.3H3.2c0,0-0.4,0-0.4-0.3c0,0,0,0,0,0c0,0,0,0,0,0c0,0,0,0,0,0c0,0,0,0,0,0
		c0,0,0,0,0,0c0,0,0,0,0,0c0,0,0,0,0,0c0,0,0,0,0,0c0,0,0,0,0,0s0,0,0,0c0,0,0,0,0,0c0,0,0,0,0,0c0,0,0,0,0,0s0,0,0,0c0,0,0,0,0,0
		s0,0,0,0c0,0,0,0,0,0c0,0,0,0,0,0c0,0,0,0,0,0c0,0,0,0,0,0c0,0,0,0,0,0c0,0,0,0,0,0c0,0,0,0,0,0c0,0,0,0,0,0c0,0,0,0,0,0
		c0,0,0,0,0,0c0,0,0,0,0,0c0,0,0,0,0,0c0,0,0,0,0,0s0,0,0,0c0,0,0,0,0,0c0,0,0,0,0,0c0,0,0,0,0,0s0,0,0,0c0,0,0,0,0,0c0,0,0,0,0,0
		c0,0,0,0,0,0c0,0,0,0,0,0c0,0,0,0,0,0c0,0,0,0,0,0c0,0,0,0,0,0c0,0,0,0,0,0c0,0,0,0,0,0c0,0,0,0,0,0c0,0,0,0,0,0c0,0,0,0,0,0
		s0,0,0,0s0,0,0,0c0,0,0,0,0,0s0,0,0,0c0,0,0,0,0,0c0,0,0,0,0,0c0,0,0,0,0,0c0,0,0,0,0,0c0,0,0,0,0,0c0,0,0,0,0,0c0,0,0,0,0,0
		c0,0,0,0,0,0c0,0,0,0,0,0c0,0,0,0,0,0c0,0,0,0,0,0c0,0,0,0,0,0c0,0,0,0,0,0c0,0,0,0,0,0c0-0.3,0.3-0.3,0.3-0.3s0.8,0,1,0
		c0.3,0,0.3-0.3,0.3-0.3s0-19.8,0-20c0-0.3-0.3-0.1-0.3-0.1l-1,0.3c0,0-0.3,0-0.3-0.3c0,0,0,0,0,0c0,0,0,0,0,0c0,0,0,0,0,0
		c0,0,0,0,0,0c0,0,0,0,0,0c0,0,0,0,0,0c0,0,0,0,0,0c0,0,0,0,0,0c0,0,0,0,0,0c0,0,0,0,0,0c0,0,0,0,0,0c0,0,0,0,0,0c0,0,0,0,0,0
		c0,0,0,0,0,0c0,0,0,0,0,0c0,0,0,0,0,0c0,0,0,0,0,0c0,0,0,0,0,0c0,0,0,0,0,0c0,0,0,0,0,0c0,0,0,0,0,0c0,0,0,0,0,0c0,0,0,0,0,0
		s0,0,0,0c0,0,0,0,0,0c0,0,0,0,0,0c0,0,0,0,0,0c0,0,0,0,0,0c0,0,0,0,0,0c0,0,0,0,0,0c0,0,0,0,0,0c0,0,0,0,0,0c0,0,0,0,0,0
		c0,0,0,0,0,0c0,0,0,0,0,0c0,0,0,0,0,0c0,0,0,0,0,0c0,0,0,0,0,0c0,0,0,0,0,0c0,0,0,0,0,0c0,0,0,0,0,0c0,0,0,0,0,0c0,0,0,0,0,0
		c0,0,0,0,0,0s0,0,0,0c0,0,0,0,0,0c0,0,0,0,0,0s0,0,0,0c0,0,0,0,0,0c0,0,0,0,0,0c0,0,0,0,0,0c0,0,0,0,0,0c0,0,0,0,0,0c0,0,0,0,0,0
		c0,0,0,0,0,0c0,0,0,0,0,0c0,0,0,0,0,0c0,0,0,0,0,0c0,0,0,0,0,0c0,0,0,0,0,0c0,0,0,0,0,0c0,0,0,0,0,0c0,0,0,0,0,0c0,0,0,0,0,0
		c0-0.3,0.3-0.3,0.3-0.3L12,9.4c0,0,0.3-0.1,0.3,0.1c0,0.3,0,1.4,0,1.5C12.3,11.3,12.4,11.2,12.4,11.2L12.4,11.2z"/>
	<path class="st0" d="M184.3,4.2c0-1.5,1.3-2.8,2.8-2.8c1.5,0,2.8,1.3,2.8,2.8c0,1.7-1.3,2.9-2.8,2.9C185.6,7.1,184.3,5.8,184.3,4.2
		L184.3,4.2z M189.5,4.2c0-1.3-1-2.4-2.4-2.4c-1.4,0-2.6,1.1-2.6,2.4c0,1.4,1.1,2.6,2.6,2.6C188.5,6.7,189.5,5.6,189.5,4.2
		L189.5,4.2z M188.5,5.8H188l-0.9-1.5h-0.6v1.5h-0.4V2.6h1.3c0.3,0,0.6,0,0.8,0.1c0.3,0.1,0.4,0.5,0.4,0.8c0,0.5-0.4,0.8-1,0.8
		L188.5,5.8L188.5,5.8z M187,4c0.5,0,1.1,0.1,1.1-0.5c0-0.5-0.4-0.6-0.8-0.6h-0.9V4H187L187,4z"/>
</g>
</svg>
