<?xml version="1.0" encoding="utf-8"?>
<!-- Generator: Adobe Illustrator 22.0.1, SVG Export Plug-In . SVG Version: 6.00 Build 0)  -->
<svg version="1.1"
	 id="svg36" inkscape:export-filename="C:\Users\Martín\Documents\Verizon.png" inkscape:export-xdpi="300" inkscape:export-ydpi="300" inkscape:version="0.92.3 (2405546, 2018-03-11)" sodipodi:docname="Verizon.svg" xmlns:cc="http://creativecommons.org/ns#" xmlns:dc="http://purl.org/dc/elements/1.1/" xmlns:inkscape="http://www.inkscape.org/namespaces/inkscape" xmlns:rdf="http://www.w3.org/1999/02/22-rdf-syntax-ns#" xmlns:sodipodi="http://sodipodi.sourceforge.net/DTD/sodipodi-0.dtd" xmlns:svg="http://www.w3.org/2000/svg"
	 xmlns="http://www.w3.org/2000/svg" xmlns:xlink="http://www.w3.org/1999/xlink" x="0px" y="0px" viewBox="0 0 283.2 165.4"
	 style="enable-background:new 0 0 283.2 165.4;" xml:space="preserve">
<style type="text/css">
	.st0{fill:#7B7B7B;}
	.st1{fill:url(#path18_1_);}
	.st2{fill:url(#path20_1_);}
</style>
<sodipodi:namedview  bordercolor="#666666" borderopacity="1" gridtolerance="10" guidetolerance="10" id="namedview38" inkscape:current-layer="svg36" inkscape:cx="2083.5" inkscape:cy="1157.5" inkscape:pageopacity="0" inkscape:pageshadow="2" inkscape:window-height="745" inkscape:window-maximized="1" inkscape:window-width="1366" inkscape:window-x="-8" inkscape:window-y="-8" inkscape:zoom="0.20926326" objecttolerance="10" pagecolor="#ffffff" showgrid="false">
	</sodipodi:namedview>
<g id="g22">
	<g id="g14">
		<path id="path2" class="st0" d="M58.1,111.4H42.8l-10,21.5l-2.4-21.5H16.9l5.3,37h16.4C38.6,148.4,58.1,111.4,58.1,111.4z"/>
		<path id="path4" class="st0" d="M94.2,133.4c0.5-2,0.8-3.9,0.8-6.4c0-5.8-1.5-9.9-4.6-12.6c-3-2.8-8.3-4.4-14.2-4.4
			c-6.2,0-11.5,1.8-15.6,5.3c-4.9,4.3-7.8,10.9-7.8,17.8c0,10.8,6.7,16.6,19.2,16.6c10.8,0,17.8-4.3,20.8-12.6H78.4
			c-1.3,1.9-3,2.7-5.4,2.7c-3.5,0-6-2.1-6-4.9l0.1-1.5H94.2z M68.7,125.4c1.5-4,3.9-5.8,7.9-5.8c2.9,0,4.8,1.7,4.8,4.4
			c0,0.4,0,0.7-0.2,1.4H68.7z"/>
		<path id="path6" class="st0" d="M101.7,111.3l-7.9,37.1h14.7l3.2-14.9c0.9-4.4,1.9-6.7,3.8-8.3c1.5-1.3,3.6-2.1,5.7-2.1
			c1,0,1.7,0.2,3.3,0.6l2.9-13.2c-1.4-0.4-2.1-0.5-3-0.5c-4.2,0-6.7,1.9-10.4,7.6l0.4-6.3C114.3,111.3,101.7,111.3,101.7,111.3z"/>
		<path id="path8" class="st0" d="M129.3,111.3l-7.9,37.1h14.9l7.9-37.1C144.2,111.3,129.3,111.3,129.3,111.3z M132.4,96.7l-2.1,9.8
			h14.9l2.1-9.8H132.4z"/>
		<path id="path10" class="st0" d="M203.3,109.9c-5.9,0-11.1,1.5-14.9,4.5c-5.6,4.3-9.1,12.2-9.1,19.9c0,9.7,7.1,15.3,19.4,15.3
			c7.1,0,12.2-1.5,16.2-5c5.1-4.3,8.1-11,8.1-18.3c0-5.2-1.4-8.9-4.3-11.6C215.3,111.9,209.2,109.9,203.3,109.9L203.3,109.9z
			 M203,119.9c3.1,0,5.4,2.4,5.4,5.7c0,3.5-1.5,7.8-3.6,11c-1.4,1.9-3.6,3.2-5.6,3.2c-3,0-5.1-2.2-5.1-5.5c0-3.3,1.2-7.3,3.1-10.6
			C198.8,121.1,200.5,119.9,203,119.9L203,119.9z"/>
		<path id="path12" class="st0" d="M229.1,111.3l-7.9,37.1h14.5l3.3-15.7c1.8-8.3,4.5-11.8,9.2-11.8c2.6,0,4,1.5,4,4
			c0,0.8-0.1,1.3-0.4,2.6l-4.4,20.8H262l4.4-20.8c1.1-5.2,1.3-6.5,1.3-8.5c0-5.7-4.4-9.1-11.5-9.1c-3.4,0-7.1,1.1-9.7,2.9
			c-1.2,0.9-2.2,1.6-4.2,3.6l1.2-5.3H229.1L229.1,111.3z"/>
	</g>
	<path id="path16" class="st0" d="M39.5,91.6l3.9-1.4l2.5,6.9l-10.8,3.9L0,4.6l6.9-2.5L39.5,91.6L39.5,91.6z"/>
	
		<linearGradient id="path18_1_" gradientUnits="userSpaceOnUse" x1="-1.874953e-06" y1="362.0811" x2="1" y2="362.0811" gradientTransform="matrix(256.4859 0 0 -98.983 31.4915 35891.4453)">
		<stop  offset="0" style="stop-color:#7B7B7B"/>
		<stop  offset="1" style="stop-color:#FFFFFF"/>
	</linearGradient>
	<path id="path18" class="st1" d="M39.5,91.6L285.5,2.1L288,9l-252.9,92l-3.6-9.9l6.9-2.5L39.5,91.6L39.5,91.6z"/>
	
		<linearGradient id="path20_1_" gradientUnits="userSpaceOnUse" x1="-6.246073e-07" y1="362.0811" x2="1" y2="362.0811" gradientTransform="matrix(121.5668 0 0 -50.4086 138.8081 18388.873)">
		<stop  offset="0" style="stop-color:#7B7B7B"/>
		<stop  offset="1" style="stop-color:#7B7B7B;stop-opacity:0"/>
	</linearGradient>
	<path id="path20" class="st2" d="M138.8,162.1l1.7-9.3l23.1-30.5h-18.1l1.9-10.6H182l-1.7,9.3l-23.3,30.5h103.3l-1.9,10.6H175
		L138.8,162.1L138.8,162.1z"/>
</g>
</svg>
