<?xml version="1.0" encoding="utf-8"?>
<!-- Generator: Adobe Illustrator 22.0.1, SVG Export Plug-In . SVG Version: 6.00 Build 0)  -->
<svg version="1.1" id="Layer_1" xmlns="http://www.w3.org/2000/svg" xmlns:xlink="http://www.w3.org/1999/xlink" x="0px" y="0px"
	 viewBox="0 0 452.4 195.2" style="enable-background:new 0 0 452.4 195.2;" xml:space="preserve">
<style type="text/css">
	.st0{fill-rule:evenodd;clip-rule:evenodd;fill:#7B7B7B;}
	.st1{fill:#7B7B7B;}
</style>
<g>
	<path class="st0" d="M226.8,140.8c-35.5,0-53.9-7.8-64.9-26.3c-6.2-10.6-8.4-29.6-8.4-41.9c0-12.2,2.2-31.2,8.4-41.9
		c11-18.4,29.5-26.3,64.9-26.3c35.5,0,53.9,7.8,64.9,26.3c6.2,10.6,8.4,29.6,8.4,41.9c0,12.2-2.2,31.2-8.4,41.9
		C280.7,132.9,262.3,140.8,226.8,140.8z M244.6,111.1c-4,0-9.8-1.8-12.6-8.2l-17.6-42.7c-3.8-9.6,3.6-18.6,12.2-18.6
		c4,0,9.8,1.8,12.6,8.2l17.6,42.7C260.7,102.1,253.3,111.1,244.6,111.1z M209.2,111.1c-4,0-9.8-1.8-12.6-8.2l-17.6-42.7
		c-3.8-9.6,3.6-18.6,12.2-18.6c4,0,9.8,1.8,12.6,8.2l17.6,42.7C225.2,102.1,217.8,111.1,209.2,111.1z M266.8,78.9
		c-4,0-9.8-1.8-12.6-8.2l-4.3-10.4c-3.8-9.6,3.6-18.6,12.2-18.6c4,0,9.8,1.8,12.6,8.2l4.3,10.4C282.8,69.9,275.4,78.9,266.8,78.9z"
		/>
	<path class="st1" d="M31.5,168.1l-7,21.9c-0.3,0.8-1.1,1.4-1.9,1.4c-0.8,0-1.5-0.5-1.8-1.3l-4.5-16l-4.5,16
		c-0.2,0.8-0.9,1.3-1.7,1.3c-0.8,0-1.6-0.5-1.9-1.4l-7-21.9c0-0.2-0.1-0.3-0.1-0.5c0-0.8,0.5-1.6,1.3-1.9c0.2-0.1,0.4-0.1,0.6-0.1
		c0.8,0,1.6,0.5,1.9,1.4l5.2,16.2l4.6-16.2c0.2-0.6,0.7-1.3,1.7-1.3c1.1,0,1.6,0.8,1.7,1.3l4.5,16.2l5.2-16.2c0.3-0.8,1-1.4,1.9-1.4
		c0.2,0,0.4,0,0.6,0.1c0.8,0.3,1.4,1,1.4,1.9C31.6,167.7,31.6,167.9,31.5,168.1z M55.7,191.2c-0.3,0.1-0.5,0.2-0.8,0.2
		c-0.7,0-1.4-0.4-1.7-1.1l-2.4-5.4H39.1l-2.4,5.4c-0.3,0.7-1.1,1.1-1.8,1.1c-0.3,0-0.5,0-0.8-0.2c-0.7-0.3-1.1-1-1.1-1.7
		c0-0.3,0-0.6,0.2-0.8l9.9-22c0.3-0.6,1-1.1,1.7-1.1c0.8,0,1.4,0.5,1.7,1.1l9.9,22c0.1,0.3,0.2,0.5,0.2,0.8
		C56.8,190.2,56.4,190.9,55.7,191.2z M44.9,171.9l-4.3,9.6h8.5L44.9,171.9z M78.2,179.8c0,0,0.2,0.3,4.3,8.7
		c0.2,0.3,0.2,0.5,0.2,0.8c0,0.8-0.4,1.5-1.1,1.8c-0.3,0.2-0.6,0.2-0.9,0.2c-0.8,0-1.4-0.4-1.8-1.1c-4.7-9.7-4.7-9.7-4.7-9.7h-7.8
		v8.9c0,1.1-0.9,2-2,2c-1.1,0-2-0.9-2-2v-21.5c0-1.1,0.9-2,2-2h9.9c4.7,0,8.5,2.3,8.5,7.3C82.8,176.3,81.2,178.8,78.2,179.8z
		 M74.8,169.6c-5.7,0-8.4,0-8.4,0v7.4h8.4c2.2,0,4-1.4,4-3.7C78.7,171.1,77,169.6,74.8,169.6z M108.6,191.4c-0.6,0-1.1-0.2-1.5-0.7
		l-13.3-17.9v16.7c0,1.1-0.9,1.9-1.9,1.9c-1.1,0-1.9-0.8-1.9-1.9v-22c0-1,0.8-1.9,2-1.9c0.6,0,1.1,0.3,1.4,0.7
		c0,0,7.5,10.4,13.3,17.9v-16.7c0-1.1,0.8-1.9,1.9-1.9c1.1,0,1.9,0.9,1.9,1.9v22C110.5,190.6,109.6,191.4,108.6,191.4z M135.1,191.1
		c-10.7,0-14.6,0-14.6,0c-1.1,0-2-0.9-2-2v-21.1c0-1.1,0.9-2,2-2h14c1.1,0,1.9,0.8,1.9,1.9c0,1.1-0.9,1.9-1.9,1.9h-12v6.6h6.7
		c1.1,0,1.9,0.8,1.9,1.9c0,1.1-0.8,1.9-1.9,1.9h-6.7v7.2h12.6c1.1,0,1.9,0.8,1.9,1.9C137,190.3,136.1,191.1,135.1,191.1z
		 M159.1,179.8c0,0,0.2,0.3,4.3,8.7c0.2,0.3,0.2,0.5,0.2,0.8c0,0.8-0.4,1.5-1.1,1.8c-0.3,0.2-0.6,0.2-0.9,0.2
		c-0.8,0-1.4-0.4-1.8-1.1c-4.7-9.7-4.7-9.7-4.7-9.7h-7.8v8.9c0,1.1-0.9,2-2,2c-1.1,0-2-0.9-2-2v-21.5c0-1.1,0.9-2,2-2h9.9
		c4.7,0,8.5,2.3,8.5,7.3C163.6,176.3,162,178.8,159.1,179.8z M155.6,169.6c-5.7,0-8.4,0-8.4,0v7.4h8.4c2.2,0,4-1.4,4-3.7
		C159.6,171.1,157.9,169.6,155.6,169.6z M204.9,191.4c-1.1,0-1.9-0.8-1.9-1.9v-14c-4.5,9.2-7,14.8-7,14.8c-0.3,0.7-0.9,1-1.6,1
		c-0.8,0-1.3-0.3-1.7-1.1l-7.1-14.8v13.9c0,1.1-0.9,1.9-1.9,1.9c-1.1,0-1.9-0.9-1.9-1.9v-22c0-1.1,0.8-1.9,1.9-1.9
		c0.8,0,1.4,0.5,1.8,1.2l8.9,18.6l8.8-18.6c0.3-0.7,0.9-1.2,1.7-1.2c1.1,0,1.9,0.9,1.9,1.9v22C206.8,190.6,206,191.4,204.9,191.4z
		 M224.2,191.6c-6.4,0-10.5-4.2-10.5-10.7v-13.3c0-1.1,0.9-2,2-2c1.1,0,2,0.9,2,2v13.8c0,3.8,2.3,6.4,6.5,6.4c4.2,0,6.4-2.6,6.4-6.4
		v-13.8c0-1.1,0.9-2,2-2c1.1,0,2,0.9,2,2v13.3C234.7,187.4,230.6,191.6,224.2,191.6z M412.4,191.6c-6.4,0-10.5-4.2-10.5-10.7v-13.3
		c0-1.1,0.9-2,2-2c1.1,0,2,0.9,2,2v13.8c0,3.8,2.3,6.4,6.5,6.4c4.2,0,6.4-2.6,6.4-6.4v-13.8c0-1.1,0.9-2,2-2c1.1,0,2,0.9,2,2v13.3
		C422.9,187.4,418.8,191.6,412.4,191.6z M269.6,191.4c-1.1,0-2-0.9-2-2v-21.7c0-1.1,0.9-2,2-2c1.1,0,2,0.9,2,2v21.7
		C271.6,190.5,270.8,191.4,269.6,191.4z M300.7,186.7c-2.3,2.9-6.1,4.8-9.9,4.8c-7.3,0-12.8-6-12.8-13.1c0-7.1,5.5-13,12.8-13
		c3.1,0,6.2,1.1,8.5,3.3c0.4,0.4,0.6,0.9,0.6,1.4c0,0.4-0.2,0.9-0.5,1.2c-0.3,0.4-0.8,0.6-1.3,0.6c-0.4,0-0.9-0.2-1.2-0.5
		c-1.8-1.5-3.5-2.3-6.1-2.3c-5.3,0-8.7,4.3-8.7,9.3c0,5,3.4,9.4,8.7,9.4c3.9,0,5.9-2,7.3-3.7c0.3-0.4,0.8-0.6,1.3-0.6
		c0.5,0,0.9,0.2,1.3,0.5c0.4,0.3,0.6,0.8,0.6,1.3C301.2,185.9,301,186.4,300.7,186.7z M339.1,186.9c-2.5,3.2-6.5,4.6-10.3,4.6
		c-7.3,0-12.8-5.9-12.8-13c0-7.1,5.6-13.1,12.8-13.1c3.2,0,6.4,1.1,8.6,3.2c0.5,0.4,0.7,1,0.7,1.5c0,0.4-0.1,0.7-0.4,1.1
		c-0.3,0.5-0.8,0.7-1.4,0.7c-0.4,0-0.8-0.1-1.2-0.4c-1.5-1.1-3.2-2.4-6.4-2.4c-5.3,0-8.8,4.4-8.8,9.4c0,5,3.5,9.3,8.8,9.3
		c2.5,0,5.1-0.9,6.7-2.7v-4.5h-5.6c-1,0-1.9-0.8-1.9-1.8c0-1,0.9-1.8,1.9-1.8h7.6c1.2,0,2,0.9,2,2v6.6
		C339.6,186.2,339.5,186.5,339.1,186.9z M362,179.8c0,0,0.2,0.3,4.3,8.7c0.2,0.3,0.2,0.5,0.2,0.8c0,0.8-0.4,1.5-1.1,1.8
		c-0.3,0.2-0.6,0.2-0.9,0.2c-0.8,0-1.4-0.4-1.8-1.1c-4.7-9.7-4.7-9.7-4.7-9.7h-7.8v8.9c0,1.1-0.9,2-2,2c-1.1,0-2-0.9-2-2v-21.5
		c0-1.1,0.9-2,2-2h9.9c4.7,0,8.5,2.3,8.5,7.3C366.6,176.3,365,178.8,362,179.8z M358.6,169.6c-5.7,0-8.4,0-8.4,0v7.4h8.4
		c2.2,0,4-1.4,4-3.7C362.6,171.1,360.8,169.6,358.6,169.6z M383.8,191.6c-7.3,0-12.8-6-12.8-13.1c0-7.1,5.6-13,12.8-13
		c7.3,0,12.8,5.9,12.8,13C396.6,185.6,391.1,191.6,383.8,191.6z M383.8,169.2c-5.3,0-8.8,4.3-8.8,9.3c0,5,3.5,9.3,8.8,9.3
		c5.3,0,8.7-4.3,8.7-9.3C392.6,173.5,389.1,169.2,383.8,169.2z M441.6,181h-7.7v8.3c0,1.1-0.9,2-2,2c-1.1,0-2-0.9-2-2v-21.5
		c0-1.1,0.9-2,2-2h9.8c5.9,0,8.5,3.6,8.5,7.6C450.1,177.5,447.5,181,441.6,181z M442.1,169.6c0,0-5.7,0-8.3,0v7.7c0,0,4.5,0,8.3,0
		c2.6,0,3.9-1.9,3.9-3.8C446.1,171.6,444.8,169.6,442.1,169.6z M257,170.5c-1.8-0.7-4-1.3-6.1-1.3c-2.5,0-5.8,0.5-5.8,3
		c0,2.8,5.2,3.9,8,4.9c4.1,1.4,7.9,2.6,7.9,7.2c0,5.5-5.1,7.4-10.1,7.4c-2.8,0-6.7-0.6-9.2-2.2c-0.7-0.4-0.9-1-0.9-1.7
		c0-1.2,0.9-1.8,1.8-1.8c0.6,0,1.3,0.4,1.3,0.4c2.5,1.2,4.8,1.6,7.1,1.6c2.5,0,6.1-0.6,6.1-3.5c0-3-4.5-3.4-9.2-5
		c-3.3-1.2-6.7-2.6-6.7-7.1c0-5.2,5.1-6.7,9.8-6.7c2.4,0,5.5,0.7,7.8,1.6c0.7,0.3,1.2,1,1.2,1.7c0,1-0.6,1.9-1.8,1.9
		C257.7,170.7,257.3,170.6,257,170.5z"/>
</g>
</svg>
