<?xml version="1.0" encoding="utf-8"?>
<!-- Generator: Adobe Illustrator 22.0.1, SVG Export Plug-In . SVG Version: 6.00 Build 0)  -->
<svg version="1.1" id="Layer_1" xmlns="http://www.w3.org/2000/svg" xmlns:xlink="http://www.w3.org/1999/xlink" x="0px" y="0px"
	 viewBox="0 0 432 144" style="enable-background:new 0 0 432 144;" xml:space="preserve">
<style type="text/css">
	.st0{fill:#7C7C7C;}
	.st1{fill-rule:evenodd;clip-rule:evenodd;fill:#7C7C7C;}
	.st2{fill:#FFFFFF;}
	.st3{clip-path:url(#SVGID_2_);fill:#FFFFFF;}
	.st4{clip-path:url(#SVGID_4_);fill:#FFFFFF;}
</style>
<g>
	<g>
		<g>
			<g>
				<path class="st0" d="M107.4,115.1h2c0.2-1.2,0.9-1.8,1.8-1.8c2.6,0,4.2,2.3,10.8,2.3c6.6,0,11.4-4.5,11.4-10.3
					c0-13-19.1-13.2-19.1-20.8c0-2.5,1.5-5.2,5.7-5.2c5,0,8.8,3.9,10.3,9.2h1.4V76.9h-1.4c-0.3,1.1-0.9,2-2,2c-2.4,0-4.4-2-9.9-2
					c-5.7,0-10.6,4.4-10.6,9.5c0,10.5,19.1,12.1,19.1,20.6c0,2.9-1.7,6.1-6.4,6.1c-5.4,0-10.1-5.1-11.7-10h-1.4V115.1"/>
				<path class="st1" d="M153.1,101.9c0,7.9-1.6,11.3-5.4,11.3c-3.9,0-5.4-3.4-5.4-11.3c0-7.9,1.6-11.2,5.4-11.2
					C151.6,90.7,153.1,94,153.1,101.9 M160,101.9c0-7.8-5-13.4-12.3-13.4c-7.3,0-12.3,5.7-12.3,13.4c0,7.8,5,13.4,12.3,13.4
					C155,115.4,160,109.7,160,101.9z"/>
				<path class="st0" d="M160.6,89.2v1.4c2.8,0.2,3.2,0.5,3.2,3.4v12.9c0,5.8,2.4,8.5,7.9,8.5c2.6,0,5.4-1.5,7.8-3.4v2.8
					c0,0.3,0.1,0.5,0.4,0.5c0.3,0,7.8-1.7,9.3-2V112c-2.5,0-3.2-0.5-3.2-3.2V89.2h-9.7v1.4c2.8,0.2,3.2,0.5,3.2,3.4v15.5
					c-1.6,1.1-3.4,2.2-5.9,2.2c-1.8,0-3.3-0.9-3.3-4.3V89.2H160.6"/>
				<path class="st0" d="M205.4,89.2h-6v-8.6h-1.7c-1,5.8-4.1,8.9-8,9.5v1.8h3.3V109c0,4.1,1.5,6.4,5.4,6.4c4,0,5.9-2.8,7.9-5.7
					l-1.1-1.1c-1.5,1.5-2.4,2.4-3.8,2.4c-1.4,0-2-1.1-2-3.2v-16h6V89.2"/>
				<path class="st0" d="M216.1,94.4c1.6-1.1,3.4-2.2,5.9-2.2c1.8,0,3.3,0.9,3.3,4.3v13.4c0,2.9-0.4,3.2-3.2,3.4v1.4h12.8v-1.4
					c-2.8-0.2-3.2-0.5-3.2-3.4V97c0-5.8-2.4-8.5-7.9-8.5c-2.6,0-5.4,1.5-7.8,3.4V76.8c0-0.4-0.1-0.6-0.4-0.6c-0.3,0-6.3,1.8-9.3,2.3
					v1.4c2.3,0,3.2,0.4,3.2,2.8v27.2c0,2.9-0.4,3.3-3.2,3.4v1.4h12.8v-1.4c-2.8-0.2-3.2-0.5-3.2-3.4V94.4"/>
				<path class="st0" d="M259.8,96.8h6.3c4.8,0,7,1.1,7.7,5.4h1.4v-13h-1.4c-0.7,3.9-2,4.9-7.7,4.9h-6.3V82.4c0-1.5,0.4-1.9,2.1-1.9
					h5.6c7.2,0,8.6,1.3,9.9,5.4h1.5l-0.2-8.2h-30.9v1.4c3.5,0.2,4.6,0.6,4.6,4.5v25.2c0,3.9-1,4.3-4.7,4.5v1.4h17.5v-1.4
					c-4.4-0.2-5.4-0.6-5.4-4.5V96.8"/>
				<path class="st0" d="M292.6,114.7v-1.4c-2.9-0.2-3.3-1.1-3.3-4.6v-32c0-0.3-0.1-0.5-0.4-0.5c-0.3,0-7.8,2-9.5,2.3v1.4
					c2.7,0,3.3,0.5,3.3,3.3v25.5c0,3.5-0.4,4.4-3.3,4.6v1.4H292.6"/>
				<path class="st1" d="M311.2,101.9c0,7.9-1.6,11.3-5.4,11.3s-5.4-3.4-5.4-11.3c0-7.9,1.6-11.2,5.4-11.2S311.2,94,311.2,101.9
					 M318.1,101.9c0-7.8-5-13.4-12.3-13.4c-7.3,0-12.3,5.7-12.3,13.4c0,7.8,5,13.4,12.3,13.4C313.1,115.4,318.1,109.7,318.1,101.9z"
					/>
				<path class="st0" d="M332.6,114.7v-1.4c-2.6-0.1-3.9-0.7-3.9-3.4V95.7c0.8-1.3,1.8-2.2,2.8-2.2c0.6,0,1.1,0.3,1.4,0.5
					c0.5,0.4,1.1,1.1,2.7,1.1c1.6,0,2.9-1.3,2.9-3c0-1.8-1.2-3.6-3.6-3.6c-3,0-5,2.5-6,4.7h-0.1v-3.9c0-0.4,0-0.8-0.3-0.8
					c-0.5,0-6.5,1.7-9.3,2.2v1.4c2.4,0,3,0.5,3,3.2v14.8c0,2.3-0.9,2.8-3,3.2v1.4H332.6"/>
				<path class="st1" d="M345.4,84.5c2.1,0,3.8-1.8,3.8-3.8c0-2.1-1.7-3.8-3.8-3.8c-2.1,0-3.8,1.7-3.8,3.8
					C341.6,82.7,343.4,84.5,345.4,84.5 M351.9,114.7v-1.4c-2.2,0-3.2-1.2-3.2-3.5V89.5c0-0.6,0-1-0.5-1c-0.5,0-6.2,1.8-9.4,2.1V92
					c2.3,0,3.3,0.6,3.3,4.2v13.6c0,2.3-0.5,3.3-3.3,3.5v1.4H351.9z"/>
				<path class="st1" d="M370.4,90.1c-1.9-1-3.4-1.6-5.6-1.6c-6.8,0-11.7,6.5-11.7,15.2c0,6,3.5,11.6,10.6,11.6
					c2.4,0,4.7-0.9,6.7-2.4v1.5c0,0.7,0.2,0.9,0.4,0.9c0.3,0,5.1-1.2,9.5-2.1v-1.4c-2.6,0-3.4-0.4-3.4-3.7V76.8
					c0-0.3-0.1-0.5-0.4-0.5c-0.3,0-7.8,2-9.7,2.3v1.4c2.9,0,3.6,0.5,3.6,2.8V90.1 M370.4,110.5c-0.9,0.8-1.9,1.4-4.2,1.4
					c-4.3,0-6.6-4.8-6.6-10.5c0-6.7,2.5-10.7,6.1-10.7c2.6,0,4.7,1.7,4.7,6V110.5z"/>
				<path class="st1" d="M397.4,108.7c-1.4,1.4-3.4,2.7-5.3,2.7c-2.3,0-3.9-1.6-3.9-3.9c0-4,4.8-5.7,9.1-6.9V108.7 M403.9,96.7
					c0-6.1-4.8-8.2-10.2-8.2c-4.9,0-10,1.8-10,5.9c0,2,1.3,2.8,2.9,2.8c1.6,0,2.9-0.9,2.9-2.8c0-2.4,0.5-3.7,3.4-3.7
					c3.4,0,4.6,1.1,4.6,7.6c-4.9,1.5-15.7,2.8-15.7,10.4c0,5,3,6.6,6.8,6.6c3.7,0,6.2-1.6,8.8-3.8c0,1.8,0.4,3.8,3.6,3.8
					c2.6,0,5-1.4,6.3-3.5l-0.9-1c-0.4,0.3-1.1,0.9-1.6,0.9c-0.6,0-0.9-0.5-0.9-1.2V96.7z"/>
				<path class="st1" d="M118.7,34.9c0-1.8,1-2.5,2.9-2.5c5.4,0,8.2,3,8.2,7.1c0,5.3-3.2,7.8-11.1,7.8V34.9 M118.7,49.4
					c8.4-0.2,12.9,2.3,12.8,7.5c-0.1,4.1-3.2,8-9,8c-3.1,0-3.9-0.9-3.9-2.3V49.4z M124.7,67.1c9.8,0,14.5-4.2,14.5-10.2
					c0-5.7-5.4-8.1-10.2-9v-0.1c4.5-0.8,8.2-3.8,8.2-8.5c0-6-5.7-9.1-14.6-9.1h-16.3v1.4c4,0.2,5,0.6,5,4.5v25.2c0,3.9-1,4.3-5,4.5
					v1.4H124.7z"/>
				<path class="st1" d="M157.1,61.2c-1.4,1.4-3.4,2.7-5.3,2.7c-2.3,0-3.9-1.6-3.9-3.9c0-4,4.8-5.7,9.1-6.8V61.2 M163.6,49.1
					c0-6.1-4.8-8.2-10.2-8.2c-4.9,0-10,1.8-10,5.9c0,2,1.3,2.8,2.9,2.8c1.6,0,2.9-0.9,2.9-2.8c0-2.4,0.5-3.7,3.4-3.7
					c3.4,0,4.6,1.1,4.6,7.6c-4.9,1.5-15.7,2.8-15.7,10.4c0,5,3,6.6,6.9,6.6c3.7,0,6.2-1.6,8.8-3.8c0,1.8,0.4,3.8,3.6,3.8
					c2.6,0,5-1.4,6.3-3.5l-0.9-1c-0.4,0.3-1.1,0.9-1.6,0.9c-0.6,0-0.9-0.5-0.9-1.2V49.1z"/>
				<path class="st1" d="M177.2,47.4c1-0.9,2.3-2.3,4.5-2.3c3.4,0,6.3,3.2,6.3,10.2c0,7.8-2.4,10.3-5.7,10.3c-3.4,0-5.1-2.3-5.1-8.8
					V47.4 M177.2,65.7c1.4,1,2.9,2.1,5.9,2.1c6.2,0,11.4-7,11.4-14.9c0-6.7-4.2-11.9-9.4-11.9c-3.1,0-5.8,1.9-7.9,4v-3.4
					c0-0.3-0.1-0.5-0.4-0.5c-0.3,0-7.8,1.7-9.5,2v1.4c2.7,0,3.3,0.5,3.3,3.2v26.6c0,2.9-0.4,3.2-3.3,3.4v1.4h14.2v-1.4
					c-4-0.2-4.4-0.5-4.4-3.4V65.7z"/>
				<path class="st0" d="M211.5,41.6h-6V33h-1.7c-1,5.8-4.1,8.9-8,9.5v1.8h3.3v17.1c0,4.1,1.5,6.4,5.4,6.4c4,0,5.9-2.8,7.9-5.7
					l-1.1-1.1c-1.5,1.5-2.4,2.4-3.8,2.4c-1.4,0-2-1.1-2-3.2v-16h6V41.6"/>
				<path class="st1" d="M219.2,36.9c2.1,0,3.8-1.8,3.8-3.8c0-2.1-1.7-3.8-3.8-3.8c-2.1,0-3.8,1.7-3.8,3.8
					C215.4,35.1,217.1,36.9,219.2,36.9 M225.6,67.1v-1.4c-2.2,0-3.2-1.2-3.2-3.5V41.9c0-0.6,0-1-0.5-1c-0.5,0-6.3,1.8-9.4,2.1v1.4
					c2.3,0,3.3,0.6,3.3,4.2v13.6c0,2.3-0.5,3.3-3.3,3.5v1.4H225.6z"/>
				<path class="st0" d="M227.1,67.8h1.4c0.1-0.8,0.4-1.4,1-1.4c0.8,0,1.5,0.5,2.9,0.9c1,0.3,2.3,0.5,4.3,0.5c4.9,0,8.5-2.7,8.5-7.7
					c0-4.3-2.3-6-6-7.8l-4.6-2.3c-2.2-1.1-2.8-2-2.8-3.5c0-2.4,1.4-3.4,3.3-3.4c4,0,6.2,3.2,7.3,6.6h1.7v-8.7h-1.4
					c-0.2,0.8-0.4,1.3-1.3,1.3c-1.4,0-2-1.4-5.9-1.4c-5.1,0-8.1,3.4-8.1,7.1c0,4.6,2.1,6.1,4.7,7.6l4,2.2c2.5,1.4,4.1,2.2,4.1,4.6
					c0,2.3-1.7,3.3-3.8,3.3c-4.5,0-6.9-3.8-8-7.2h-1.4V67.8"/>
				<path class="st0" d="M261.7,41.6h-6V33H254c-1,5.8-4.1,8.9-8,9.5v1.8h3.3v17.1c0,4.1,1.5,6.4,5.4,6.4c4,0,5.9-2.8,7.9-5.7
					l-1.1-1.1c-1.5,1.5-2.4,2.4-3.8,2.4c-1.4,0-2-1.1-2-3.2v-16h6V41.6"/>
				<path class="st0" d="M303.3,49.9v11.4c0,3.9-1,4.3-4.6,4.5v1.4h16.5v-1.4c-3.5-0.2-4.6-0.6-4.6-4.5V36.1c0-3.9,1-4.3,4.6-4.5
					v-1.4h-16.5v1.4c3.5,0.2,4.6,0.6,4.6,4.5v10.8h-16.2V36.1c0-3.9,1-4.3,4.6-4.5v-1.4h-16.5v1.4c3.5,0.2,4.6,0.6,4.6,4.5v25.2
					c0,3.9-1,4.3-4.6,4.5v1.4h16.5v-1.4c-3.5-0.2-4.6-0.6-4.6-4.5V49.9H303.3"/>
				<path class="st1" d="M322.6,50.4c0-3.1,0.7-7,4.4-7c3.6,0,4.4,3.9,4.4,7H322.6 M337.9,52.6c-0.3-6.4-3.9-11.6-10.5-11.6
					c-6.5,0-11.3,5.8-11.3,14.3c0,6.8,4.3,12.6,11.4,12.6c6.2,0,9.2-4.3,11-8.2l-1-0.9c-2.1,2.8-4.3,4.3-7.5,4.3
					c-4.8,0-7.3-3.8-7.3-10.4H337.9z"/>
				<path class="st1" d="M354.7,61.2c-1.4,1.4-3.4,2.7-5.3,2.7c-2.3,0-3.9-1.6-3.9-3.9c0-4,4.8-5.7,9.1-6.8V61.2 M361.2,49.1
					c0-6.1-4.8-8.2-10.2-8.2c-4.9,0-10,1.8-10,5.9c0,2,1.3,2.8,2.9,2.8s2.9-0.9,2.9-2.8c0-2.4,0.5-3.7,3.4-3.7
					c3.4,0,4.6,1.1,4.6,7.6c-4.9,1.5-15.7,2.8-15.7,10.4c0,5,3,6.6,6.9,6.6c3.7,0,6.2-1.6,8.8-3.8c0,1.8,0.4,3.8,3.6,3.8
					c2.6,0,5-1.4,6.3-3.5l-0.9-1c-0.4,0.3-1.1,0.9-1.6,0.9c-0.6,0-0.9-0.5-0.9-1.2V49.1z"/>
				<path class="st0" d="M377.7,67.1v-1.4c-2.9-0.2-3.3-1.1-3.3-4.6v-32c0-0.3-0.1-0.5-0.4-0.5c-0.3,0-7.8,2-9.5,2.3v1.4
					c2.7,0,3.3,0.5,3.3,3.3v25.5c0,3.5-0.4,4.4-3.3,4.6v1.4H377.7"/>
				<path class="st0" d="M393.9,41.6h-6V33h-1.7c-1,5.8-4.1,8.9-8,9.5v1.8h3.3v17.1c0,4.1,1.5,6.4,5.4,6.4c4,0,5.9-2.8,7.9-5.7
					l-1.1-1.1c-1.5,1.5-2.4,2.4-3.8,2.4c-1.4,0-2-1.1-2-3.2v-16h6V41.6"/>
				<path class="st0" d="M404.6,46.8c1.6-1.1,3.4-2.2,5.9-2.2c1.8,0,3.3,0.9,3.3,4.3v13.4c0,2.9-0.4,3.2-3.2,3.4v1.4h12.8v-1.4
					c-2.8-0.2-3.2-0.5-3.2-3.4V49.4c0-5.8-2.4-8.5-7.9-8.5c-2.6,0-5.4,1.5-7.8,3.4V29.3c0-0.4-0.1-0.6-0.4-0.6
					c-0.3,0-6.3,1.8-9.3,2.3v1.4c2.3,0,3.2,0.4,3.2,2.8v27.2c0,2.9-0.4,3.3-3.2,3.4v1.4h12.8v-1.4c-2.8-0.2-3.2-0.5-3.2-3.4V46.8"/>
				<rect x="7.3" y="30.2" class="st0" width="84.4" height="84.4"/>
				<path class="st2" d="M49.6,41.4c0.1,0.1-0.4-0.5-0.9-0.9c-0.5-0.6-1.6-1.4-1.5-1.5c0.5-0.3,2.2-1.8,4-2.7
					c1.3-0.5,2.1-0.8,3.7-0.9c2.3-0.5,3.9,0,6.1,0.6c-3.3-0.1-4.6,0.2-7,1.5C52,38.6,49.7,41.5,49.6,41.4"/>
				<path class="st2" d="M59.4,38.9c-2.5,0.4-4,0.8-6.1,2.1c-1.5,0.9-3.4,2.7-3.4,2.7c-0.1,0-2.1-1.8-3.4-2.7
					c-2.3-1.2-3.8-1.8-6.4-2.1c-2.9-0.4-7.7,0.8-7.6,0.9c0-0.1,5.2,0.3,8.5,2.4c1.5,0.7,3,2.2,4.6,4c1.9,2.1,4.1,5.8,4.3,5.8
					c-0.1-0.1,2.1-3.8,4-5.8c1.9-2,3.1-3.1,5.5-4.3c3.2-1.8,9.1-2.4,9.2-2.4C68.5,39.6,62.9,38.2,59.4,38.9"/>
				<path class="st2" d="M65.2,43.8c-3.1,0.7-4.8,1.3-7.6,3.1c-3.4,2.1-7,7.2-7.8,8.3c-0.8-1.1-4.4-6.2-7.8-8.3
					c-2.8-1.8-4.6-2.4-7.6-3.1c-5.3-1.5-12.2-0.5-12.2-0.6c0,0.1,4.4,0.4,7,1.2c2.3,1,3.8,1.4,5.5,3.1c1.2,1,2.4,2.2,3.7,4
					c0.9,1.4,2,3.8,2.1,4h18.6c0.1-0.1,1.2-2.6,2.1-4c1.2-1.7,2.4-3,3.7-4c1.7-1.6,3.1-2.1,5.5-3.1c2.6-0.8,7-1.1,7-1.2
					C77.4,43.3,70.5,42.3,65.2,43.8"/>
			</g>
		</g>
	</g>
</g>
<g>
	<defs>
		<path id="SVGID_1_" d="M48.4,110.3c-12.7-0.5-22.9-10.2-22.6-18.9c-0.3-6.5,0.2-17,5.2-25.6c4.6-7.6,11-13.2,19.5-12.8
			C59,53.1,65,59.1,68.9,67c4.5,9,4.3,19.5,3.4,25.9C72,101.7,61,110.7,48.4,110.3"/>
	</defs>
	<clipPath id="SVGID_2_">
		<use xlink:href="#SVGID_1_"  style="overflow:visible;"/>
	</clipPath>
	<polyline class="st3" points="24.9,90.8 31,95.1 26.8,100.9 20.6,96.6 24.9,90.8 	"/>
	<polyline class="st3" points="32.9,96.9 38,100.2 34.1,105.4 28.9,101.8 32.9,96.9 	"/>
	<polyline class="st3" points="40.2,102.4 44.8,105.4 41.4,110 36.8,106.7 40.2,102.4 	"/>
	<polyline class="st3" points="47.2,107.3 51.5,110.3 48.1,114.6 43.8,111.5 47.2,107.3 	"/>
	<polyline class="st3" points="22.8,76.8 29.5,81.3 24.6,87.7 17.9,83.2 22.8,76.8 	"/>
	<polyline class="st3" points="31,83.2 36.8,87.1 32.5,92.9 26.8,88.7 31,83.2 	"/>
	<polyline class="st3" points="38.7,89 43.8,92.6 40.2,97.5 35,93.8 38.7,89 	"/>
	<polyline class="st3" points="46,94.5 50.9,97.8 47.5,102.4 42.6,99 46,94.5 	"/>
	<polyline class="st3" points="53,99.6 57.3,102.4 54.2,106.7 49.9,103.6 53,99.6 	"/>
	<polyline class="st3" points="60,104.5 63.7,107.3 60.9,110.9 57,108.2 60,104.5 	"/>
	<polyline class="st3" points="28.6,69.1 35.3,73.7 30.4,80.1 23.7,75.5 28.6,69.1 	"/>
</g>
<polyline class="st2" points="36.8,75.2 42.9,79.5 38.7,85 32.5,81 36.8,75.2 "/>
<g>
	<defs>
		<path id="SVGID_3_" d="M48.4,110.3c-12.7-0.5-22.9-10.2-22.6-18.9c-0.3-6.5,0.2-17,5.2-25.6c4.6-7.6,11-13.2,19.5-12.8
			C59,53.1,65,59.1,68.9,67c4.5,9,4.3,19.5,3.4,25.9C72,101.7,61,110.7,48.4,110.3"/>
	</defs>
	<clipPath id="SVGID_4_">
		<use xlink:href="#SVGID_3_"  style="overflow:visible;"/>
	</clipPath>
	<polyline class="st4" points="44.8,81 49.9,84.7 46,89.9 40.8,86.2 44.8,81 	"/>
	<polyline class="st4" points="52.1,86.5 56.7,89.9 53.3,94.5 48.7,91.1 52.1,86.5 	"/>
	<polyline class="st4" points="59.1,91.7 63.4,94.8 60.3,98.7 55.7,96 59.1,91.7 	"/>
	<polyline class="st4" points="65.8,96.6 69.8,99.3 67,103.3 63.1,100.6 65.8,96.6 	"/>
	<polyline class="st4" points="34.7,61.2 41.4,65.8 36.5,72.2 29.8,67.6 34.7,61.2 	"/>
	<polyline class="st4" points="42.9,67.6 49,71.6 44.5,77.4 38.7,73.1 42.9,67.6 	"/>
	<polyline class="st4" points="50.6,73.4 55.7,77.1 52.1,81.9 46.9,78.3 50.6,73.4 	"/>
	<polyline class="st4" points="57.9,78.9 62.8,81.9 59.4,86.5 54.5,83.2 57.9,78.9 	"/>
	<polyline class="st4" points="64.9,83.8 69.2,86.8 66.1,91.1 61.8,88 64.9,83.8 	"/>
	<polyline class="st4" points="71.9,89 75.9,91.7 72.8,95.4 68.9,92.6 71.9,89 	"/>
	<polyline class="st4" points="46.1,57.4 47.2,58.1 42.3,64.2 35.9,59.7 37.5,57.4 46.1,57.4 	"/>
	<polyline class="st4" points="49,59.7 54.8,63.6 50.6,69.4 44.4,65.5 49,59.7 	"/>
	<polyline class="st4" points="56.7,65.5 61.8,69.1 57.9,74 52.7,70.3 56.7,65.5 	"/>
	<polyline class="st4" points="64,71 68.9,74.3 65.2,78.9 60.6,75.5 64,71 	"/>
	<polyline class="st4" points="71,76.1 75.3,79.2 72.2,83.2 67.6,80.1 71,76.1 	"/>
	<polyline class="st4" points="59.8,57.4 56.3,61.5 50.6,57.5 50.7,57.4 59.8,57.4 	"/>
	<polyline class="st4" points="62.5,57.5 67.6,61.2 64,66.4 58.8,62.7 62.5,57.5 	"/>
	<polyline class="st4" points="70.1,63 74.7,66.4 71.3,71 66.4,67.6 70.1,63 	"/>
</g>
</svg>
